<?xml version="1.0" encoding="UTF-8" standalone="no"?>
<svg
   xmlns:dc="http://purl.org/dc/elements/1.1/"
   xmlns:cc="http://creativecommons.org/ns#"
   xmlns:rdf="http://www.w3.org/1999/02/22-rdf-syntax-ns#"
   xmlns:svg="http://www.w3.org/2000/svg"
   xmlns="http://www.w3.org/2000/svg"
   xmlns:sodipodi="http://sodipodi.sourceforge.net/DTD/sodipodi-0.dtd"
   xmlns:inkscape="http://www.inkscape.org/namespaces/inkscape"
   version="1.1"
   viewBox="-5 -5 125 85"
   id="svg2"
   inkscape:version="0.91 r13725"
   sodipodi:docname="add-more.svg">
  <sodipodi:namedview
     pagecolor="#ffffff"
     bordercolor="#666666"
     borderopacity="1"
     objecttolerance="10"
     gridtolerance="10"
     guidetolerance="10"
     inkscape:pageopacity="0"
     inkscape:pageshadow="2"
     inkscape:window-width="1600"
     inkscape:window-height="837"
     id="namedview8"
     showgrid="false"
     inkscape:zoom="7.2"
     inkscape:cx="35.507253"
     inkscape:cy="3.7979172"
     inkscape:window-x="-8"
     inkscape:window-y="-8"
     inkscape:window-maximized="1"
     inkscape:current-layer="svg2" />
  <metadata
     id="metadata12">
    <rdf:RDF>
      <cc:Work
         rdf:about="">
        <dc:format>image/svg+xml</dc:format>
        <dc:type
           rdf:resource="http://purl.org/dc/dcmitype/StillImage" />
      </cc:Work>
    </rdf:RDF>
  </metadata>
  <defs
     id="defs10">
    <clipPath
       clipPathUnits="userSpaceOnUse"
       id="clipPath4418">
      <path
         style="opacity:1;fill:#41c142;fill-opacity:1;stroke:none;stroke-opacity:1"
         d="m 5.4000632,-189.1054 c -34.8349242,8.82736 -80.8946812,21.17625 -92.0800592,60.06831 -3.158777,33.231734 38.022051,43.839797 63.517421,47.653271 35.663246,6.552649 87.29256,1.59849 98.786589,-39.731981 10.662241,-34.04469 -17.40473,-73.74882 -54.422042,-69.56429 -5.294027,0.1805 -10.568068,0.77626 -15.8019088,1.57469 z"
         id="path4420"
         inkscape:connector-curvature="0" />
    </clipPath>
  </defs>
  <g
     id="g4454">
    <path
       id="path3376"
       d="M 71.96875,5.2851562 C 53.521608,6.8114256 34.605207,10.805054 18.625,20.511719 9.8006658,25.734516 1.6981646,37.017146 6.8164062,47.402344 13.557637,59.093042 27.289865,64.25517 39.441648,68.403733 58.016511,73.618947 79.807487,78.136231 97.447266,67.734375 111.1714,59.418434 115.78358,41.058316 110.33203,26.453125 105.36072,10.251785 87.316903,4.4934229 71.96875,5.2851562 Z"
       style="fill:#ffffff;fill-opacity:1;fill-rule:nonzero;stroke:none"
       inkscape:connector-curvature="0" />
    <circle
       r="33.886318"
       cy="40.429523"
       cx="63.402775"
       id="path4426"
       style="opacity:1;fill:#ffffff;fill-opacity:1;stroke:none;stroke-width:1.96799994;stroke-linecap:round;stroke-linejoin:round;stroke-miterlimit:4;stroke-dasharray:none;stroke-dashoffset:0;stroke-opacity:0.39732145" />
    <path
       d="m 40.76417,66.70923 c -8.34534,-2.312 -30.46143,-10.9143 -33.12988,-22.9736 -0.0214,-0.098 -0.0623,-0.2417 -0.0915,-0.3381 -0.0671,-0.2149 -1.59058,-5.3455 2.45361,-11.8079 4.83583,-7.73069 18.0896,-18.0908 53.7677,-23.5449 0.0403,-0.006 0.0842,-0.0134 0.12325,-0.022 0.22949,-0.0427 23.08715,-4.16504 36.57959,7.20093 6.86157,5.78003 10.25269,14.78517 10.07751,26.76147 -0.004,0.105 -0.53711,14.2212 -12.43775,22.887 -12.07275,8.7927 -31.36596,9.4104 -57.34252,1.8371 0,0 0,0 0,0 z M 62.59888,0.91094 C 31.55702,5.66801 11.72913,14.8062 3.66821,28.07773 0.72571,32.92383 0,37.38193 0,40.59963 c 0,2.8333 0.55665,4.6863 0.66345,5.0183 4.45435,18.5474 36.74744,27.6636 38.12806,28.0445 28.26233,8.2409 49.70276,7.2278 63.67614,-3.0249 14.76136,-10.8289 15.2887,-27.8064 15.30396,-28.523 C 117.98035,27.82373 113.7146,16.9168 105.09461,9.6707 89.07715,-3.79121 64.03931,0.64116 62.59888,0.91094 c 0,0 0,0 0,0 z"
       style="fill:#231f20;fill-opacity:1;fill-rule:nonzero;stroke:none"
       id="path7"
       inkscape:connector-curvature="0" />
    <path
       style="opacity:1;fill:#231f20;fill-opacity:1;stroke:none;stroke-width:6.19555521;stroke-linecap:round;stroke-linejoin:round;stroke-miterlimit:4;stroke-dasharray:none;stroke-dashoffset:0;stroke-opacity:0.39732145"
       d="m 63.56729,12.509189 c -3.096923,0 -5.588505,2.491582 -5.588505,5.588506 l 0,16.772154 -16.772155,0 c -3.096925,0 -5.588505,2.49158 -5.588505,5.588505 0,3.096924 2.49158,5.588508 5.588505,5.588508 l 16.772155,0 0,16.772155 c 0,3.096921 2.491582,5.588506 5.588505,5.588506 3.096925,0 5.588508,-2.491585 5.588508,-5.588506 l 0,-16.772155 16.772158,0 c 3.096918,0 5.588504,-2.491584 5.588504,-5.588508 0,-3.096925 -2.491586,-5.588505 -5.588504,-5.588505 l -16.772158,0 0,-16.772154 c 0,-3.096924 -2.491583,-5.588506 -5.588508,-5.588506 z"
       id="rect4361"
       inkscape:connector-curvature="0" />
  </g>
</svg>
