<?xml version="1.0" encoding="UTF-8" standalone="no"?>
<svg
   xmlns:dc="http://purl.org/dc/elements/1.1/"
   xmlns:cc="http://creativecommons.org/ns#"
   xmlns:rdf="http://www.w3.org/1999/02/22-rdf-syntax-ns#"
   xmlns:svg="http://www.w3.org/2000/svg"
   xmlns="http://www.w3.org/2000/svg"
   id="svg2"
   width="30px"
   height="20px"
   viewBox="0 0 117.77891 79.167733"
   version="1.1">
  <metadata
     id="metadata15">
    <rdf:RDF>
      <cc:Work
         rdf:about="">
        <dc:format>image/svg+xml</dc:format>
        <dc:type
           rdf:resource="http://purl.org/dc/dcmitype/StillImage" />
        <dc:title></dc:title>
      </cc:Work>
    </rdf:RDF>
  </metadata>
  <defs
     id="defs13" />
  <g
     id="g4180">
    <path
       style="fill:#ffffff;fill-opacity:1;fill-rule:nonzero;stroke:none"
       d="M 71.96875,5.2851562 C 53.521608,6.8114256 34.605207,10.805054 18.625,20.511719 9.8006658,25.734516 1.6981646,37.017146 6.8164062,47.402344 13.557637,59.093042 27.289865,64.25517 39.441648,68.403733 58.016511,73.618947 79.807487,78.136231 97.447266,67.734375 111.1714,59.418434 115.78358,41.058316 110.33203,26.453125 105.36072,10.251785 87.316903,4.4934229 71.96875,5.2851562 Z"
       id="path3376" />
    <path
       id="path7"
       style="fill:#231f20;fill-opacity:1;fill-rule:nonzero;stroke:none"
       d="m 40.76417,66.70923 c -8.34534,-2.312 -30.46143,-10.9143 -33.12988,-22.9736 -0.0214,-0.098 -0.0623,-0.2417 -0.0915,-0.3381 -0.0671,-0.2149 -1.59058,-5.3455 2.45361,-11.8079 4.83583,-7.73069 18.0896,-18.0908 53.7677,-23.5449 0.0403,-0.006 0.0842,-0.0134 0.12325,-0.022 0.22949,-0.0427 23.08715,-4.16504 36.57959,7.20093 6.86157,5.78003 10.25269,14.78517 10.07751,26.76147 -0.004,0.105 -0.53711,14.2212 -12.43775,22.887 -12.07275,8.7927 -31.36596,9.4104 -57.34252,1.8371 0,0 0,0 0,0 z M 62.59888,0.91094 C 31.55702,5.66801 11.72913,14.8062 3.66821,28.07773 0.72571,32.92383 0,37.38193 0,40.59963 c 0,2.8333 0.55665,4.6863 0.66345,5.0183 4.45435,18.5474 36.74744,27.6636 38.12806,28.0445 28.26233,8.2409 49.70276,7.2278 63.67614,-3.0249 14.76136,-10.8289 15.2887,-27.8064 15.30396,-28.523 C 117.98035,27.82373 113.7146,16.9168 105.09461,9.6707 89.07715,-3.79121 64.03931,0.64116 62.59888,0.91094 c 0,0 0,0 0,0 z" />
    <path
       style="fill:#231f20;fill-opacity:1;stroke:none;stroke-width:6.65154743;stroke-miterlimit:4;stroke-dasharray:none;stroke-opacity:1"
       d="m 57.062355,14.957902 0,19.088261 -19.08664,0 0,12.723889 19.08664,0 0,19.08826 12.725508,0 0,-19.08826 19.086635,0 0,-12.723889 -19.086635,0 0,-19.088261 -12.725508,0 z"
       id="rect4133" />
  </g>
</svg>
