<?xml version="1.0" encoding="UTF-8" standalone="no"?>
<svg
   xmlns:dc="http://purl.org/dc/elements/1.1/"
   xmlns:cc="http://creativecommons.org/ns#"
   xmlns:rdf="http://www.w3.org/1999/02/22-rdf-syntax-ns#"
   xmlns:svg="http://www.w3.org/2000/svg"
   xmlns="http://www.w3.org/2000/svg"
   xmlns:sodipodi="http://sodipodi.sourceforge.net/DTD/sodipodi-0.dtd"
   xmlns:inkscape="http://www.inkscape.org/namespaces/inkscape"
   id="svg2"
   viewBox="0 -50 320 120"
   version="1.1"
   inkscape:version="0.91 r13725"
   sodipodi:docname="colored-gator.svg">
  <sodipodi:namedview
     pagecolor="#ffffff"
     bordercolor="#666666"
     borderopacity="1"
     objecttolerance="10"
     gridtolerance="10"
     guidetolerance="10"
     inkscape:pageopacity="0"
     inkscape:pageshadow="2"
     inkscape:window-width="1600"
     inkscape:window-height="837"
     id="namedview26"
     showgrid="false"
     inkscape:zoom="4.4486085"
     inkscape:cx="114.99624"
     inkscape:cy="29.395357"
     inkscape:window-x="-8"
     inkscape:window-y="-8"
     inkscape:window-maximized="1"
     inkscape:current-layer="svg2" />
  <metadata
     id="metadata82">
    <rdf:RDF>
      <cc:Work
         rdf:about="">
        <dc:format>image/svg+xml</dc:format>
        <dc:type
           rdf:resource="http://purl.org/dc/dcmitype/StillImage" />
        <dc:title />
      </cc:Work>
    </rdf:RDF>
  </metadata>
  <defs
     id="defs80">
    <clipPath
       clipPathUnits="userSpaceOnUse"
       id="clipPath4191">
      <path
         style="fill:#ffffff;fill-opacity:1;fill-rule:nonzero;stroke:none"
         d="m 38.256085,-188.81505 c -0.981275,0.0979 -1.966064,0.26194 -2.94676,0.48813 -3.944853,0.90979 -7.828794,2.85928 -11.243121,5.84613 -2.533736,2.21763 -4.803205,5.01138 -6.643916,8.37143 -2.955983,-1.62109 -6.158421,-2.61465 -9.542864,-3.05289 l -0.2758267,0.19506 c -0.059112,-0.084 -0.1178107,-0.16777 -0.1768247,-0.25109 -2.0478317,-0.23474 -4.1566023,-0.27767 -6.3128977,-0.1525 -0.029162,0.0706 -0.061241,0.13925 -0.092853,0.21361 l -0.4298011,-0.18237 c -1.30372982,0.0927 -2.6188686,0.24483 -3.9476785,0.45159 l -0.1008648,0.0581 c -0.00863,-0.0138 -0.013657,-0.0256 -0.023104,-0.0391 -1.7727668,0.27889 -3.5665813,0.65526 -5.3698432,1.11642 -20.8112955,5.3199 -43.1870115,21.7811 -54.0723335,30.75126 -8.722363,7.18818 -20.276243,14.55067 -32.390259,21.29648 -13.487348,7.51101 -27.683068,14.26827 -39.442958,19.18672 19.76962,5.629523 31.69712,4.08938 45.214679,1.07695 -1.771956,3.794493 -3.269467,7.533147 -3.24499,11.204884 2.842092,0.2121 5.072495,-1.675426 5.885837,-1.923311 l 0.0016,0.03892 c -0.468866,0.37533 -0.977419,2.697735 -1.297,5.325737 2.215819,-0.192457 4.740265,-2.707201 5.286432,-2.791091 0.139672,1.634406 -0.679326,4.058279 -0.508198,4.79068 13.103168,-5.803524 21.437495,-17.470347 24.877229,-25.763667 6.915935,-2.79302 13.711041,-5.91368 20.390202,-8.99334 4.893966,-2.25678 9.725556,-4.47599 14.510875,-6.52913 -0.244709,1.01587 -0.539734,2.0335 -0.837691,3.05142 -0.222428,0.097 -0.442314,0.18367 -0.664995,0.28134 0.100013,0.28381 0.222083,0.57735 0.337644,0.86841 -0.186302,0.6153 -0.36554,1.22481 -0.554644,1.83816 -0.342692,-0.74576 -0.658328,-1.48858 -0.913294,-2.20576 -3.017653,1.33518 -6.055165,2.72903 -9.118502,4.13971 0.498796,1.13632 1.36541,2.80897 2.378584,4.39758 0.726484,1.13894 2.297605,3.03198 3.475397,4.24417 0.600102,-0.0254 1.202597,-0.0578 1.803876,-0.085 -0.06776,1.14734 -0.04708,2.27667 0.125073,3.37579 2.842533,-0.21139 4.76818,-2.40758 5.538269,-2.7754 l 0.0075,0.0381 c -0.40839,0.44542 -0.568472,2.81333 -0.494545,5.45708 2.163966,-0.5176 4.286419,-3.37591 4.813735,-3.53977 0.380215,1.59416 -0.0684,4.1115 0.210523,4.80941 4.034616,-2.56197 7.440313,-5.69583 10.2819234,-9.05397 1.2522385,-0.17603 2.4953082,-0.3656 3.7206048,-0.57884 -0.4251265,-0.54086 -1.0376306,-1.4026 -1.5779801,-2.13212 0.2430824,-0.33063 0.4631402,-0.6658 0.695949,-0.99862 0.8608228,1.20638 1.65203,2.2764 2.1466544,2.90156 4.0331952,-0.75354 7.8928643,-1.73145 11.4745465,-3.02281 -1.4836485,-1.45765 -3.7468425,-4.38079 -5.7136141,-7.85624 -0.6389198,-1.12915 -1.2408657,-2.32625 -1.7932983,-3.54603 0.2181617,-0.57619 0.4246631,-1.14063 0.6118233,-1.69805 0.6556617,1.59782 1.4264029,3.16956 2.2558291,4.6361 2.2485932,3.97549 4.7357461,7.14752 5.836798,8.01794 4.022915,-1.5582 7.668299,-3.54092 10.79574,-6.07139 0.811954,0.51254 1.6508,0.99142 2.549687,1.40497 3.706994,1.70752 8.14466,2.60522 13.053212,2.87437 -0.0079,0.016 -0.01605,0.0323 -0.02393,0.0482 2.617951,0.13856 5.365317,0.0978 8.214968,-0.10468 4.736083,-0.33759 9.727337,-1.11288 14.811331,-2.21284 6.778455,-1.46821 11.713038,-1.17237 17.457574,-0.82935 5.004378,0.29987 10.641705,0.6363 18.809538,-0.19399 6.280241,-0.63748 10.135701,-2.71607 11.720091,-5.04084 0.53074,-0.77668 0.78503,-1.56927 0.76644,-2.31992 -0.0173,-0.7295 -0.29683,-1.44276 -0.82765,-2.07835 -0.72045,-0.86296 -1.86718,-1.59505 -3.43943,-2.0969 1.10137,-0.01 2.16127,-0.0603 3.14229,-0.18525 4.03035,-0.51087 7.01389,-1.94791 9.01943,-3.90424 l 0.003,-0.007 c 1.96151,-1.9123 3.00061,-4.34123 3.17484,-6.89201 0.0532,-0.75564 0.032,-1.52614 -0.0677,-2.2997 -0.25754,-2.04476 -1.1953,-3.95379 -2.57323,-5.62753 -1.84049,-2.24212 -4.4658,-4.05165 -7.33001,-5.21912 -2.85836,-1.1661 -5.92179,-1.68085 -8.65624,-1.33427 -1.870636,0.23596 -3.584646,0.88069 -4.95436,2.00491 l -0.530362,0.43854 -0.67161,-0.19033 c -0.29178,-0.0825 -1.081446,-0.29481 -2.01716,-0.54361 -8.136482,-2.17876 -28.702197,-7.68402 -33.268493,-17.20747 l -0.05309,-0.1316 c -2.382355,-6.71108 -7.11544,-10.94771 -12.682059,-12.72169 -2.713704,-0.86505 -5.629886,-1.15092 -8.573707,-0.85733 z m -45.2990956,7.74927 c -0.5420907,0.0695 -1.1692945,0.99211 -2.0000555,2.81297 1.3670968,-0.33959 2.7285035,-0.63252 4.0797133,-0.87492 -0.9436346,-1.33499 -1.6098382,-1.99312 -2.0796578,-1.93805 z m 10.6442229,0.0156 c -0.3845927,0.003 -0.7901085,0.38466 -1.2522439,1.14254 1.0081498,-0.0269 2.005917,-0.0179 2.9924266,0.0297 -0.7263567,-0.78517 -1.2932007,-1.17658 -1.7401827,-1.17222 z m -22.5773613,2.95187 c -0.519657,0.15719 -0.868041,1.33265 -1.194255,3.53077 1.467844,-0.5941 2.941409,-1.15138 4.408437,-1.66368 -1.641529,-1.40391 -2.670013,-2.03237 -3.214182,-1.86709 z m -9.615623,4.55592 c -0.595622,0.26218 -1.061553,1.43234 -1.525459,3.57646 1.441409,-0.74415 2.893441,-1.4626 4.357719,-2.15073 -1.409449,-1.15746 -2.321339,-1.6507 -2.83226,-1.42573 z m -11.203084,6.34359 c -0.202378,0.005 -0.365868,0.0466 -0.492314,0.12663 -0.478007,0.30387 -0.646606,1.36434 -0.598967,3.22231 1.314703,-0.81236 2.655905,-1.61558 4.012042,-2.40414 -1.357708,-0.63755 -2.313589,-0.959 -2.920772,-0.94482 z m -9.780017,4.75167 c -0.0871,0.0155 -0.159594,0.0445 -0.220319,0.0886 -0.529691,0.38795 -0.636121,1.89666 -0.460503,4.67018 1.470596,-1.02497 2.99233,-2.05994 4.561457,-3.09193 -2.008097,-1.18891 -3.270811,-1.77508 -3.880602,-1.66683 z m -8.530766,7.76587 c -0.196774,0.0339 -0.353703,0.0987 -0.468367,0.1958 -0.41864,0.35659 -0.451603,1.3542 -0.18725,3.03079 1.140106,-0.87722 2.343583,-1.78532 3.604699,-2.7158 -1.391916,-0.43176 -2.358772,-0.61232 -2.949082,-0.51079 z m -8.724097,6.00906 c -0.214796,0.006 -0.380944,0.0508 -0.496706,0.13927 -0.450292,0.34574 -0.415386,1.59713 0.01078,3.89011 0.971107,-0.75528 1.917792,-1.50886 2.829671,-2.26077 0.316155,-0.25885 0.638739,-0.52544 0.971814,-0.79641 -1.577526,-0.64811 -2.671147,-0.99095 -3.315555,-0.97219 z m -8.736379,7.73518 c -0.176822,0.0231 -0.322138,0.0759 -0.434446,0.15531 -0.418105,0.29472 -0.532422,1.18285 -0.41735,2.69328 1.145316,-0.77066 2.268766,-1.54489 3.364083,-2.31762 -1.155512,-0.41639 -1.981811,-0.60017 -2.512287,-0.53097 z m -9.085748,5.4447 c -0.192816,-0.004 -0.346838,0.0256 -0.463561,0.0929 -0.414797,0.24313 -0.498478,1.24112 -0.324017,3.09055 1.21177,-0.74012 2.412038,-1.48611 3.591354,-2.23555 -1.298403,-0.60736 -2.225337,-0.93482 -2.803778,-0.94786 z M 39.07057,-148.00353 c 2.827248,0.75913 5.69709,1.53713 8.704581,2.36337 15.522642,4.2654 33.051405,9.05095 48.384698,10.86818 -3.065628,0.10433 -5.91593,0.2389 -8.535299,0.3747 -1.61438,0.0837 -3.120903,0.14445 -4.649836,0.21101 -0.643585,-0.12578 -1.281676,-0.24043 -1.928907,-0.3714 -0.02478,0.16244 -0.03777,0.30275 -0.0608,0.4623 -6.152638,0.21378 -12.133963,0.10541 -20.028289,-1.0424 0.241351,-0.16876 0.470472,-0.32334 0.790909,-0.56543 0.897922,-0.67269 1.941849,-1.57428 3.058898,-2.63041 -1.284097,-0.32824 -2.565675,-0.65971 -3.842114,-0.99462 -0.200825,1.46231 -0.328042,2.79551 -0.331198,3.82885 1.38e-4,0.12263 -0.01164,0.20594 -0.01733,0.30923 -1.122946,-0.16636 -2.244454,-0.33144 -3.45274,-0.54219 -4.072201,-0.70997 -7.916171,-3.20665 -11.70684,-6.3224 0.01822,-0.0924 0.04299,-0.18318 0.06079,-0.2757 -1.928779,-1.58214 -3.843054,-3.31697 -5.765906,-5.06255 -0.226041,-0.20532 -0.454241,-0.40522 -0.680607,-0.61053 z m -133.989875,18.57174 c -0.222658,0.008 -0.405634,0.0523 -0.548567,0.13387 -0.494691,0.28468 -0.614446,1.30844 -0.467928,3.11813 1.399759,-0.78069 2.789275,-1.57218 4.166943,-2.36992 -1.449338,-0.60443 -2.482466,-0.90656 -3.150453,-0.8821 z m -9.288375,5.32033 c -0.19374,-0.009 -0.35209,0.0135 -0.47512,0.0733 -0.40799,0.19679 -0.51995,1.10469 -0.40542,2.80911 1.20597,-0.63069 2.41043,-1.27042 3.61441,-1.91648 -1.24784,-0.60375 -2.15274,-0.93716 -2.73387,-0.96591 z M 5.0157262,-137.17084 c 2.4548882,-0.38145 4.9005312,-0.59895 7.3393268,-0.68705 0.08858,0.58768 0.183066,1.16603 0.302738,1.71862 0.05712,0.26252 0.141174,0.49757 0.205413,0.75303 -3.1008453,0.089 -6.2229598,0.43854 -9.3648172,1.01432 0.203489,-0.93157 0.3400961,-1.79083 0.4384456,-2.59967 0.3593736,-0.0615 0.7198761,-0.14346 1.0788862,-0.19924 z m 45.1075008,-5.07907 c 0.245679,1.33303 0.521296,2.51347 0.816008,3.38906 0.0695,0.20845 0.1102,0.3881 0.134918,0.53339 0.124664,-0.14606 0.268465,-0.32844 0.433729,-0.53444 0.505835,-0.63921 1.088137,-1.50433 1.716389,-2.53866 -1.039397,-0.28163 -2.075849,-0.56731 -3.101086,-0.84934 z m -162.725797,22.80189 c -0.17187,-0.004 -0.31868,0.0256 -0.4373,0.0865 -0.46088,0.23842 -0.72495,1.10192 -0.86417,2.61242 1.19958,-0.59221 2.40663,-1.19411 3.61372,-1.80503 -1.03703,-0.58032 -1.79665,-0.8821 -2.31224,-0.89384 z m -10.32957,3.85037 c -0.50335,0.21761 -0.75864,1.37723 -0.88456,3.57512 1.4028,-0.64682 2.81944,-1.30825 4.24949,-1.98629 -1.75552,-1.25211 -2.84695,-1.81402 -3.36493,-1.58883 z m 193.606987,-21.1989 1.62605,0.0763 c -0.536848,-0.0203 -1.079369,-0.0459 -1.62605,-0.0763 z m 0.511134,0.0422 c -0.09066,0.93947 -0.130678,1.76992 -0.108472,2.42773 0.0039,0.0634 4.92e-4,0.12271 -0.0015,0.17477 0.196416,-0.12976 0.4361,-0.29292 0.713443,-0.48923 0.566525,-0.39979 1.210327,-0.91419 1.910585,-1.52234 -0.837426,-0.19186 -1.675474,-0.39068 -2.514,-0.59094 z m -107.689746,17.15953 c -0.206668,0.0942 -0.412957,0.18892 -0.619454,0.28451 -7.300982,3.36698 -14.73468,6.7959 -22.328367,9.78787 0.549888,-0.0769 1.106902,-0.15165 1.671544,-0.22442 6.905115,-0.88222 14.716755,-1.18465 22.82171,-1.49961 1.25957,-0.0494 2.52763,-0.10027 3.79961,-0.15261 -1.092144,-1.20902 -2.266648,-2.6703 -2.889989,-3.64847 -1.026804,-1.60602 -1.916941,-3.32647 -2.455049,-4.54723 z"
         id="path4193"
         inkscape:connector-curvature="0" />
    </clipPath>
  </defs>
  <g
     id="g4195">
    <g
       clip-path="url(#clipPath4191)"
       id="g6544"
       transform="matrix(1.1681082,0.15054511,-0.15054511,1.1681082,148.5019,176.91511)"
       mask="none">
      <rect
         y="-198.24481"
         x="-155.88287"
         height="119.01105"
         width="34.146626"
         id="rect6335"
         style="opacity:1;fill:#c04040;fill-opacity:1" />
      <rect
         style="opacity:1;fill:#c09a40;fill-opacity:1"
         id="rect6341"
         width="34.146626"
         height="119.01105"
         x="-122.07434"
         y="-198.24481" />
      <rect
         y="-198.24481"
         x="-88.265808"
         height="119.01105"
         width="34.146626"
         id="rect6331"
         style="opacity:1;fill:#8bc040;fill-opacity:1" />
      <rect
         style="opacity:1;fill:#40c04f;fill-opacity:1"
         id="rect6333"
         width="34.146626"
         height="119.01105"
         x="-54.457268"
         y="-198.24481" />
      <rect
         y="-198.24481"
         x="-20.648724"
         height="119.01105"
         width="34.146626"
         id="rect6339"
         style="opacity:1;fill:#40c0a9;fill-opacity:1" />
      <rect
         style="opacity:1;fill:#407cc0;fill-opacity:1"
         id="rect6337"
         width="34.146626"
         height="119.01105"
         x="13.159817"
         y="-198.24481" />
      <rect
         style="opacity:1;fill:#5e40c0;fill-opacity:1"
         id="rect6329"
         width="34.146626"
         height="119.01105"
         x="46.968353"
         y="-198.24481" />
      <rect
         y="-198.24481"
         x="80.776894"
         height="119.01105"
         width="34.146626"
         id="rect6327"
         style="opacity:1;fill:#b840c0;fill-opacity:1" />
      <rect
         style="opacity:1;fill:#c0406d;fill-opacity:1"
         id="rect6343"
         width="34.146626"
         height="119.01105"
         x="114.58543"
         y="-198.24481" />
    </g>
    <g
       transform="translate(-4.1766204,196.48173)"
       id="g6816">
      <path
         id="path6671"
         style="fill:#ffffff;fill-opacity:1;fill-rule:nonzero;stroke:none"
         d="m 249.21911,-171.41302 c -1.46384,1.06551 -2.81811,1.96006 -3.96826,2.61066 -0.59583,0.34022 -1.09373,0.60744 -1.46217,0.78833 0.0449,-0.19002 0.093,-0.43069 0.1295,-0.71697 0.15924,-1.20657 0.50787,-2.74426 0.9626,-4.42217 1.44059,0.58336 2.88782,1.16342 4.33837,1.74015 0,0 0,0 0,0 z"
         inkscape:connector-curvature="0" />
      <path
         id="path6673"
         style="fill:#ffffff;fill-opacity:1;fill-rule:nonzero;stroke:none"
         d="m 259.28,-167.54019 c -0.90951,0.60495 -1.73934,1.10865 -2.46128,1.49037 -0.35352,0.18756 -0.65557,0.34272 -0.90453,0.46472 0.0102,-0.0605 0.0216,-0.12951 0.0265,-0.20415 0.0731,-0.77174 0.24728,-1.73517 0.49457,-2.81894 0.94934,0.36016 1.89535,0.71782 2.84467,1.068 0,0 0,0 0,0 z"
         inkscape:connector-curvature="0" />
      <path
         id="path6675"
         style="fill:#ffffff;fill-opacity:1;fill-rule:nonzero;stroke:none"
         d="m 286.11347,-159.08752 c -1.71609,1.82149 -3.3824,3.43883 -4.83627,4.69271 -1.16508,1.00409 -2.10776,1.7551 -2.71521,2.14263 0.0199,-0.4423 0.053,-1.14433 0.093,-2.0165 0.093,-1.84139 0.39169,-4.17488 0.79665,-6.56895 2.24719,0.63731 4.47114,1.22483 6.66189,1.75011 0,0 0,0 0,0 z"
         inkscape:connector-curvature="0" />
      <path
         id="path6677"
         style="fill:#ffffff;fill-opacity:1;fill-rule:nonzero;stroke:none"
         d="m 272.86933,-162.82425 c -1.60655,1.22151 -3.11353,2.26711 -4.41139,3.05462 -0.93273,0.56594 -1.68622,0.99331 -2.19406,1.23727 0.0564,-0.28463 0.13442,-0.67133 0.2091,-1.14932 0.20912,-1.33686 0.62073,-3.03717 1.14848,-4.87691 1.75926,0.5983 3.50855,1.18001 5.24787,1.73434 0,0 0,0 0,0 z"
         inkscape:connector-curvature="0" />
      <path
         id="path6679"
         style="fill:#ffffff;fill-opacity:1;fill-rule:nonzero;stroke:none"
         d="m 236.15255,-176.74054 c -0.88958,1.11363 -1.70115,2.03888 -2.38825,2.70941 -0.22406,0.21575 -0.4199,0.40495 -0.58752,0.55681 -0.007,-0.17344 -0.0265,-0.38919 -0.0763,-0.64313 -0.21243,-1.06717 -0.35516,-2.48618 -0.44146,-4.08028 1.15513,0.48379 2.32187,0.97173 3.49359,1.45719 0,0 0,0 0,0 z"
         inkscape:connector-curvature="0" />
      <path
         id="path6687"
         style="fill:#ffffff;fill-opacity:1;fill-rule:evenodd;stroke:none"
         d="m 229.41929,-227.94787 c -2.40983,1.029 -4.54085,2.76417 -6.04783,5.13252 -3.97655,6.25196 -2.12104,14.59758 4.13257,18.57332 6.05612,3.85208 14.07232,2.23224 18.18329,-3.5517 0,0 -12.01597,-17.87293 -12.01597,-17.87293 0,0 -1.38416,2.4364 -1.38416,2.4364 0,0 -2.8679,-4.71761 -2.8679,-4.71761 0,0 0,0 0,0 z"
         inkscape:connector-curvature="0" />
      <path
         id="path6814"
         d="m 67.039789,-131.67009 c -0.0237,-0.11093 -0.0562,-0.64296 -0.0676,-1.10735 -0.0282,-1.15097 0.12469,-2.17781 0.51173,-3.4369 0.0226,-0.0737 0.0391,-0.13521 0.0366,-0.13676 -0.002,-0.002 -0.31769,0.085 -0.70044,0.19236 -2.43734,0.68356 -3.68602,0.91585 -5.14841,0.95772 l -0.48482,0.0139 0.012,-0.0727 c 0.0183,-0.11131 0.49348,-1.95346 0.66838,-2.5911 0.18888,-0.6886 0.38572,-1.35813 0.54732,-1.86164 0.0666,-0.20737 0.11973,-0.37873 0.11816,-0.3808 -0.002,-0.002 -0.0682,0.0144 -0.14796,0.0365 -0.21595,0.0599 -0.67402,0.15923 -0.94488,0.20488 -0.55492,0.0935 -0.83459,0.11398 -1.56838,0.11477 -0.71799,7.7e-4 -0.99467,-0.0157 -1.59954,-0.095 -0.51621,-0.0677 -1.66057,-0.26996 -1.68917,-0.29856 -0.0127,-0.0127 0.12009,-1.12343 0.20614,-1.72456 0.35799,-2.50089 1.32839,-5.21404 2.95599,-8.26464 0.14539,-0.27251 0.26021,-0.49959 0.25516,-0.50464 -0.005,-0.005 -0.33985,0.0145 -0.74401,0.0435 -7.53945,0.54066 -13.55537,0.47359 -19.57615,-0.21827 -9.86601,-1.13372 -20.01384,-4.10491 -31.6376197,-9.2632 -0.94824,-0.4208 -1.94989,-0.87485 -1.96897,-0.89253 -0.009,-0.008 0.0379,-0.62644 0.1042,-1.37364 l 0.12048,-1.35853 0.76828,-0.20337 c 3.7874197,-1.00256 7.8836697,-2.159 11.9738697,-3.38043 1.59141,-0.47523 2.74419,-0.82488 2.75488,-0.83557 0.005,-0.005 0.0555,-0.26624 0.11252,-0.58086 0.86032,-4.74637 2.01413,-6.83516 4.01657,-7.27138 0.17969,-0.0392 0.2744,-0.0461 0.62712,-0.0457 0.37053,3.5e-4 0.44389,0.006 0.67839,0.0561 1.50425,0.31867 3.22191,1.4669 5.7028,3.81223 l 0.37773,0.35709 0.34933,-0.11722 c 0.19213,-0.0645 0.35758,-0.1246 0.36767,-0.13362 0.0101,-0.009 0.0493,-0.17908 0.0872,-0.37791 0.60086,-3.1542 1.44507,-5.00803 2.68553,-5.89726 0.22255,-0.15954 0.61808,-0.36695 0.86291,-0.45251 0.10167,-0.0355 0.30265,-0.0895 0.44662,-0.11997 0.23497,-0.0497 0.30539,-0.0554 0.68763,-0.0553 0.46209,2.1e-4 0.64583,0.0226 1.08021,0.132 1.27919,0.32224 2.78982,1.19483 4.69954,2.71461 l 0.34755,0.27659 0.14765,-0.0547 c 0.0812,-0.0301 0.15048,-0.065 0.15394,-0.0776 0.003,-0.0126 0.0168,-0.23321 0.0297,-0.49027 0.11372,-2.2717 0.49098,-3.9871 1.10546,-5.02641 0.34902,-0.59033 0.8408,-1.07433 1.35567,-1.33424 0.32721,-0.16517 0.74289,-0.28687 1.11813,-0.32735 1.54624,-0.16679 3.68078,0.75052 6.82702,2.9339 0.31498,0.21858 0.31982,0.22103 0.38431,0.1941 0.0359,-0.015 0.19385,-0.0771 0.35095,-0.13793 l 0.28563,-0.11066 2e-4,-0.10552 c 2.1e-4,-0.16474 0.0391,-0.98614 0.063,-1.33113 0.20431,-2.95038 0.85909,-4.70514 2.08695,-5.59293 0.46171,-0.33384 0.99536,-0.54114 1.59806,-0.62078 0.32896,-0.0435 0.92799,-0.0286 1.31019,0.0325 0.57186,0.0914 1.29982,0.30137 1.9807,0.57128 1.09716,0.43491 2.58074,1.21436 4.06116,2.13367 0.18113,0.11248 0.3387,0.2045 0.35016,0.2045 0.0164,0 1.69986,-0.72154 1.71291,-0.73418 0.002,-0.002 0.0137,-0.29773 0.0263,-0.65762 0.0693,-1.98208 0.24884,-3.27663 0.60757,-4.38103 0.50097,-1.54233 1.41487,-2.45578 2.69689,-2.69556 0.30165,-0.0564 0.98082,-0.0514 1.33727,0.01 1.4122,0.24289 2.99295,1.00068 5.47984,2.62694 0.19802,0.12949 0.37249,0.24296 0.38771,0.25216 0.0177,0.0107 0.17982,-0.0568 0.44865,-0.18677 l 0.42097,-0.20348 0.0142,-0.51029 c 0.10357,-3.71026 0.84279,-5.69437 2.45373,-6.58601 1.14085,-0.63146 2.73082,-0.53837 4.75167,0.27819 0.72598,0.29334 1.79326,0.81274 2.62209,1.27604 0.2281,0.1275 0.42359,0.23182 0.43443,0.23182 0.016,0 1.3695,-0.74649 1.46261,-0.80666 0.0217,-0.014 0.0208,-0.112 -0.005,-0.52451 -0.17192,-2.74408 -0.0404,-4.75992 0.39485,-6.05371 0.24502,-0.72827 0.56122,-1.25541 1.0093,-1.68263 0.87838,-0.8375 2.11744,-1.04832 3.72506,-0.63381 1.267641,0.32684 2.991731,1.12376 5.048791,2.33367 0.19423,0.11424 0.36307,0.20773 0.3752,0.20776 0.0121,0 0.12303,-0.0599 0.24643,-0.13324 l 0.22436,-0.13329 -0.0128,-0.25018 c -0.0578,-1.12764 -0.0613,-1.98966 -0.0113,-2.80349 0.14392,-2.3418 0.7662,-3.79762 1.95131,-4.56507 0.48862,-0.31642 1.00401,-0.49163 1.63999,-0.55751 0.28983,-0.03 0.9291,-0.0135 1.26826,0.0328 1.35582,0.18516 2.94018,0.74705 5.12181,1.81643 0.62333,0.30554 0.62452,0.30601 0.69071,0.27466 0.0569,-0.0269 0.0663,-0.0423 0.0663,-0.10804 0,-0.13906 0.0619,-1.16267 0.10478,-1.73348 0.32628,-4.34011 1.07775,-6.61059 2.50718,-7.57516 0.32462,-0.21906 0.85469,-0.45134 1.27021,-0.55664 0.48698,-0.1234 1.10204,-0.13652 1.59225,-0.034 0.65269,0.13655 1.32529,0.45117 2.02474,0.94709 0.45984,0.32603 0.92826,0.72233 1.67909,1.42057 0.27799,0.25852 0.59582,0.5519 0.70629,0.65197 0.7857,0.71169 1.27662,1.00208 1.69352,1.00176 0.14048,-2.1e-4 0.26411,-0.0224 0.31816,-0.0573 0.0134,-0.009 0.0536,-0.18389 0.0894,-0.38942 0.40629,-2.33306 0.91631,-4.12022 1.54819,-5.42506 0.36936,-0.76272 0.70148,-1.26316 1.12419,-1.69391 0.15825,-0.16128 0.19522,-0.18775 0.34024,-0.24367 0.46703,-0.18011 0.79337,-0.23821 1.33989,-0.23855 0.44186,-2.8e-4 0.68331,0.0265 1.12175,0.12459 1.21528,0.27178 2.72413,0.99842 4.53895,2.1859 0.24045,0.15734 0.5253,0.31843 0.84132,0.47582 l 0.47778,0.23795 0.87208,-0.34221 c 0.47965,-0.18822 0.87836,-0.3549 0.88604,-0.37041 0.008,-0.0155 0.0382,-0.18243 0.0678,-0.37095 0.12858,-0.81782 0.41967,-1.84279 0.79046,-2.78339 0.93675,-2.37629 2.2203,-4.05716 3.54799,-4.64625 0.80048,-0.35517 1.69025,-0.37732 2.60189,-0.0648 1.1231,0.38505 2.42503,1.3553 3.88227,2.89324 0.45521,0.48041 0.74278,0.80145 0.73547,0.82105 -0.003,0.009 -0.0649,0.0686 -0.1367,0.13249 -0.0718,0.0639 -0.12337,0.1162 -0.11452,0.1162 0.0145,0 0.62442,-0.17871 1.02413,-0.30006 l 0.1558,-0.0473 -0.0893,-0.0247 c -0.0687,-0.019 -0.0869,-0.0329 -0.0789,-0.06 0.006,-0.0194 0.0627,-0.23158 0.12659,-0.47151 1.1598,-4.3552 2.36367,-6.41654 4.08195,-6.98937 0.34154,-0.11385 0.63784,-0.15286 1.05956,-0.13948 0.41741,0.0132 0.66002,0.0588 1.06982,0.20083 1.3953,0.48365 3.06907,1.87137 5.23046,4.33656 0.21546,0.24574 0.34649,0.37911 0.37247,0.37911 0.0362,0 0.96451,-0.15042 1.10096,-0.17839 0.0417,-0.009 0.074,-0.0425 0.12338,-0.12952 0.0368,-0.0649 0.19658,-0.33576 0.35506,-0.60198 2.42155,-4.06793 4.2262,-5.74172 6.11253,-5.66931 0.62196,0.0239 1.14193,0.19909 1.70958,0.57608 1.07606,0.71464 2.09452,2.06711 3.30188,4.38471 l 0.22283,0.42775 0.93508,0.0141 c 0.51429,0.008 0.98213,0.0196 1.03965,0.0264 l 0.10457,0.0123 0.24857,-0.3598 c 0.81632,-1.18161 1.66565,-2.11551 2.42976,-2.67168 0.49824,-0.36265 1.05322,-0.61878 1.59954,-0.7382 0.17853,-0.039 0.27197,-0.0454 0.66474,-0.0454 0.39453,0 0.48588,0.006 0.66816,0.046 0.64687,0.14105 1.21957,0.42833 1.84003,0.923 0.27841,0.22196 0.90386,0.84845 1.18792,1.18991 0.62782,0.75466 1.33697,1.79389 1.99517,2.92384 0.11147,0.19137 0.2148,0.34795 0.2296,0.34795 0.10591,0 1.83296,0.55101 2.60653,0.8316 1.96226,0.71176 3.84843,1.58555 5.49991,2.5479 0.18577,0.10825 0.34561,0.19373 0.35519,0.18996 0.01,-0.004 0.17001,-0.18447 0.35649,-0.40155 2.63675,-3.06943 5.68586,-5.6798 8.99441,-7.70022 2.35761,-1.43971 4.91271,-2.61548 7.44361,-3.42529 4.11389,-1.31633 8.29583,-1.80211 12.40521,-1.44103 4.22243,0.37102 8.22175,1.64679 11.71807,3.73804 4.75915,2.84657 8.40626,7.10734 10.60608,12.39062 0.64009,1.53731 1.19589,3.28647 1.56383,4.92164 0.15148,0.67309 0.6755,1.81476 1.27294,2.77318 1.16644,1.8713 2.98129,3.83076 5.34456,5.77041 4.51373,3.70464 11.09577,7.48964 19.86959,11.42601 1.8591,0.83409 4.46152,1.94991 6.55395,2.81008 0.63877,0.26259 2.45199,1.01134 2.83459,1.17051 l 0.24832,0.10331 0.32294,-0.16153 c 1.69102,-0.84582 3.47869,-1.30988 5.60973,-1.45623 0.45202,-0.031 1.67947,-0.0314 2.15003,-7e-4 1.63761,0.10698 3.12504,0.36833 4.75706,0.83581 2.69367,0.7716 5.45449,2.10166 7.84649,3.78014 1.2777,0.89657 2.27955,1.73014 3.36792,2.80223 0.93718,0.92317 1.59954,1.67581 2.32176,2.63823 2.02364,2.69673 3.23287,5.62228 3.53753,8.55854 0.10645,1.02593 0.0956,2.21818 -0.0306,3.35487 -0.47286,4.25929 -2.49029,7.9689 -5.7632,10.59726 -0.65466,0.52574 -1.5208,1.10459 -2.3266,1.55485 -0.33276,0.18595 -1.11662,0.57718 -1.45412,0.72577 -1.72541,0.75961 -3.681,1.30445 -5.68148,1.58287 -0.22279,0.031 -0.40744,0.058 -0.41035,0.0599 -0.003,0.002 0.0225,0.11017 0.0565,0.24056 0.14944,0.57342 0.20672,0.97364 0.22267,1.55618 0.0222,0.81052 -0.0898,1.57813 -0.33863,2.32194 -0.89702,2.68109 -3.29648,4.88696 -6.87429,6.31967 -3.14183,1.25812 -7.05922,1.86165 -11.45569,1.76489 -5.16929,-0.11377 -10.39344,-0.58407 -15.5903,-1.40353 -2.10368,-0.33172 -3.57368,-0.59482 -7.82112,-1.39983 -5.84224,-1.10727 -8.51526,-1.46823 -12.16272,-1.6424 -0.75037,-0.0358 -2.76072,-0.0478 -3.61454,-0.0215 -1.23325,0.0379 -1.86569,0.0753 -3.55222,0.20992 -4.59031,0.36636 -7.65369,0.49789 -11.60185,0.49817 -2.69364,2e-4 -4.7234,-0.0607 -6.94864,-0.20831 -10.9366,-0.72563 -19.60563,-3.18795 -25.81073,-7.33116 -0.23422,-0.15639 -0.49366,-0.33278 -0.57654,-0.39199 -0.0829,-0.0592 -0.15991,-0.10764 -0.17119,-0.10764 -0.0113,0 -0.15381,0.0714 -0.31672,0.15867 -0.43954,0.23546 -1.6671,0.84284 -2.1678,1.07259 -6.99802,3.21118 -15.3653,5.00665 -25.96452,5.5715 -1.96809,0.10489 -4.47245,0.17601 -6.24235,0.17728 l -0.92441,6.7e-4 -0.45956,0.36827 c -3.52884,2.82789 -7.59605,5.35613 -12.03957,7.48397 -0.33303,0.15947 -0.61632,0.28995 -0.62953,0.28995 -0.0423,0 -0.22707,-0.85645 -0.31137,-1.44374 -0.13421,-0.93485 -0.12386,-1.93282 0.0311,-3.00042 0.0223,-0.15352 0.0378,-0.28185 0.0345,-0.28518 -0.003,-0.003 -0.18309,0.0738 -0.39946,0.17147 -2.61156,1.17847 -3.76851,1.58004 -5.34783,1.8562 -0.18851,0.033 -0.34548,0.0572 -0.34881,0.0539 -0.009,-0.009 0.17063,-1.75761 0.25678,-2.50401 0.0875,-0.75771 0.19651,-1.5625 0.288,-2.12554 0.0577,-0.35516 0.0624,-0.41038 0.0342,-0.40174 -0.018,0.006 -0.16832,0.0657 -0.33398,0.13373 -0.96455,0.39614 -1.93845,0.61903 -3.11599,0.71311 -0.35042,0.028 -1.75282,0.0302 -2.1708,0.003 l -0.24928,-0.016 -0.0156,-0.44662 c -0.009,-0.24564 -0.0179,-0.82289 -0.0208,-1.28278 l -0.005,-0.83615 -0.0623,-0.0102 c -0.0343,-0.006 -0.77277,-0.0714 -1.64109,-0.14612 -0.86832,-0.0748 -2.57432,-0.22468 -3.79111,-0.33316 -1.21679,-0.10848 -2.94149,-0.2621 -3.83266,-0.34138 -10.28076,-0.91455 -15.16631,-1.24379 -20.98096,-1.41391 -0.95733,-0.028 -5.00752,-0.0502 -5.57761,-0.0305 l -0.44662,0.0154 -0.0862,0.11727 c -0.43798,0.59562 -1.538451,1.93212 -2.311571,2.80736 -1.71227,1.93843 -4.11324,4.35101 -6.07168,6.10104 -5.88383,5.2577 -12.33054,9.05952 -19.94829,11.76412 -0.94314,0.33485 -2.14347,0.72534 -3.4217,1.11315 -0.025,0.008 -0.0387,-0.003 -0.0459,-0.0371 z m 6.63033,-5.49198 c 1.79663,-0.78739 3.26656,-1.43634 3.26652,-1.44213 0,-0.006 -0.0678,-0.0379 -0.1506,-0.0715 -0.30019,-0.12157 -1.13289,-0.49707 -1.59428,-0.71893 -4.50971,-2.1685 -8.12471,-5.07222 -10.7186,-8.60961 -0.3448,-0.47022 -0.87295,-1.26165 -1.154,-1.72928 -0.12529,-0.20846 -0.23289,-0.37906 -0.2391,-0.37911 -0.0155,-2.1e-4 -3.18058,7.4798 -3.17305,7.49883 0.003,0.008 1.24932,-0.32773 2.76888,-0.74695 1.51956,-0.41923 2.76484,-0.76104 2.76729,-0.75958 0.002,0.001 -0.0834,1.27805 -0.19077,2.83687 -0.10736,1.55882 -0.19346,2.83597 -0.19131,2.83812 0.002,0.002 1.37141,-0.46596 3.04282,-1.04023 2.94243,-1.01097 3.03858,-1.04242 3.02821,-0.99028 -0.006,0.0296 -0.17485,1.08211 -0.37546,2.33889 -0.2006,1.25678 -0.37043,2.31679 -0.37739,2.35558 -0.007,0.0389 -0.004,0.0661 0.006,0.0607 0.0102,-0.005 1.48842,-0.65403 3.28504,-1.44141 z m 5.9745,-2.95189 c 3.52993,-2.11325 6.94347,-4.71085 10.1083,-7.69211 0.21273,-0.20038 0.47522,-0.44379 0.58332,-0.54091 1.69931,-1.52662 3.40184,-3.25131 4.79073,-4.85306 3.14412,-3.62601 5.548401,-7.42445 7.703551,-12.17059 0.88057,-1.93923 1.74826,-4.08118 2.94949,-7.28102 0.19087,-0.50842 0.35435,-0.93756 0.36329,-0.95364 0.0176,-0.0316 0.0165,-0.005 -0.0316,0.78746 -0.27327,4.4989 -1.26339,8.61282 -2.96602,12.32371 -0.0406,0.0885 -0.0692,0.16099 -0.0636,0.16099 0.006,0 0.47484,-0.1268 1.04267,-0.28178 3.70325,-1.01075 7.54536,-2.12691 12.12532,-3.5225 2.58206,-0.7868 4.32934,-1.33033 13.03519,-4.05487 5.65806,-1.77071 9.32973,-2.88877 13.11068,-3.99233 l 0.26245,-0.0766 0.0668,-0.16925 c 0.45834,-1.16198 1.02508,-2.80379 1.39217,-4.03307 1.20078,-4.02109 1.74852,-7.9344 1.64321,-11.7399 -0.0283,-1.02458 -0.088,-2.07466 -0.15844,-2.79097 l -0.0112,-0.11426 0.0949,0.22851 c 0.34637,0.83357 0.84395,2.26061 1.10097,3.15753 0.67511,2.35589 0.97351,4.5785 0.90292,6.72533 -0.11317,3.44183 -1.01807,6.74202 -3.27035,11.92706 -0.39228,0.90307 -0.76634,1.73954 -1.63119,3.64766 -0.68706,1.51586 -1.22311,2.71198 -1.51257,3.37508 l -0.0632,0.14484 0.0755,0.10444 c 1.3729,1.89845 3.02898,3.55385 4.96393,4.9619 2.3955,1.74318 5.22446,3.11486 8.39757,4.07173 0.99071,0.29876 1.89509,0.52692 3.13392,0.79065 l 0.13218,0.0281 0.49102,-0.4098 c 2.99688,-2.50121 5.94217,-5.5326 8.37452,-8.61935 0.16563,-0.21018 0.39288,-0.4953 0.505,-0.63358 1.04835,-1.29296 1.65327,-2.06837 2.26239,-2.90002 3.22278,-4.40022 5.52427,-8.91869 7.16853,-14.07386 0.83852,-2.62899 1.50604,-5.27146 2.45764,-9.72892 0.11512,-0.53925 0.18896,-0.84453 0.19847,-0.82054 0.0268,0.0676 0.1339,1.39323 0.18435,2.28171 0.0364,0.64019 0.0491,2.52064 0.0218,3.21985 -0.0471,1.20651 -0.13575,2.24815 -0.28374,3.33411 -0.0507,0.37185 -0.16452,1.10843 -0.1848,1.19569 l -0.01,0.0428 1.94689,-0.001 c 1.75333,-9.8e-4 2.92436,0.0201 3.50682,0.0632 l 0.16812,0.0124 0.013,-0.96294 c 0.007,-0.52962 0.0273,-1.23404 0.0449,-1.56537 0.27521,-5.20168 1.04363,-9.79511 2.2553,-13.48183 0.11794,-0.35883 0.12503,-0.39277 0.17571,-0.84131 0.86063,-7.61696 2.78576,-14.34804 5.78382,-20.22274 1.04005,-2.03799 2.25716,-4.05288 3.45449,-5.71883 0.10098,-0.14051 0.17876,-0.26332 0.17283,-0.27291 -0.006,-0.01 -0.14408,-0.0921 -0.30701,-0.1833 -2.24127,-1.25484 -4.67985,-2.24683 -7.31036,-2.97379 l -0.44346,-0.12255 -0.17495,0.0922 c -0.13308,0.0701 -0.17902,0.0858 -0.19201,0.0656 -0.009,-0.0146 -0.0475,-0.0852 -0.0847,-0.15674 -0.0791,-0.15207 -0.012,-0.12525 -0.71162,-0.28486 -1.97443,-0.45048 -4.13622,-0.77891 -6.14888,-0.93417 -0.2285,-0.0176 -0.44935,-0.0357 -0.49077,-0.0402 -0.0728,-0.008 -0.0776,-0.004 -0.14382,0.11361 l -0.0685,0.12179 -0.0639,-0.038 c -0.0351,-0.0209 -0.14337,-0.0849 -0.24049,-0.14225 l -0.17657,-0.10425 -0.51933,-0.0234 c -1.64304,-0.0741 -4.05029,-0.0813 -4.21489,-0.0125 -0.0595,0.0249 -0.0725,0.0251 -0.0817,10e-4 -0.008,-0.0218 -0.0511,-0.0265 -0.18378,-0.0203 -0.0951,0.004 -0.42059,0.0177 -0.72336,0.0294 -2.03954,0.079 -4.48139,0.30545 -6.84478,0.63465 -7.04743,0.98162 -14.87115,3.01888 -23.2764,6.06104 -10.01283,3.624 -20.91691,8.6996 -31.92844,14.86195 -3.82479,2.14045 -7.19171,4.13427 -11.14484,6.59971 -2.03893,1.27163 -3.560581,2.1847 -5.390651,3.23472 -7.58134,4.34985 -16.6619,8.79457 -26.9948,13.21335 -12.05681,5.15599 -25.68329,10.2113 -39.47952,14.64657 -5.9116,1.90049 -11.8774,3.69106 -17.24177,5.17494 -0.51985,0.1438 -0.96326,0.26892 -0.98535,0.27805 -0.0414,0.0171 0.3677,0.19768 1.70202,0.7514 11.20094,4.64813 21.09936,7.15055 31.01443,7.84077 0.25135,0.0175 0.52712,0.0367 0.61281,0.0427 0.52401,0.0367 1.9152,0.10216 2.9498,0.13883 0.97264,0.0345 4.73204,0.0344 5.78534,-2.1e-4 2.72996,-0.0895 5.16498,-0.22972 7.97631,-0.45927 0.64393,-0.0526 0.72971,-0.0637 0.75506,-0.098 0.0157,-0.0213 0.18754,-0.29112 0.3818,-0.5996 0.863,-1.3704 1.72219,-2.68932 2.43585,-3.73918 0.9705,-1.42771 1.94717,-2.98721 2.75805,-4.40393 3.38348,-5.91135 5.10223,-11.2173 5.54136,-17.10675 0.0234,-0.31419 0.0495,-0.65525 0.0578,-0.7579 l 0.0152,-0.18665 0.12021,0.52453 c 0.3829,1.67069 0.60709,3.12375 0.72505,4.69931 0.0369,0.49217 0.0369,2.44287 2.1e-4,2.90825 -0.0917,1.15871 -0.23276,2.09489 -0.47274,3.13676 -0.5792,2.51453 -1.70202,5.1302 -3.56687,8.30929 -0.85203,1.45247 -1.53448,2.53983 -3.5463,5.65031 -1.3177,2.0373 -1.9115,2.97288 -1.9115,3.01169 0,0.0358 0.24308,0.49592 0.5043,0.95461 2.57726,4.52558 6.91292,8.17502 12.59321,10.60004 0.51214,0.21863 1.79155,0.72696 1.91853,0.76225 0.004,0.001 0.11157,-0.0603 0.2389,-0.13654 z m -47.91707,-20.09587 c -1.2842,-0.092 -2.46383,-0.50759 -3.26114,-1.14888 -0.75155,-0.60447 -1.14005,-1.43686 -1.05607,-2.26269 0.0279,-0.27414 0.10064,-0.55379 0.21019,-0.8079 0.42932,-0.99581 1.45516,-1.89346 2.8173,-2.46526 0.25526,-0.10716 0.73379,-0.27655 0.85792,-0.3037 0.0662,-0.0145 0.0618,-0.008 -0.0727,0.10401 -1.90369,1.5875 -1.82431,3.69991 0.18407,4.89836 1.17993,0.70409 2.85589,0.97538 4.5648,0.73892 0.29878,-0.0413 0.92841,-0.16767 1.03202,-0.20707 0.10395,-0.0395 0.0675,-0.004 -0.1438,0.14041 -1.3991,0.95578 -3.3084,1.44451 -5.13258,1.3138 z m 15.53461,-5.35869 c -1.2387,-0.13638 -2.24647,-0.61055 -2.77434,-1.30537 -0.12289,-0.16175 -0.29388,-0.50078 -0.34191,-0.67793 -0.0471,-0.17358 -0.0641,-0.60125 -0.0313,-0.78498 0.12974,-0.72594 0.68004,-1.43541 1.52674,-1.96836 0.41068,-0.25849 0.97973,-0.50868 1.48216,-0.65164 0.4078,-0.11603 0.39218,-0.12433 0.17924,0.0952 -0.22243,0.22937 -0.28401,0.30681 -0.43442,0.5464 -0.2162,0.34436 -0.32766,0.71285 -0.33004,1.09108 -0.002,0.24568 0.0218,0.39573 0.0953,0.61281 0.32362,0.95526 1.49233,1.67642 2.99652,1.84901 0.55354,0.0635 1.35978,0.0324 1.90992,-0.0738 0.11352,-0.0219 0.20971,-0.0365 0.21376,-0.0325 0.0148,0.0148 -0.20703,0.18573 -0.46373,0.35715 -0.67815,0.45287 -1.52469,0.76214 -2.47569,0.90443 -0.32157,0.0481 -1.25461,0.0712 -1.55228,0.0384 z m 11.86798,-1.84788 c -1.2629,-0.0997 -2.26264,-0.49679 -2.9258,-1.16219 -0.41948,-0.4209 -0.64871,-0.84536 -0.7616,-1.4103 -0.0549,-0.27447 -0.0494,-0.79512 0.0115,-1.10269 0.22781,-1.14982 1.03955,-2.32565 2.26407,-3.27958 0.72442,-0.56434 1.66491,-1.07887 2.5751,-1.4088 0.14196,-0.0515 0.26179,-0.0899 0.2663,-0.0854 0.005,0.005 -0.0503,0.0492 -0.1219,0.0994 -0.27521,0.19293 -0.66104,0.5166 -0.93774,0.78669 -0.8532,0.8328 -1.38955,1.72406 -1.59529,2.65091 -0.0389,0.1751 -0.0459,0.27095 -0.0464,0.63224 -5.6e-4,0.37922 0.005,0.44746 0.0484,0.6232 0.21641,0.87101 0.75866,1.51335 1.65351,1.9587 1.27586,0.63498 3.10243,0.70555 4.89856,0.18926 0.13516,-0.0388 0.25201,-0.0705 0.25966,-0.0703 0.0209,5.6e-4 -0.26788,0.18292 -0.52618,0.33224 -0.12568,0.0727 -0.39677,0.21328 -0.60243,0.31251 -0.9964,0.48076 -2.01516,0.77855 -3.08482,0.90172 -0.33994,0.0391 -1.07078,0.0563 -1.37495,0.0323 z m 53.505361,-12.00106 c -0.0571,-0.004 -0.24409,-0.026 -0.41547,-0.0492 -1.11943,-0.15135 -2.04613,-0.52651 -2.72589,-1.10355 -0.55287,-0.46932 -0.90548,-1.09091 -1.01679,-1.79239 -0.044,-0.27741 -0.0288,-0.77026 0.0328,-1.05867 0.13629,-0.63865 0.44808,-1.2711 0.93769,-1.90208 0.18236,-0.23502 0.66202,-0.73058 0.92336,-0.95398 0.81292,-0.69491 1.76071,-1.24093 2.87451,-1.65602 0.16425,-0.0612 0.30397,-0.1113 0.3105,-0.1113 0.007,0 -0.0297,0.0299 -0.0805,0.0665 -0.83055,0.59768 -1.40897,1.17415 -1.87178,1.86543 -0.18401,0.27487 -0.44434,0.79853 -0.53185,1.06982 -0.23172,0.71843 -0.24348,1.35727 -0.0364,1.97679 0.32674,0.97737 1.18581,1.73461 2.43418,2.14562 1.30191,0.42864 2.82004,0.4576 4.43163,0.0845 0.22562,-0.0522 0.67489,-0.17546 0.79977,-0.21937 0.0415,-0.0146 0.0415,-0.0146 0,0.0163 -0.0229,0.017 -0.17586,0.11163 -0.34002,0.21025 -1.29519,0.77807 -2.84232,1.27701 -4.35473,1.40436 -0.22798,0.0192 -1.12282,0.0237 -1.37103,0.007 z m -19.707331,-0.27596 c -1.13193,-0.0891 -2.02092,-0.44131 -2.61617,-1.0364 -0.34403,-0.34393 -0.54016,-0.67933 -0.65545,-1.12084 -0.0767,-0.29365 -0.0894,-0.73229 -0.0311,-1.07335 0.27171,-1.58991 1.79164,-3.18513 3.88999,-4.08267 0.27386,-0.11713 0.82845,-0.31856 0.84141,-0.3056 0.003,0.003 -0.0707,0.0629 -0.16423,0.13279 -1.43037,1.06948 -2.27838,2.55288 -2.15466,3.76911 0.065,0.63938 0.36211,1.21152 0.84219,1.62197 1.08398,0.92678 2.91445,1.17783 4.89047,0.67073 0.15334,-0.0394 0.28143,-0.0689 0.28464,-0.0657 0.0186,0.0186 -0.64675,0.40884 -0.99969,0.58638 -0.92651,0.46606 -1.88617,0.75844 -2.85689,0.87043 -0.34696,0.04 -0.97522,0.0564 -1.27052,0.0332 z m 38.694051,-2.50597 c -1.47022,-0.11719 -2.61067,-0.57993 -3.33417,-1.35286 -0.36645,-0.39148 -0.60205,-0.84241 -0.71954,-1.37721 -0.0595,-0.2708 -0.0541,-0.9278 0.01,-1.22478 0.35458,-1.64194 1.79573,-3.23148 3.87311,-4.2719 0.4216,-0.21115 1.28878,-0.56837 1.31533,-0.54182 0.004,0.004 -0.0748,0.0641 -0.17437,0.13437 -0.51313,0.36226 -1.21077,1.01329 -1.5601,1.45588 -0.50345,0.63786 -0.85912,1.34476 -0.99715,1.98184 -0.22135,1.02168 0.0363,1.96748 0.73289,2.69075 0.68622,0.71246 1.61358,1.11574 2.98325,1.29735 0.31577,0.0419 1.43578,0.0345 1.80727,-0.0118 0.65773,-0.0821 1.24038,-0.20677 1.85853,-0.39767 0.0568,-0.0175 0.0941,-0.023 0.0831,-0.0122 -0.0635,0.0622 -0.64342,0.39024 -1.0276,0.58133 -1.09537,0.54484 -2.16841,0.86491 -3.38604,1.01001 -0.26759,0.0319 -1.23081,0.0574 -1.46451,0.0387 z m -22.62707,-9.67813 c -0.66476,-0.0843 -1.25824,-0.29017 -1.72563,-0.59849 -1.74809,-1.15313 -1.74093,-3.57341 0.0174,-5.90262 0.33301,-0.44112 0.94766,-1.0847 1.40161,-1.46759 0.94224,-0.79473 2.08106,-1.44513 3.21908,-1.83848 0.16927,-0.0585 0.17134,-0.061 -0.12387,0.14907 -0.45697,0.32518 -0.8388,0.64877 -1.24755,1.05727 -1.13652,1.13582 -1.84942,2.39172 -2.07589,3.65707 -0.0472,0.26378 -0.0635,0.78333 -0.0328,1.04686 0.17705,1.51904 1.32514,2.52924 3.09654,2.7246 0.28343,0.0313 0.92214,0.0313 1.22562,2.1e-4 0.46692,-0.048 1.01009,-0.15264 1.41055,-0.2717 0.1093,-0.0325 0.20117,-0.0567 0.20415,-0.0537 0.0212,0.0212 -0.73424,0.45361 -1.12653,0.64477 -0.85929,0.41872 -1.72363,0.69001 -2.62781,0.82478 -0.3747,0.0558 -1.2728,0.0714 -1.61496,0.028 z m 57.65073,-4.72756 c -3.31599,-0.27707 -5.92118,-1.80725 -6.59273,-3.8723 -0.12901,-0.39671 -0.15881,-0.59968 -0.15706,-1.06982 0.001,-0.33696 0.009,-0.44162 0.048,-0.62234 0.13712,-0.64051 0.42217,-1.22344 0.86895,-1.77697 0.20748,-0.25706 0.65393,-0.69633 0.93044,-0.91549 0.66597,-0.52783 1.50595,-0.98725 2.40891,-1.31753 0.39125,-0.14311 0.39246,-0.14303 0.18765,0.0113 -1.04438,0.78718 -1.7222,1.74913 -1.93919,2.75205 -0.1276,0.58975 -0.087,1.23228 0.11467,1.81511 0.65544,1.89414 3.01258,3.37293 5.97917,3.75112 0.9566,0.12195 2.02328,0.12518 3.0225,0.009 0.57716,-0.067 1.30073,-0.21162 1.82344,-0.36441 0.1517,-0.0443 0.28245,-0.0806 0.29054,-0.0806 0.0484,0 -0.49797,0.33196 -0.85374,0.51869 -1.11988,0.58777 -2.41891,0.96183 -3.93999,1.13453 -0.35332,0.0401 -1.82035,0.0585 -2.19157,0.0275 z m -40.36741,-0.2178 c -1.45014,-0.17568 -2.49115,-0.92511 -2.87452,-2.06939 -0.42495,-1.26838 0.0147,-2.93401 1.17221,-4.44143 1.10731,-1.44199 2.76061,-2.63839 4.49615,-3.25359 0.13996,-0.0496 0.25447,-0.087 0.25447,-0.0831 0,0.004 -0.0537,0.0425 -0.11944,0.0859 -0.36704,0.24206 -0.90933,0.68844 -1.31125,1.07934 -1.12907,1.09813 -1.87951,2.36764 -2.13561,3.6128 -0.0512,0.249 -0.0562,0.31453 -0.0573,0.76064 -0.001,0.54276 0.0153,0.6648 0.14421,1.05238 0.52407,1.57544 2.26083,2.3621 4.51302,2.04417 0.39343,-0.0555 0.95195,-0.18051 1.26184,-0.28236 0.0618,-0.0203 -0.23503,0.16998 -0.51933,0.3329 -1.10377,0.63254 -2.32804,1.04318 -3.4666,1.16274 -0.36812,0.0387 -1.03461,0.0382 -1.35782,-9.7e-4 z m 18.68045,-0.71539 c -1.53073,-0.14536 -2.77171,-0.56312 -3.74325,-1.26013 -1.05256,-0.75514 -1.6093,-1.82353 -1.50276,-2.88383 0.0428,-0.42538 0.13893,-0.74648 0.34635,-1.15628 0.54823,-1.08311 1.71074,-2.03163 3.23489,-2.63941 0.22827,-0.091 0.68163,-0.24775 0.69063,-0.23875 0.003,0.003 -0.0884,0.0797 -0.20324,0.17021 -0.24647,0.19434 -0.62051,0.5618 -0.80628,0.79208 -1.39955,1.7349 -0.99998,3.73231 0.99664,4.98208 1.20285,0.75291 2.90467,1.14396 4.65669,1.07003 0.37961,-0.016 0.43542,-0.0204 0.81706,-0.0638 0.44223,-0.0503 1.13585,-0.18663 1.5528,-0.30524 0.0771,-0.0219 0.14022,-0.0376 0.14022,-0.0347 0,0.003 -0.0912,0.0656 -0.20254,0.13955 -1.13635,0.75395 -2.52394,1.22505 -4.14945,1.40878 -0.25931,0.0293 -1.57616,0.0433 -1.82776,0.0194 z m 12.24553,-11.90345 c -1.61487,-0.0677 -3.1019,-0.54058 -4.16141,-1.32329 -0.27067,-0.19995 -0.71217,-0.64509 -0.8914,-0.89875 -0.39233,-0.55523 -0.57526,-1.15698 -0.5494,-1.80727 0.0185,-0.46423 0.11388,-0.8226 0.33852,-1.27137 0.58994,-1.17858 1.92857,-2.21003 3.63177,-2.79837 0.16827,-0.0581 0.31031,-0.10568 0.31565,-0.10568 0.005,0 -0.0826,0.0735 -0.19539,0.16338 -0.87069,0.69365 -1.43394,1.53821 -1.60525,2.40698 -0.0566,0.28722 -0.0616,0.72003 -0.0115,1.00263 0.11681,0.65893 0.50513,1.33415 1.04985,1.8255 1.48264,1.33736 4.00445,1.91416 6.59529,1.50851 0.35741,-0.056 0.79743,-0.14976 1.07887,-0.22997 0.10129,-0.0289 0.18883,-0.0478 0.19453,-0.0421 0.006,0.006 -0.0819,0.0705 -0.19456,0.14411 -1.52471,0.99521 -3.55085,1.51146 -5.59556,1.42572 z m -18.3116,-0.19913 c -0.89651,-0.0916 -1.58797,-0.31564 -2.15947,-0.69971 -0.22022,-0.14799 -0.5285,-0.44709 -0.65471,-0.63522 -0.26195,-0.39044 -0.38295,-0.85381 -0.33427,-1.28002 0.0586,-0.51284 0.2723,-0.97835 0.66463,-1.44766 0.55402,-0.66272 1.40762,-1.20929 2.43189,-1.55714 0.13139,-0.0446 0.29234,-0.0951 0.35767,-0.11213 0.0653,-0.0171 0.13303,-0.0365 0.15046,-0.0432 0.0174,-0.007 -0.0928,0.11268 -0.245,0.26525 -0.47884,0.48009 -0.72655,0.87983 -0.86925,1.4027 -0.0661,0.24216 -0.0656,0.71612 0.001,0.96241 0.2314,0.85565 1.02534,1.50945 2.19425,1.80691 0.52096,0.13258 0.72713,0.1555 1.40219,0.15586 0.669,3.5e-4 1.03374,-0.0386 1.57192,-0.16799 0.0512,-0.0123 0.0455,-0.003 -0.0451,0.0691 -0.36215,0.29034 -1.06055,0.67211 -1.58315,0.86541 -0.45645,0.16883 -1.00467,0.3035 -1.53588,0.37728 -0.23501,0.0326 -1.14785,0.0584 -1.34721,0.0381 z m 38.22273,-2.07747 c -1.96777,-0.0929 -3.78633,-0.67957 -5.01768,-1.61858 -0.25659,-0.19568 -0.68006,-0.60082 -0.85672,-0.81965 -1.05065,-1.30142 -1.11481,-2.89669 -0.17477,-4.34544 0.33978,-0.52366 0.9023,-1.11234 1.47906,-1.54786 0.67668,-0.51096 1.52114,-0.96256 2.43664,-1.30309 0.1405,-0.0523 0.26554,-0.095 0.27788,-0.095 0.0123,0 -0.0712,0.0678 -0.18565,0.1506 -1.40111,1.01412 -2.2251,2.37652 -2.22727,3.6826 -0.003,1.68482 1.23007,3.16472 3.34538,4.01573 0.86586,0.34834 1.79151,0.5614 2.91736,0.67149 0.36127,0.0353 1.5961,0.0355 1.97346,2.9e-4 0.90275,-0.0842 1.7765,-0.2481 2.51216,-0.47109 0.1319,-0.04 0.24677,-0.0727 0.25527,-0.0727 0.0544,0 -0.54917,0.35704 -0.929,0.54956 -1.26313,0.64023 -2.7278,1.03921 -4.31044,1.17418 -0.2708,0.0231 -1.22779,0.0416 -1.49568,0.029 z m -24.48124,63.41711 c 1.63953,-1.03272 2.9928,-1.88898 3.00728,-1.9028 0.0208,-0.0199 -0.005,-0.0331 -0.12464,-0.0634 -4.13195,-1.04705 -7.91605,-2.81334 -10.94265,-5.10766 -0.96806,-0.73384 -1.66726,-1.34575 -2.56614,-2.24576 -0.63422,-0.63501 -0.93953,-0.96749 -1.44704,-1.5758 -0.17158,-0.20566 -0.31254,-0.35767 -0.31783,-0.34276 -0.0302,0.0851 -2.02499,7.87622 -2.0183,7.88291 0.004,0.004 1.1886,-0.51584 2.63141,-1.15624 1.44281,-0.64039 2.62505,-1.1619 2.6272,-1.15889 0.002,0.003 0.1049,1.27679 0.22833,2.83063 0.12343,1.55383 0.22716,2.82848 0.23052,2.83254 0.003,0.004 0.75685,-0.38317 1.67443,-0.86051 0.91758,-0.47733 2.19557,-1.14216 2.83997,-1.47739 0.64441,-0.33523 1.17604,-0.60513 1.18139,-0.59977 0.005,0.005 -8.3e-4,0.97067 -0.0138,2.14514 -0.0299,2.71325 -0.0299,2.71326 0.003,2.69327 0.0143,-0.009 1.3674,-0.8608 3.00693,-1.89352 z m 133.09404,-0.0251 c 3.1921,-0.11959 5.83547,-0.60743 8.0704,-1.48941 2.94905,-1.16379 4.89334,-3.01837 5.23321,-4.99173 0.12346,-0.71667 0.005,-1.55193 -0.31511,-2.21655 l -0.0779,-0.16198 -0.71667,-0.0132 c -2.50652,-0.0462 -4.80622,-0.33846 -7.97501,-1.01362 -0.16461,-0.0351 -0.30647,-0.0638 -0.31521,-0.0638 -0.009,0 -0.17319,0.17059 -0.36545,0.37908 -2.50024,2.71157 -4.97421,5.09999 -6.79961,6.56452 -1.87865,1.50723 -3.36807,2.3282 -4.47715,2.4678 -0.30747,0.0387 -0.44899,0.0194 -0.81479,-0.11099 -0.35508,-0.1266 -0.42309,-0.16717 -0.63169,-0.37679 -0.73905,-0.74269 -1.08549,-2.32938 -1.01413,-4.64488 0.0571,-1.85261 0.33914,-4.32589 0.81861,-7.17835 0.04,-0.23786 0.0692,-0.43599 0.0649,-0.44029 -0.004,-0.004 -0.20261,0.14541 -0.44071,0.33269 -2.28865,1.80015 -4.43261,3.30816 -6.15591,4.32991 -1.60681,0.95269 -2.97353,1.52567 -4.0039,1.67861 -0.29456,0.0437 -0.77766,0.0409 -1.00245,-0.006 -0.15323,-0.0319 -0.21698,-0.0607 -0.48221,-0.21829 -0.23781,-0.14128 -0.33002,-0.20912 -0.41547,-0.30567 -0.69789,-0.78855 -0.85953,-2.33477 -0.48094,-4.60077 0.15001,-0.89776 0.38327,-1.96787 0.68604,-3.14715 0.0983,-0.38274 0.18284,-0.71494 0.18793,-0.73822 0.009,-0.0405 -0.0127,-0.0448 -0.49608,-0.10039 -0.72283,-0.0831 -1.91359,-0.23029 -2.53072,-0.3129 l -0.52972,-0.0709 -0.21812,0.14088 c -2.36175,1.52537 -4.00061,2.2732 -5.28678,2.41239 -0.27248,0.0295 -0.64736,0.0148 -0.8629,-0.0338 -0.1896,-0.0428 -0.68244,-0.31617 -0.83623,-0.4639 -0.21944,-0.21081 -0.45578,-0.63714 -0.57259,-1.03293 -0.16963,-0.57472 -0.22416,-1.36936 -0.15133,-2.20539 0.0142,-0.16244 0.0126,-0.17261 -0.0274,-0.18158 -0.0233,-0.005 -0.35084,-0.0754 -0.72787,-0.15591 -0.90478,-0.19323 -2.00042,-0.4415 -2.84531,-0.64476 -0.37668,-0.0906 -0.70062,-0.16477 -0.71984,-0.16477 -0.0192,0 -0.20179,0.10585 -0.4057,0.23521 -1.71412,1.08743 -3.08137,1.75225 -4.19303,2.03882 -0.43395,0.11186 -0.68228,0.14536 -1.08021,0.14573 -0.5029,4.6e-4 -0.5964,-0.0242 -1.00044,-0.26421 -0.34679,-0.20596 -0.43673,-0.29276 -0.63562,-0.61333 -0.41951,-0.6762 -0.55817,-1.85366 -0.39045,-3.3154 0.0212,-0.18442 0.0324,-0.34106 0.025,-0.3481 -0.007,-0.007 -0.19109,-0.0664 -0.40817,-0.13187 -1.74392,-0.52611 -2.97232,-1.05232 -4.47316,-1.91618 -0.29187,-0.16799 -0.34405,-0.1915 -0.3734,-0.16819 -0.0188,0.0149 -0.13252,0.11151 -0.25277,0.21469 -0.86186,0.73963 -1.67488,1.19662 -2.33007,1.30968 -0.17055,0.0294 -0.20237,0.0286 -0.52039,-0.0133 -0.3632,-0.0479 -0.45849,-0.0778 -0.68581,-0.2155 -0.7024,-0.42535 -1.22543,-1.31727 -1.58439,-2.70181 -0.19272,-0.74333 -0.34081,-1.63006 -0.47446,-2.84094 l -0.0453,-0.41047 -1.04911,-1.05404 c -0.57702,-0.57973 -1.14008,-1.15311 -1.25123,-1.2742 l -0.20211,-0.22015 0.0534,-0.15882 c 0.0638,-0.18979 0.0945,-0.13349 -0.30341,-0.55721 -1.3383,-1.42521 -2.67707,-2.95215 -5.81626,-6.63362 -3.03224,-3.55609 -4.45369,-5.16415 -6.09588,-6.89614 -0.5348,-0.56405 -2.02774,-2.05701 -2.53623,-2.53627 -2.04439,-1.92686 -3.83326,-3.37878 -5.62895,-4.56869 -4.14692,-2.74792 -7.68281,-3.58557 -10.47593,-2.48175 -0.93509,0.36954 -1.76704,0.93135 -2.58197,1.74359 -0.4035,0.40216 -0.5991,0.62273 -0.93894,1.05876 -0.23725,0.30442 -0.66647,0.93597 -0.89482,1.31665 -2.0981,3.49774 -3.45707,8.81083 -3.95937,15.47983 -0.20261,2.69011 -0.18968,4.80563 0.0422,6.9071 0.67086,6.07884 3.19327,11.06511 7.49938,14.82471 3.91047,3.41417 9.2784,5.86316 16.15726,7.37137 0.48329,0.10596 1.63414,0.3388 1.84775,0.37383 0.0599,0.01 0.0863,0.0235 0.0796,0.041 -0.007,0.0182 0.0294,0.0332 0.11801,0.0485 1.77811,0.3079 3.02336,0.49136 4.45933,0.65699 3.51893,0.4059 6.97407,0.59259 10.97865,0.59321 3.75701,5.9e-4 7.05324,-0.14263 11.46682,-0.4982 2.1971,-0.17701 3.34285,-0.22772 5.15176,-0.22803 2.66359,-4.6e-4 4.99577,0.16056 7.83151,0.54067 1.95546,0.26212 3.7413,0.56855 7.86266,1.34915 3.02325,0.57261 4.27767,0.799 5.93138,1.07043 4.18134,0.68632 8.04551,1.11673 12.11017,1.34891 0.29705,0.017 0.62891,0.0359 0.73745,0.0421 0.40967,0.0235 1.57328,0.072 2.2435,0.0936 0.38275,0.0123 0.77069,0.0249 0.86209,0.0279 0.46771,0.0153 1.8741,0.011 2.35776,-0.007 z m -6.90483,-4.09785 c 0.96199,-0.66913 2.71018,-2.14256 4.06929,-3.42974 0.79113,-0.74925 1.6296,-1.57793 2.32359,-2.29643 0.40364,-0.4179 0.7678,-0.79802 0.80922,-0.8447 l 0.0753,-0.0849 -0.82507,-0.20351 c -1.82247,-0.44953 -3.76556,-0.96262 -5.42526,-1.43259 -0.22219,-0.0629 -0.40584,-0.11235 -0.40813,-0.10985 -0.002,0.003 -0.0423,0.23825 -0.089,0.52388 -0.34467,2.11016 -0.57741,4.00637 -0.67823,5.52568 -0.0468,0.70557 -0.12736,2.52395 -0.1118,2.52395 0.007,0 0.12419,-0.0773 0.26004,-0.17182 z m -113.83434,-0.6003 c 0.37989,-0.0137 0.69071,-0.0329 0.69071,-0.0426 0,-0.01 -0.10579,-0.1973 -0.23508,-0.41682 -0.1293,-0.21951 -0.30369,-0.51859 -0.38754,-0.66462 -0.0838,-0.14603 -0.15903,-0.26288 -0.16707,-0.25967 -0.008,0.003 -0.34078,0.32714 -0.73941,0.71982 l -0.72479,0.71397 0.43624,-0.0125 c 0.23993,-0.007 0.74705,-0.0238 1.12694,-0.0375 z m 3.16273,-0.16364 c 4.23722,-0.26846 8.23221,-0.78161 11.87626,-1.52551 0.70187,-0.14327 1.00087,-0.20928 1.01585,-0.22426 0.006,-0.006 -0.0715,-0.12234 -0.1732,-0.25747 -1.62839,-2.16298 -3.5699,-5.68657 -5.00572,-9.0847 -0.35508,-0.84037 -0.8298,-2.05325 -1.1135,-2.84498 -0.0693,-0.19323 -0.0709,-0.19557 -0.10204,-0.14541 -0.0174,0.028 -0.1419,0.23794 -0.27664,0.46644 -1.02732,1.74231 -2.31379,3.65318 -3.83452,5.69567 -1.52909,2.05371 -2.94672,3.77709 -4.46901,5.43285 -0.1,0.10874 -0.18176,0.20729 -0.18176,0.219 0,0.0345 0.75571,1.37741 1.17492,2.08782 l 0.14418,0.24434 0.14541,-0.0112 c 0.08,-0.006 0.43987,-0.0298 0.79977,-0.0526 z m -32.505,-1.18311 c 0.46827,-2.44538 1.39761,-5.2192 2.93009,-8.74553 0.58622,-1.34893 1.48091,-3.32132 1.88927,-4.16503 0.17142,-0.35418 0.32498,-0.6751 0.34124,-0.71314 0.0271,-0.0634 0.0239,-0.0943 -0.0373,-0.36901 -0.0549,-0.24614 -0.0727,-0.29801 -0.0997,-0.28968 -0.018,0.006 -0.56566,0.16984 -1.2169,0.36502 -2.40361,0.72036 -4.02508,1.21867 -8.89094,2.73237 -0.61697,0.19193 -1.1254,0.35168 -1.12985,0.35499 -0.0147,0.011 0.0614,0.25921 0.29837,0.97311 0.49068,1.47801 1.12977,3.07898 1.78694,4.47641 0.43557,0.9262 1.18767,2.21666 2.11885,3.63554 0.46899,0.71461 1.26511,1.84653 1.32459,1.88329 0.0251,0.0155 0.53003,0.0669 0.60668,0.0617 0.0346,-0.002 0.0465,-0.0328 0.0786,-0.20008 z m -2.60175,-0.0294 c 0,-0.005 -0.0916,-0.14262 -0.20361,-0.30641 -0.94602,-1.38363 -1.90462,-2.97244 -2.44196,-4.04736 -0.7661,-1.53253 -1.76261,-4.05382 -2.26812,-5.7386 -0.0437,-0.14568 -0.0875,-0.26486 -0.0974,-0.26486 -0.01,0 -0.94062,0.28911 -2.06833,0.64247 -8.89692,2.7878 -13.49256,4.17528 -18.50278,5.58623 -1.97663,0.55665 -5.0703,1.39382 -6.08388,1.64635 l -0.18428,0.0459 -0.11317,0.17542 c -0.0622,0.0965 -0.11018,0.17792 -0.10654,0.18097 0.004,0.003 0.86196,0.0164 1.90738,0.0297 2.20714,0.028 3.23457,0.0554 5.18292,0.13792 4.524,0.19172 9.8841,0.57977 17.78188,1.28735 0.57126,0.0512 2.14172,0.19114 3.4899,0.31102 1.34818,0.11987 2.69428,0.24035 2.99134,0.26771 0.55147,0.0508 0.71668,0.0615 0.71668,0.0462 z m 50.09463,-1.02836 c 2.74933,-0.70263 5.44722,-1.61888 7.82112,-2.65619 0.82522,-0.36059 2.12562,-0.97578 2.11423,-1.00019 -0.003,-0.007 -0.13662,-0.13511 -0.29658,-0.28519 -0.3649,-0.34236 -1.15868,-1.1455 -1.44499,-1.46203 -3.1677,-3.50203 -5.17562,-7.65947 -6.07448,-12.57732 -0.10943,-0.59873 -0.25814,-1.62065 -0.32345,-2.22274 -0.0248,-0.2285 -0.0464,-0.41683 -0.048,-0.41851 -0.009,-0.009 -1.09736,-0.0513 -1.86211,-0.072 -0.86532,-0.0234 -3.50697,-0.0137 -4.2527,0.0157 l -0.33694,0.0133 -0.0328,0.11652 c -0.60219,2.13586 -1.4004,4.17807 -2.46175,6.29837 -0.17107,0.34175 -0.31103,0.63038 -0.31103,0.64141 0,0.0442 0.47635,1.40394 0.72073,2.05729 0.71497,1.91148 1.48624,3.68227 2.44744,5.61916 0.92982,1.87367 1.72811,3.28889 2.58374,4.5805 0.46447,0.70114 1.08276,1.49594 1.16337,1.49548 0.0183,-2.1e-4 0.28576,-0.0647 0.59424,-0.14353 z m 83.84873,-3.47583 c 1.40971,-0.78011 2.9086,-1.74237 4.46863,-2.86877 0.55446,-0.40035 1.36482,-1.00474 1.37994,-1.02921 0.006,-0.009 -0.15542,-0.0695 -0.35775,-0.13453 -0.20231,-0.065 -1.37274,-0.45081 -2.60096,-0.85732 -1.22821,-0.40651 -2.24124,-0.74046 -2.25117,-0.7421 -0.0209,-0.003 -0.0435,0.0708 -0.25121,0.82794 -0.43086,1.57027 -0.70359,2.7753 -0.92387,4.08193 -0.0568,0.33705 -0.12241,0.70498 -0.14578,0.81764 -0.0648,0.3125 -0.0761,0.30058 0.16803,0.17807 0.11579,-0.0581 0.34714,-0.18125 0.51414,-0.27365 z m 32.81369,-1.42961 c 3.50451,-0.18261 6.4922,-1.05489 8.91172,-2.60185 0.4895,-0.31297 1.04466,-0.72868 1.52683,-1.1433 0.29855,-0.25672 1.00634,-0.96721 1.26548,-1.27032 1.56853,-1.83461 2.54601,-4.01733 2.89785,-6.47086 0.10449,-0.7286 0.1247,-1.03486 0.12555,-1.90075 8.3e-4,-0.80285 -0.0107,-1.01575 -0.0849,-1.56838 -0.36222,-2.69829 -1.69011,-5.38593 -3.90659,-7.90696 -0.38452,-0.43734 -1.2829,-1.34114 -1.70993,-1.72023 -1.655,-1.4692 -3.37644,-2.63531 -5.33872,-3.61649 -4.84612,-2.42316 -9.83776,-2.93723 -13.49597,-1.3899 -0.55018,0.23271 -0.98361,0.46517 -1.66383,0.89232 l -0.40605,0.25499 -0.16804,-0.0724 c -0.40348,-0.1739 -1.42217,-0.5969 -3.23206,-1.34205 -6.19412,-2.5502 -10.01847,-4.26602 -14.01154,-6.28634 -11.85129,-5.99625 -19.04138,-11.89589 -21.49609,-17.63807 -0.2905,-0.67955 -0.37423,-0.93931 -0.55573,-1.72418 -0.77488,-3.35081 -2.20636,-6.52089 -4.12978,-9.14561 -1.21467,-1.65754 -2.67781,-3.16673 -4.28821,-4.42315 -3.38992,-2.64481 -7.55367,-4.30288 -12.06337,-4.80383 -1.14797,-0.12752 -1.97615,-0.1655 -3.29255,-0.15101 -1.02826,0.0113 -1.27386,0.0227 -2.13965,0.099 -4.58446,0.40414 -9.16142,1.96298 -13.30525,4.53156 -3.65609,2.26625 -6.95082,5.323 -9.70171,9.00094 -3.5347,4.72589 -6.14348,10.41093 -7.75947,16.9094 -0.20465,0.82295 -0.19422,0.779 -0.18485,0.779 0.004,0 0.11299,-0.0993 0.24214,-0.22061 1.55432,-1.46019 3.36334,-2.36624 5.36581,-2.68747 1.09459,-0.17558 2.31861,-0.16116 3.53145,0.0416 3.4512,0.57702 7.23015,2.63801 11.4045,6.21984 1.13035,0.96991 2.14695,1.92323 3.43869,3.22468 2.2033,2.21985 3.81096,4.02697 7.85118,8.82528 1.24673,1.48066 1.79878,2.13283 2.39144,2.82516 l 0.53347,0.6232 0.24633,0.10053 c 0.13549,0.0553 2.00842,0.83729 4.16208,1.73778 10.04778,4.20117 13.85953,5.76874 19.14253,7.87231 9.78369,3.89565 17.9072,6.83243 25.21869,9.11698 4.63358,1.44779 8.89539,2.61901 12.90018,3.54514 l 0.47778,0.11049 0.0905,-0.10259 0.0904,-0.1026 0.15886,0.13966 c 0.0874,0.0768 0.17385,0.1521 0.19219,0.16731 0.0471,0.0391 1.96338,0.45173 3.15533,0.67946 2.66099,0.50841 5.29331,0.7132 7.61338,0.59231 z m 8.31237,-17.25456 -1.88179,-1.86286 -1.80272,-0.96311 c -2.50053,-1.33595 -2.63122,-1.40936 -3.31914,-1.86439 -0.69065,-0.45683 -1.18586,-0.85519 -1.63112,-1.31207 -0.5373,-0.55135 -0.82494,-1.01519 -0.92216,-1.48697 -0.15912,-0.77232 0.3374,-1.34838 1.29641,-1.50407 0.23079,-0.0375 0.76392,-0.0361 1.03632,0.003 0.96209,0.13675 1.94036,0.60199 2.83797,1.34966 1.5963,1.32964 3.25155,3.58739 4.93472,6.73087 0.31083,0.58051 0.90422,1.78455 1.15175,2.33699 0.0998,0.22279 0.18563,0.41209 0.19068,0.42066 0.005,0.009 0.005,0.0156 0,0.0156 -0.005,0 -0.85598,-0.83829 -1.89096,-1.86287 z m -73.70648,-22.1439 c -0.74195,-0.0445 -1.25179,-0.096 -1.81834,-0.18364 -3.64618,-0.56431 -7.04166,-2.3502 -9.59266,-5.04536 -2.55778,-2.70236 -4.15684,-6.22278 -4.52085,-9.9529 -0.11164,-1.1439 -0.096,-2.52781 0.0416,-3.67557 0.13956,-1.16433 0.41964,-2.36861 0.81203,-3.49119 1.03723,-2.96754 2.89832,-5.60009 5.34599,-7.56196 0.61759,-0.49501 1.32199,-0.97916 2.02539,-1.3921 0.5249,-0.30815 1.70263,-0.89635 1.75754,-0.87778 0.01,0.003 0.87592,1.41667 1.92445,3.1407 1.04853,1.72403 1.91546,3.13445 1.92653,3.13427 0.0111,-1.9e-4 0.38487,-0.64159 0.83066,-1.42535 0.62774,-1.10369 0.81601,-1.41931 0.83496,-1.3997 0.0135,0.0139 3.33936,4.9554 7.39086,10.98106 l 7.36639,10.95575 -0.056,0.0809 c -0.0309,0.0445 -0.17838,0.23384 -0.32789,0.42078 -2.45088,3.06469 -5.90198,5.16982 -9.77538,5.96285 -0.81769,0.16742 -1.63637,0.27197 -2.52124,0.32198 -0.33194,0.0188 -1.37519,0.0234 -1.64398,0.007 z m 0.94519,-2.41708 c 3.08711,-0.1693 5.87666,-1.28771 8.20542,-3.28976 0.32998,-0.2837 1.08241,-1.04353 1.38026,-1.39387 0.14551,-0.17116 0.37196,-0.45367 0.50321,-0.6278 l 0.23862,-0.31661 -0.90885,-1.35604 c -1.62596,-2.426 -4.89664,-7.29031 -5.14046,-7.64514 -0.0608,-0.0885 -0.12264,-0.16099 -0.13733,-0.16099 -0.0862,0 -0.59216,0.23819 -0.82754,0.38957 -0.60166,0.38695 -1.07375,0.92327 -1.38107,1.56898 -0.46304,0.97282 -0.48855,2.04909 -0.0729,3.07683 0.0642,0.15865 0.0861,0.23666 0.0731,0.26074 -0.058,0.10844 -1.02377,1.00213 -1.51701,1.40385 -0.6888,0.56099 -1.65147,1.20456 -2.4824,1.65956 -1.36916,0.74972 -2.88305,1.30203 -3.58633,1.3084 -0.26473,0.002 -0.28056,-0.007 -0.38426,-0.22969 -0.12603,-0.27061 -0.24176,-0.83511 -0.31237,-1.52364 -0.0297,-0.28989 -0.0373,-0.54871 -0.0375,-1.27756 -2.1e-4,-0.92577 0.0103,-1.13596 0.0943,-1.87783 0.32199,-2.8439 1.33767,-5.41336 2.92774,-7.40659 0.89713,-1.12462 2.07053,-2.2007 3.31867,-3.04344 0.13995,-0.0945 0.25447,-0.1787 0.25447,-0.18712 0,-0.0296 -1.88019,-2.81215 -1.89928,-2.81083 -0.0106,7.4e-4 -0.32019,0.53109 -0.68796,1.17856 -0.36777,0.64747 -0.67692,1.18526 -0.687,1.19508 -0.0104,0.0102 -0.45603,-0.70258 -1.03621,-1.65754 -1.711,-2.81626 -1.80097,-2.96354 -1.82739,-2.99174 -0.0311,-0.0332 -0.24714,0.0598 -0.86359,0.3718 -3.83779,1.94234 -6.53393,5.70772 -7.1533,9.99019 -0.0866,0.59894 -0.11907,1.0152 -0.1312,1.68263 -0.0164,0.90278 0.0383,1.66055 0.18106,2.50744 0.7292,4.32594 3.49384,8.00719 7.43423,9.89906 2.01002,0.96506 4.28124,1.42314 6.46291,1.3035 z m 21.01828,36.34114 c 0.54686,-0.28299 0.80523,-0.42431 1.22888,-0.67213 0.58462,-0.34196 1.67705,-1.03255 1.65999,-1.04936 -0.004,-0.004 -0.53104,-0.20382 -1.17086,-0.44384 -0.63982,-0.24002 -1.27494,-0.47898 -1.41139,-0.53101 -0.13646,-0.052 -0.25005,-0.0925 -0.25244,-0.09 -0.008,0.009 -0.17254,0.77525 -0.23561,1.09943 -0.0955,0.49112 -0.17994,1.0225 -0.22867,1.43955 -0.024,0.20566 -0.0468,0.39495 -0.0507,0.42066 -0.004,0.0257 0.003,0.0467 0.0143,0.0467 0.0117,0 0.21264,-0.099 0.44652,-0.22006 z m -12.29843,-2.34307 c 0.65552,-0.32869 1.8576,-1.02755 2.68668,-1.56195 0.79204,-0.51053 2.45988,-1.66689 2.4371,-1.68969 -0.005,-0.005 -0.98077,-0.39864 -2.16865,-0.87503 -1.77291,-0.71101 -2.16155,-0.86015 -2.16963,-0.83256 -0.005,0.0185 -0.0673,0.25329 -0.13742,0.52178 -0.39874,1.5259 -0.67964,2.86011 -0.81977,3.89348 -0.0185,0.13627 -0.0518,0.33594 -0.0739,0.44371 -0.0433,0.21021 -0.0461,0.23292 -0.0297,0.23292 0.006,0 0.12975,-0.0597 0.27525,-0.13266 z m -217.386891,-1.46986 c 1.47745,-0.46869 3.43132,-1.09858 3.46473,-1.11697 0.018,-0.01 -0.0639,-0.0968 -0.24928,-0.26451 -1.39705,-1.26417 -2.28456,-1.89887 -2.9035,-2.07641 -0.24581,-0.0705 -0.45391,-0.0644 -0.61316,0.0178 -0.42286,0.21853 -0.77624,0.96961 -1.13216,2.40636 -0.096,0.38758 -0.33235,1.50088 -0.33235,1.56559 0,0.0193 0.0954,-0.003 0.32718,-0.076 0.17994,-0.0568 0.82729,-0.26198 1.43854,-0.45589 z m 214.896551,-3.25322 c 0.0109,-0.0428 0.092,-0.34899 0.18004,-0.68032 0.0881,-0.33134 0.16949,-0.63782 0.18094,-0.68107 0.0115,-0.0433 0.0173,-0.0821 0.0129,-0.0863 -0.004,-0.004 -0.63817,-0.26733 -1.40851,-0.58473 l -1.40057,-0.57709 -0.0536,0.0704 c -0.15514,0.20399 -0.98341,1.23058 -1.18125,1.46408 l -0.22882,0.27005 0.14984,0.0762 c 0.0824,0.0419 0.26608,0.1252 0.40821,0.18511 l 0.25838,0.10893 1.49567,0.25402 c 0.82262,0.13971 1.51167,0.25506 1.53122,0.25632 0.0245,0.002 0.0417,-0.022 0.0555,-0.0756 z m -203.113921,-0.65161 c 1.54309,-0.5325 3.19581,-1.11332 3.2109,-1.12842 0.0153,-0.0153 0.0448,0.007 -0.37598,-0.28956 -1.07362,-0.75761 -1.83285,-1.11391 -2.37362,-1.11391 -0.31262,0 -0.51954,0.10055 -0.73556,0.35743 -0.32277,0.38381 -0.60645,1.06986 -0.86365,2.08864 -0.11839,0.46901 -0.1248,0.50373 -0.0929,0.50373 0.0109,0 0.56475,-0.18806 1.23081,-0.41791 z m 195.307221,-0.52034 c 0.54611,-0.5421 0.86234,-0.88348 1.40151,-1.51299 0.37342,-0.43596 0.97121,-1.1647 0.96157,-1.17218 -0.0327,-0.0254 -3.47229,-1.44553 -3.48068,-1.43713 -0.0255,0.0255 0.0982,1.66147 0.18118,2.39484 0.0578,0.5109 0.13563,1.04547 0.22026,1.5128 0.0393,0.21708 0.0768,0.46947 0.0832,0.56087 0.015,0.21333 0.0188,0.22501 0.0656,0.19999 0.0205,-0.011 0.27581,-0.25675 0.56738,-0.5462 z m -184.681671,-3.2896 c 1.54335,-0.57325 3.57912,-1.3459 3.57912,-1.35842 0,-0.007 -0.14255,-0.10247 -0.31679,-0.21281 -1.19646,-0.75776 -1.98191,-1.15202 -2.58426,-1.29718 -0.18709,-0.0451 -0.26028,-0.0527 -0.44284,-0.0461 -0.19538,0.007 -0.23073,0.0145 -0.33136,0.0696 -0.31931,0.1751 -0.53447,0.71873 -0.67806,1.71324 -0.0935,0.64779 -0.15836,1.45413 -0.11692,1.45413 0.0126,0 0.41359,-0.14512 0.89111,-0.32249 z m 11.40702,-4.42211 c 1.73377,-0.69906 4.28009,-1.74924 4.31051,-1.77779 0.0251,-0.0236 -0.68113,-0.42063 -1.29117,-0.72585 -1.29697,-0.6489 -2.16904,-0.88958 -2.74696,-0.75813 -0.35814,0.0814 -0.60134,0.37216 -0.78872,0.9428 -0.1667,0.50768 -0.27257,1.17741 -0.3416,2.16108 -0.0376,0.53512 -0.0369,0.49856 -0.009,0.49856 0.0123,0 0.40257,-0.1533 0.86728,-0.34067 z m 13.11151,-5.58589 c 1.34276,-0.60577 3.69287,-1.68552 3.71352,-1.70617 0.003,-0.003 -0.15092,-0.1023 -0.34257,-0.22015 -1.11975,-0.68858 -1.94091,-1.0972 -2.53387,-1.2609 -0.16769,-0.0463 -0.24735,-0.0563 -0.45277,-0.0569 -0.21913,-6.2e-4 -0.26254,0.005 -0.35895,0.0488 -0.45532,0.20576 -0.70617,1.10819 -0.81488,2.9314 -0.0284,0.47705 -0.0271,0.63036 0.005,0.61678 0.0143,-0.006 0.36716,-0.16479 0.78418,-0.35292 z m 11.66244,-5.5689 c 0.9385,-0.47557 1.93018,-0.98723 2.87691,-1.48434 l 0.34084,-0.17898 -0.39278,-0.19271 c -1.4063,-0.68997 -2.36767,-0.93251 -2.90275,-0.73231 -0.53528,0.20027 -0.82791,1.00726 -0.959,2.64458 -0.0356,0.44426 -0.0366,0.47096 -0.0175,0.47096 0.008,0 0.48202,-0.23724 1.05424,-0.5272 z m 11.43739,-6.27241 c 1.12734,-0.67392 4.009231,-2.45336 4.009231,-2.47553 0,-0.0131 -0.77541,-0.44135 -1.15359,-0.63712 -1.365941,-0.7071 -2.153231,-0.99625 -2.720611,-0.99923 -0.18904,-9.9e-4 -0.24918,0.007 -0.34819,0.0453 -0.28699,0.1115 -0.48009,0.43604 -0.59554,1.00091 -0.10094,0.49386 -0.11547,0.7311 -0.11559,1.88836 0,0.59983 0.008,1.22829 0.0176,1.39659 0.0176,0.30413 0.018,0.30585 0.0623,0.2824 0.0245,-0.013 0.4045,-0.23873 0.84437,-0.50168 z m 11.002601,-6.64751 c 0.83815,-0.48473 2.42743,-1.38746 3.26256,-1.85317 0.26518,-0.14787 0.4755,-0.27506 0.4674,-0.28263 -0.0591,-0.0552 -1.23034,-0.53393 -1.71814,-0.70223 -0.66425,-0.22919 -1.10433,-0.32108 -1.53721,-0.32101 -0.34976,0 -0.4895,0.0329 -0.6817,0.16021 -0.3798,0.25155 -0.59344,0.93446 -0.6576,2.10204 -0.0237,0.43115 -0.0283,1.34679 -0.007,1.36821 0.008,0.008 0.0258,0.0102 0.0395,0.005 0.0138,-0.005 0.38817,-0.21962 0.83201,-0.47631 z m 10.97596,-5.99763 c 0.531,-0.27477 1.833,-0.93298 2.89333,-1.46269 l 1.92786,-0.96312 -0.266,-0.2058 c -2.20989,-1.70975 -3.50211,-2.43686 -4.11283,-2.31421 -0.7319,0.14699 -1.134,1.59522 -1.3879,4.99876 -0.0343,0.4602 -0.0335,0.44663 -0.0256,0.44663 0.003,0 0.44014,-0.22481 0.97115,-0.49957 z m 11.51296,-5.55701 c 1.04781,-0.47075 2.18922,-0.97108 3.31344,-1.45241 0.60839,-0.26049 1.10595,-0.47934 1.10568,-0.48635 -0.002,-0.0408 -1.19823,-0.73743 -1.68214,-0.9793 -0.80115,-0.40045 -1.29434,-0.56145 -1.72455,-0.56298 -0.33422,-0.001 -0.49892,0.0658 -0.70692,0.28736 -0.31507,0.33565 -0.56007,1.03175 -0.73627,2.09184 -0.1071,0.64443 -0.19445,1.36269 -0.16571,1.36269 0.009,0 0.27714,-0.11738 0.59647,-0.26085 z m 13.60232,-5.50597 c 1.2155,-0.43477 2.0051,-0.70646 3.35393,-1.15404 0.73122,-0.24264 1.33373,-0.44431 1.33892,-0.44817 0.0149,-0.011 -0.83558,-0.85773 -1.09622,-1.0914 -0.81111,-0.72715 -1.4009,-1.05741 -1.83498,-1.02752 -0.71212,0.049 -1.43585,1.14791 -2.30861,3.50526 -0.16133,0.43577 -0.16808,0.45701 -0.14515,0.45701 0.01,0 0.32131,-0.10851 0.69211,-0.24114 z m 12.05287,-3.73888 c 1.24358,-0.32745 3.25463,-0.80164 4.82362,-1.13736 l 0.12382,-0.0265 -0.23758,-0.25841 c -0.36602,-0.3981 -1.06142,-1.09845 -1.35153,-1.36114 -0.96491,-0.87369 -1.61132,-1.19057 -2.03054,-0.9954 -0.49128,0.2287 -0.99669,1.24994 -1.57953,3.19159 -0.19226,0.64049 -0.21006,0.70342 -0.19895,0.70342 0.005,0 0.20799,-0.0523 0.45069,-0.1162 z m 30.06286,-2.361 c -0.3266,-0.45871 -0.80262,-0.98057 -1.09868,-1.20449 -0.63278,-0.47858 -1.09377,-0.41533 -1.77494,0.24352 -0.13005,0.12579 -0.30523,0.30964 -0.38928,0.40856 l -0.15282,0.17984 0.0985,0.0123 c 0.0541,0.007 0.38356,0.0455 0.73203,0.086 0.68572,0.0798 1.69586,0.22342 2.24351,0.31904 0.46319,0.0809 0.43394,0.0847 0.34172,-0.0448 z m -16.58638,-0.19183 c 1.1108,-0.13029 2.94562,-0.28325 4.25332,-0.35457 0.13996,-0.008 0.25447,-0.0194 0.25447,-0.0261 0,-0.0219 -0.30913,-0.58151 -0.48202,-0.87255 -0.57908,-0.97482 -1.05825,-1.52152 -1.45468,-1.6597 -0.0604,-0.0211 -0.13986,-0.0281 -0.24905,-0.022 -0.13212,0.007 -0.18699,0.0223 -0.3116,0.0846 -0.47432,0.23713 -1.05092,0.86845 -1.78711,1.95672 -0.19109,0.28247 -0.4897,0.74183 -0.58406,0.89845 -0.0206,0.0341 0.0348,0.0334 0.36073,-0.005 z"
         style="fill:#231f20;fill-opacity:1"
         inkscape:connector-curvature="0" />
    </g>
  </g>
</svg>
