<svg
   xmlns:dc="http://purl.org/dc/elements/1.1/"
   xmlns:cc="http://creativecommons.org/ns#"
   xmlns:rdf="http://www.w3.org/1999/02/22-rdf-syntax-ns#"
   xmlns:svg="http://www.w3.org/2000/svg"
   xmlns="http://www.w3.org/2000/svg"
   version="1.1"
   viewBox="-5 -5 125 85"
   height="27px"
   width="40px">
  <g
     transform="translate(0,-973.19447)"
     id="layer1">
    <path
       d="M 71.964844,978.48047 C 53.518999,980.0057 34.605705,984.00276 18.625,993.70508 9.8022639,998.92914 1.7000667,1010.208 6.8144531,1020.5938 c 6.7401439,11.6916 20.4729379,16.8552 32.6249459,21.0043 18.576151,5.2142 40.365977,9.7325 58.007867,-0.6684 13.724754,-8.3169 18.336044,-26.6771 12.884764,-41.28322 -4.97284,-16.20102 -23.018368,-21.96055 -38.367186,-21.16601 z"
       style="fill-opacity:1;fill-rule:nonzero;stroke:none"
       class="colored"  />
    <path
       d="m 40.76417,1039.9037 c -8.34534,-2.312 -30.46143,-10.9143 -33.12988,-22.9736 -0.0214,-0.098 -0.0623,-0.2417 -0.0915,-0.3381 -0.0671,-0.2149 -1.59058,-5.3455 2.45361,-11.8079 4.83583,-7.73069 18.0896,-18.0908 53.7677,-23.5449 0.0403,-0.006 0.0842,-0.0134 0.12325,-0.022 0.22949,-0.0427 23.08715,-4.16504 36.57959,7.20093 6.86157,5.78003 10.25269,14.78517 10.07751,26.76147 -0.004,0.105 -0.53711,14.2212 -12.43775,22.887 -12.07275,8.7927 -31.36596,9.4104 -57.34252,1.8371 0,0 0,0 0,0 z M 62.59888,974.10541 C 31.55702,978.86248 11.72913,988.00067 3.66821,1001.2722 0.72571,1006.1183 0,1010.5764 0,1013.7941 c 0,2.8333 0.55665,4.6863 0.66345,5.0183 4.45435,18.5474 36.74744,27.6636 38.12806,28.0445 28.26233,8.2409 49.70276,7.2278 63.67614,-3.0249 14.76136,-10.8289 15.2887,-27.8064 15.30396,-28.523 0.20874,-14.2908 -4.05701,-25.19773 -12.677,-32.44383 -16.01746,-13.46191 -41.0553,-9.02954 -42.49573,-8.75976 0,0 0,0 0,0 z"
       style="fill:#231f20;fill-opacity:1;fill-rule:nonzero;stroke:none"/>
    <path
       d="m 11.32569,1010.8889 c 0,0 6.31652,-16.84453 25.26672,-18.42412 0,0 -20.00243,8.94902 -17.37061,18.42412 0,0 -7.89611,0 -7.89611,0 0,0 0,0 0,0 z"
       style="fill:#231f20;fill-opacity:1;fill-rule:nonzero;stroke:none"/>
  </g>
</svg>
