<?xml version="1.0" encoding="UTF-8" standalone="no"?>
<svg
   xmlns:dc="http://purl.org/dc/elements/1.1/"
   xmlns:cc="http://creativecommons.org/ns#"
   xmlns:rdf="http://www.w3.org/1999/02/22-rdf-syntax-ns#"
   xmlns:svg="http://www.w3.org/2000/svg"
   xmlns="http://www.w3.org/2000/svg"
   xmlns:sodipodi="http://sodipodi.sourceforge.net/DTD/sodipodi-0.dtd"
   xmlns:inkscape="http://www.inkscape.org/namespaces/inkscape"
   version="1.1"
   viewBox="0 -50 320 120"
   id="svg2"
   inkscape:version="0.91 r13725"
   sodipodi:docname="old-gator.svg">
  <metadata
     id="metadata82">
    <rdf:RDF>
      <cc:Work
         rdf:about="">
        <dc:format>image/svg+xml</dc:format>
        <dc:type
           rdf:resource="http://purl.org/dc/dcmitype/StillImage" />
        <dc:title></dc:title>
      </cc:Work>
    </rdf:RDF>
  </metadata>
  <defs
     id="defs80" />
  <sodipodi:namedview
     pagecolor="#ffffff"
     bordercolor="#666666"
     borderopacity="1"
     objecttolerance="10"
     gridtolerance="10"
     guidetolerance="10"
     inkscape:pageopacity="0"
     inkscape:pageshadow="2"
     inkscape:window-width="1600"
     inkscape:window-height="837"
     id="namedview78"
     showgrid="false"
     inkscape:zoom="3.6203867"
     inkscape:cx="117.35326"
     inkscape:cy="37.166972"
     inkscape:window-x="-8"
     inkscape:window-y="-8"
     inkscape:window-maximized="1"
     inkscape:current-layer="svg2"
     showguides="true"
     inkscape:guide-bbox="true"
     fit-margin-top="5"
     fit-margin-left="5"
     fit-margin-right="5"
     fit-margin-bottom="0" />
  <g
     id="g6289"
     transform="matrix(0.75533232,0,0,0.75533232,-316.3819,-66.316622)"
     style="opacity:1"
     inkscape:transform-center-x="-155.64882"
     inkscape:transform-center-y="-22.057187">
    <path
       d="m 811.87201,137.07761 c -1.55567,-2.44447 -4.34401,-4.63403 -8.3628,-6.15895 0,0 -74.35986,-12.41566 -74.35986,-12.41566 -4.03857,-1.4436 -9.49658,-6.92466 -14.12402,-12.1245 -4.07594,15.47975 -12.66943,29.42248 -21.40137,42.2644 4.70655,0.96791 9.7295,1.58094 14.98534,1.88197 7.57618,0.43065 15.64675,0.2196 23.93262,-0.4856 10.25244,-0.87671 17.55175,0.51307 26.04859,2.12916 7.89477,1.50072 16.78931,3.18933 29.78612,3.53868 11.1731,0.29993 18.67896,-2.76306 22.32203,-6.85766 1.57324,-1.771 2.46973,-3.74085 2.67847,-5.75575 0.21082,-2.04673 -0.28785,-4.10667 -1.50512,-6.01609 z"
       style="fill:#231f20;fill-opacity:1;fill-rule:nonzero;stroke:none"
       id="path4790"
       inkscape:connector-curvature="0" />
    <path
       d="m 808.40033,139.29683 c -1.88087,-2.95092 -6.49951,-5.44482 -13.979,-6.21385 -6.17873,-0.63502 -11.60157,-1.0503 -16.65529,-1.43703 -15.40283,-1.17882 -27.36693,-2.09509 -46.84131,-8.13757 -6.31494,-1.95885 -11.8872,-6.7566 -17.25293,-12.5244 -3.96826,12.20361 -10.57543,23.43822 -17.54734,33.93677 4.02099,0.73606 8.27928,1.22058 12.72656,1.47546 7.39158,0.42187 15.26658,0.21645 23.34813,-0.47133 10.77539,-0.91955 18.34497,0.51966 27.16041,2.19508 7.67942,1.46117 16.33227,3.10473 29.12915,3.44862 9.83934,0.26586 16.21581,-2.17969 19.12938,-5.45911 0.97558,-1.09535 1.5271,-2.26978 1.64795,-3.43433 0.11857,-1.1316 -0.17145,-2.28956 -0.86571,-3.37831 z"
       style="fill:#ffffff;fill-opacity:1;fill-rule:nonzero;stroke:none"
       id="path4792"
       inkscape:connector-curvature="0" />
    <path
       d="m 664.82221,46.097625 c -2.58179,-4.514287 -4.79885,-6.87195 -7.24878,-7.165282 -2.48072,-0.29664 -4.65602,1.408455 -7.07301,5.031742 -0.91625,-0.03285 -1.8369,-0.05062 -2.76856,-0.05152 -2.37303,-4.720837 -4.45164,-7.133422 -7.04443,-7.148812 0,0 -0.009,0 -0.009,0 -2.729,-0.0135 -5.24707,2.77515 -8.52759,8.473747 -0.52076,0.08347 -1.04589,0.172575 -1.56886,0.263678 -4.0891,-4.747185 -6.99388,-6.93126 -9.59985,-6.49071 -2.88281,0.487777 -4.5659,3.816652 -6.1765,10.071157 0,0 0.25268,0.06593 0.25268,0.06593 -0.54932,0.158175 -1.09424,0.319702 -1.63917,0.484492 0,0 0.4043,-0.36144 0.4043,-0.36144 -3.59692,-4.053959 -6.37207,-5.813977 -9.06151,-5.017477 -3.52004,1.03932 -5.94142,7.241107 -6.33693,10.551285 -0.78221,0.301027 -1.56006,0.606442 -2.33349,0.914062 0,0 -1.27002,-0.627322 -1.27002,-0.627322 -4.49779,-3.010253 -7.61132,-4.069328 -9.97998,-2.961923 -1.81933,1.666643 -3.03442,5.254763 -3.84082,10.154677 -2.39942,1.128285 -6.20946,-7.835467 -12.01684,-4.647217 -2.48949,1.365593 -3.43434,5.36022 -3.77051,12.601305 0,0 0.0158,0.0011 0.0158,0.0011 -0.0659,0.0351 -0.1296,0.0702 -0.19552,0.103275 -5.52173,-2.824582 -9.0835,-3.660637 -11.43678,-2.136847 -2.26536,1.471072 -2.89379,4.724122 -2.55762,10.093139 -0.21532,0.12735 -0.42187,0.25488 -0.63281,0.380138 -5.44482,-3.234375 -8.96483,-4.491225 -11.37303,-3.101445 -2.41479,1.399657 -3.01025,5.013067 -2.55103,11.478509 -0.65479,0.366953 -1.31615,0.736088 -1.97972,1.101938 -4.77687,-2.731208 -8.00026,-3.620003 -10.3008,-2.399423 -2.34668,1.24695 -3.22998,4.294553 -3.2937,9.409792 -0.37573,0.182475 -0.75366,0.36585 -1.1316,0.548213 -4.80321,-3.236557 -8.04199,-4.602172 -10.437,-3.59361 -2.5005,1.05138 -3.44532,4.213237 -3.52002,9.975584 -0.76025,0.33068 -1.52491,0.66246 -2.28955,0.99207 -5.33936,-3.343147 -8.87695,-4.642837 -11.39063,-3.601334 -2.64771,1.098634 -3.64086,4.271494 -3.7617,9.818484 -0.31203,0.1242 -0.62404,0.245 -0.93605,0.36585 -4.72412,-3.30689 -7.94092,-4.79223 -10.35351,-3.98585 -2.58399,0.86573 -3.65406,3.82873 -3.87598,9.34058 -0.13624,0.0506 -0.27245,0.099 -0.40869,0.1494 -4.20118,-3.42774 -7.19604,-4.77466 -9.65698,-3.88697 -2.47633,0.89649 -3.83204,3.81225 -4.7439,8.89893 -0.3274,0.10755 -0.65038,0.21533 -0.97339,0.3252 -4.4143,-4.24843 -7.48168,-6.21167 -10.09643,-5.45583 -2.65869,0.77126 -4.08253,4.06825 -5.13063,10.31947 -7.25755,2.21594 -14.17455,4.1825 -20.52904,5.84802 0,0 -0.32081,3.61231 -0.32081,3.61231 36.11426,16.56189 56.6543,15.26769 82.62378,12.64196 5.43384,-0.26147 10.8479,-0.81079 16.24,-1.58971 8.31884,-0.71962 17.42432,-1.27553 27.78221,-1.26453 10.64356,0.009 22.71535,1.09094 35.23975,2.21155 47.79931,4.27806 102.0586,9.13622 114.81592,-41.30971 1.73583,-6.860944 1.90283,-13.742794 0.64818,-20.477404 -1.28538,-6.899422 -4.05835,-13.623052 -8.15184,-20.000609 -6.50171,-10.124999 -15.41601,-16.065314 -25.72778,-18.952514 0,0 0,0 0,0 z"
       style="fill:#231f20;fill-opacity:1;fill-rule:nonzero;stroke:none"
       id="path4794"
       inkscape:connector-curvature="0" />
    <path
       d="m 524.81684,93.239961 c 0.12308,-2.358765 0.4768,-3.707888 1.18213,-4.08033 0.75805,-0.402098 2.20824,0.0022 4.48022,1.16784 -1.8479,0.976702 -3.73754,1.948972 -5.66235,2.91249 0,0 0,0 0,0 z m -15.1062,7.142199 c 0.0988,-2.894897 0.42846,-4.420892 1.1184,-4.714225 0.77565,-0.32301 2.36426,0.37683 4.88014,1.97424 -1.97316,0.92394 -3.97705,1.836923 -5.99854,2.739985 0,0 0,0 0,0 z m -17.45289,7.38391 c 0.1341,-2.82786 0.52296,-4.38464 1.34473,-4.7263 0.94923,-0.39112 2.74439,0.26257 5.57226,1.89403 -2.28953,0.9591 -4.59668,1.90392 -6.91699,2.83227 0,0 0,0 0,0 z m -15.14135,5.83265 c 0.1626,-2.65869 0.51855,-4.03749 1.18872,-4.26051 0.8086,-0.27135 2.36866,0.44276 4.78124,2.01929 -1.99071,0.75917 -3.97923,1.50624 -5.96996,2.24122 0,0 0,0 0,0 z m -14.52393,5.17127 c 0.51637,-2.30823 1.09644,-3.59035 1.8567,-3.86719 0.78223,-0.28125 2.10498,0.32519 4.0891,1.79737 -1.98853,0.7042 -3.97264,1.39306 -5.9458,2.06982 0,0 0,0 0,0 z m -16.27513,5.33495 c 0.63281,-3.3739 1.26121,-5.11414 2.083,-5.35034 0.84594,-0.245 2.42139,0.83826 4.88671,3.12451 -2.34668,0.76356 -4.67138,1.50513 -6.96971,2.22583 0,0 0,0 0,0 z M 569.17962,68.147174 c 0.28125,-4.324207 0.74709,-6.637927 1.64356,-7.13232 0.82179,-0.449347 2.75098,0.700943 6.0293,3.259643 -2.63232,1.283197 -5.19433,2.580682 -7.67286,3.872677 0,0 0,0 0,0 z m -14.39647,7.940925 c -0.0747,-2.645505 0.17798,-4.178093 0.89647,-4.646115 0.78662,-0.50868 2.46535,-0.09562 5.22072,1.164555 -2.13575,1.187617 -4.1792,2.352172 -6.11719,3.48156 0,0 0,0 0,0 z m -14.58544,8.833004 c -0.20205,-3.630982 -0.005,-5.572259 0.76025,-6.017197 0.78662,-0.453735 2.64989,0.287843 5.73046,2.04345 -0.5691,0.352665 -1.125,0.70092 -1.66552,1.038195 -1.56006,0.98109 -3.17286,1.961077 -4.82519,2.935552 0,0 0,0 0,0 z M 654.96086,44.2695 c 0.86574,-1.079955 1.57107,-1.589715 2.16653,-1.518322 0.69212,0.08235 1.48972,0.798705 2.45653,2.157727 -1.51612,-0.27027 -3.05859,-0.480105 -4.62306,-0.639405 0,0 0,0 0,0 z m -17.94505,0.287843 c 1.65015,-2.654303 2.80591,-3.95838 3.65846,-3.953993 0,0 -0.009,0 -0.009,0 0.73827,0.0045 1.63914,1.154678 2.83446,3.41127 -2.13793,0.105525 -4.30223,0.290025 -6.48412,0.542723 0,0 0,0 0,0 z m -34.24439,8.615474 c 1.14478,-3.223395 2.1006,-4.942754 3.07397,-5.229494 0.83498,-0.246083 2.14673,0.69984 4.09572,2.770762 -2.40163,0.772335 -4.79225,1.595205 -7.16969,2.458732 0,0 0,0 0,0 z M 619.07294,48.0378 c 0.94261,-3.334342 1.71605,-5.080072 2.55103,-5.219595 0.8745,-0.14715 2.33568,1.026113 4.59447,3.524423 -2.37084,0.49986 -4.75708,1.068952 -7.1455,1.695172 0,0 0,0 0,0 z m -34.17187,12.447517 c 0.29664,-2.882812 0.76464,-4.491202 1.56444,-4.86585 0.84596,-0.394402 2.48731,0.27027 5.11745,1.945688 -2.25441,0.949207 -4.48682,1.92591 -6.68189,2.920162 0,0 0,0 0,0 z"
       style="fill:#ffffff;fill-opacity:1;fill-rule:nonzero;stroke:none"
       id="path4796"
       inkscape:connector-curvature="0" />
    <path
       d="m 651.7309,47.889503 c 0,0 0.6284,0.369135 0.6284,0.369135 0.0637,-0.108675 0.12533,-0.21195 0.1845,-0.315315 3.35961,0.236205 6.61376,0.724005 9.73388,1.495237 0.0747,0.140625 0.1494,0.28125 0.2241,0.422977 0,0 0.46582,-0.2439 0.46582,-0.2439 9.82177,2.580683 18.27245,8.051895 24.34131,17.50122 3.83861,5.973277 6.4292,12.237682 7.62012,18.629526 1.15137,6.186398 0.99536,12.517807 -0.60205,18.841547 -1.33594,5.28993 -3.18823,9.92396 -5.4756,13.9878 -32.59422,-15.83021 -69.23583,-4.3385 -108.1516,7.8662 -19.86548,6.22926 -40.33521,12.64855 -61.06421,15.63354 -4.46263,0.38563 -8.69238,0.8174 -12.7661,1.23597 -1.02393,0.10327 -2.03467,0.20655 -3.04103,0.30872 -1.01513,0.0495 -2.03465,0.09 -3.0542,0.11858 0,0 0.009,0.18562 0.009,0.18562 -22.88672,2.23902 -41.97656,2.87402 -72.87891,-10.39527 19.16676,-5.26243 42.46657,-12.88586 64.82153,-21.81334 20.07862,-8.01783 39.41455,-17.09692 54.33619,-26.474852 18.62181,-11.702632 56.50927,-32.701903 89.75389,-36.78113 2.88063,-0.353768 5.72607,-0.57897 8.52321,-0.656978 0.0113,0.02295 0.0203,0.045 0.0308,0.06818 0,0 0.1647,-0.07245 0.1647,-0.07245 2.09619,-0.0549 4.16162,-0.02745 6.1963,0.0891 0,0 0,0 0,0 z"
       style="fill:#ffffff;fill-opacity:1;fill-rule:nonzero;stroke:none"
       id="path4798"
       inkscape:connector-curvature="0" />
    <path
       d="m 582.85541,129.79805 c 0.58887,1.99512 1.62378,4.8307 2.89161,7.51905 0.76903,1.63696 2.29394,4.13415 3.74193,6.22156 -1.97752,-0.17257 -3.95068,-0.34938 -5.90843,-0.52404 -12.59694,-1.12831 -24.73684,-2.21486 -35.59131,-2.22694 -0.88772,0 -1.76222,0.002 -2.62793,0.0113 12.33983,-3.11353 24.51708,-6.93236 36.479,-10.68419 0.33838,-0.10665 0.67675,-0.21308 1.01513,-0.31752 0,0 0,0 0,0 z"
       style="fill:#ffffff;fill-opacity:1;fill-rule:nonzero;stroke:none"
       id="path4800"
       inkscape:connector-curvature="0" />
    <path
       d="m 599.60736,124.64107 c 0.65918,3.04211 1.79516,6.40175 3.25194,9.52625 1.44581,3.09814 4.39016,7.875 6.85548,10.87428 -5.89527,-0.31752 -11.82568,-0.77893 -17.70556,-1.28541 -1.57984,-2.10937 -3.62988,-5.35034 -4.52637,-7.25647 -1.25023,-2.65869 -2.2588,-5.41845 -2.8037,-7.27515 5.01856,-1.57104 9.99535,-3.12012 14.92821,-4.5835 0,0 0,0 0,0 z"
       style="fill:#ffffff;fill-opacity:1;fill-rule:nonzero;stroke:none"
       id="path4802"
       inkscape:connector-curvature="0" />
    <path
       d="m 621.5163,118.78866 c 0.51197,3.68262 1.83031,7.68274 3.39917,11.40492 2.21924,5.27892 5.68433,11.59056 7.7827,15.10728 -6.58959,0.29115 -13.3989,0.19328 -20.28075,-0.12532 -2.43018,-2.38075 -6.17432,-8.31337 -7.81128,-11.8202 -1.42162,-3.05091 -2.52466,-6.32592 -3.15309,-9.26367 6.78297,-1.98853 13.47366,-3.80676 20.06325,-5.3031 0,0 0,0 0,0 z"
       style="fill:#ffffff;fill-opacity:1;fill-rule:nonzero;stroke:none"
       id="path4804"
       inkscape:connector-curvature="0" />
    <path
       d="m 654.98723,142.35872 c -1.52928,-1.56555 -4.74169,-6.96643 -7.42675,-13.56262 -1.75781,-4.31872 -3.23437,-9.11095 -3.7793,-13.63732 15.08643,-1.30189 29.49831,0.2417 43.02906,6.71814 -7.47729,11.04566 -18.6482,17.23865 -31.82301,20.4818 0,0 0,0 0,0 z"
       style="fill:#ffffff;fill-opacity:1;fill-rule:nonzero;stroke:none"
       id="path4806"
       inkscape:connector-curvature="0" />
    <path
       d="m 641.85858,115.33786 c 0.56691,4.72741 2.09619,9.7108 3.91772,14.18335 2.34889,5.76673 5.26905,10.74022 7.27296,13.29016 -5.7964,1.2832 -11.96192,2.02806 -18.34937,2.38953 -1.66334,-2.76746 -5.5481,-9.90088 -8.00904,-15.75221 -1.53369,-3.64196 -2.81688,-7.54211 -3.28711,-11.07972 6.24904,-1.3612 12.40578,-2.41697 18.45484,-3.03111 0,0 0,0 0,0 z"
       style="fill:#ffffff;fill-opacity:1;fill-rule:nonzero;stroke:none"
       id="path4808"
       inkscape:connector-curvature="0" />
    <path
       d="m 606.99897,102.06527 c 2.83007,16.04772 -13.06935,32.1394 -12.66064,47.16322 4.61864,0.24939 8.15625,-3.05091 9.28564,-3.25087 -0.77344,0.13725 -1.57104,4.05286 -2.0149,8.46718 3.4497,-0.36916 7.30152,-4.37038 8.14966,-4.51868 0.27027,2.54113 -0.92725,6.34788 -0.63502,7.48278 27.72949,-12.97267 41.2229,-42.86756 40.54176,-52.49596 0,0 -42.6665,-2.84767 -42.6665,-2.84767 0,0 0,0 0,0 z"
       style="fill:#ffffff;fill-opacity:1;fill-rule:evenodd;stroke:none"
       id="path4810"
       inkscape:connector-curvature="0" />
    <path
       d="m 622.3974,146.76424 c -4.7461,-0.95031 -9.34717,-2.59936 -13.39454,-5.09656 -3.36181,-2.07642 -6.3457,-4.73949 -8.71216,-8.08153 0.68335,-1.58204 1.41066,-3.17835 2.13795,-4.77797 5.91944,-12.99573 9.09669,-20.71032 3.64746,-33.926867 0.8833,9.359257 -0.43506,18.716307 -7.14771,32.334947 -3.38598,7.43335 -6.71704,14.74806 -6.51929,22.07046 0,0 0.0484,1.76658 0.0484,1.76658 2.83446,0.15165 5.14158,0.0693 7.82226,-1.13708 -0.38892,2.21704 -0.59765,4.45826 -0.82177,6.69836 2.69383,-0.42408 4.19677,-1.02282 8.09032,-2.78174 -0.37793,2.34119 -0.30323,3.98144 0.29005,6.30176 12.09375,-5.65794 21.81004,-13.20885 29.98827,-23.79528 9.73829,-12.61449 14.6162,-23.53712 12.97705,-38.942147 -2.63891,12.388187 -5.06029,23.436047 -16.02247,36.594357 -3.44749,4.46155 -7.57615,8.8517 -12.38377,12.77271 0,0 0,0 0,0 z"
       style="fill:#231f20;fill-opacity:1;fill-rule:nonzero;stroke:none"
       id="path4812"
       inkscape:connector-curvature="0" />
    <path
       d="m 599.0141,136.67769 c 2.40601,3.01575 5.28662,5.4745 8.47046,7.43994 3.66723,2.26429 7.73658,3.87599 11.95092,4.93396 0,0 -8.04638,5.0713 -8.04638,5.0713 0,0 0.0659,-6.45777 0.0659,-6.45777 0,0 -7.5564,3.93091 -7.5564,3.93091 0,0 -0.60205,-7.52344 -0.60205,-7.52344 0,0 -6.98072,3.09816 -6.98072,3.09816 0,0 2.69825,-10.49306 2.69825,-10.49306 0,0 0,0 0,0 z"
       style="fill:#ffffff;fill-opacity:1;fill-rule:nonzero;stroke:none"
       id="path4814"
       inkscape:connector-curvature="0" />
    <path
       d="m 509.87104,116.12556 c 0.41967,16.28834 -17.68799,29.84767 -19.50953,44.7649 4.52858,0.93055 8.5188,-1.80835 9.66139,-1.838 -0.78223,0.018 -2.15113,3.77489 -3.24538,8.07493 3.46509,0.144 7.86841,-3.24205 8.72976,-3.26293 -0.1098,2.55542 -1.85891,6.14136 -1.74024,7.30812 29.34886,-8.71875 47.12255,-36.28676 47.87842,-45.90968 0,0 -41.77442,-9.13734 -41.77442,-9.13734 0,0 0,0 0,0 z"
       style="fill:#ffffff;fill-opacity:1;fill-rule:evenodd;stroke:none"
       id="path4816"
       inkscape:connector-curvature="0" />
    <path
       d="m 518.47553,162.61202 c -4.55494,-1.64245 -8.85937,-3.95617 -12.49366,-7.02686 -3.01685,-2.55102 -5.57226,-5.62828 -7.41796,-9.28235 0.91186,-1.46448 1.86548,-2.93224 2.82348,-4.4077 7.77614,-11.97511 12.0652,-19.1338 8.63525,-33.01173 -0.51635,9.38673 -3.2058,18.44385 -11.86303,30.91882 -4.44726,6.84889 -8.82641,13.58899 -9.71631,20.85975 0,0 -0.21308,1.75561 -0.21308,1.75561 2.77954,0.56909 5.07348,0.83056 7.90135,0.034 -0.70972,2.13793 -1.25023,4.31982 -1.80394,6.5039 2.72901,-0.0225 4.30225,-0.3911 8.41113,-1.55016 -0.71631,2.25549 -0.88551,3.89245 -0.64599,6.26989 12.80346,-3.80016 23.52831,-9.82836 33.18311,-19.08875 11.50488,-11.03026 17.94505,-21.10801 18.60644,-36.58666 -4.44287,11.86193 -8.47706,22.4275 -21.26954,33.81592 -4.06933,3.90233 -8.80225,7.6311 -14.1372,10.79626 0,0 0,0 0,0 z"
       style="fill:#231f20;fill-opacity:1;fill-rule:nonzero;stroke:none"
       id="path4818"
       inkscape:connector-curvature="0" />
    <path
       d="m 496.84345,149.17244 c 1.9314,3.33875 4.4165,6.1985 7.27515,8.61439 3.2915,2.78175 7.07519,4.979 11.08739,6.65001 0,0 -8.70775,3.81996 -8.70775,3.81996 0,0 1.02173,-6.37648 1.02173,-6.37648 0,0 -8.05518,2.76856 -8.05518,2.76856 0,0 0.51856,-7.52782 0.51856,-7.52782 0,0 -7.36304,2.02808 -7.36304,2.02808 0,0 4.22314,-9.9767 4.22314,-9.9767 0,0 0,0 0,0 z"
       style="fill:#ffffff;fill-opacity:1;fill-rule:nonzero;stroke:none"
       id="path4820"
       inkscape:connector-curvature="0" />
    <path
       d="m 754.53216,124.99812 c -0.82618,-0.13837 -1.66113,-0.28453 -2.50049,-0.44055 0,0 0,0 0,0"
       style="fill:#231f20;fill-opacity:1;fill-rule:nonzero;stroke:none"
       id="path4822"
       inkscape:connector-curvature="0" />
    <path
       d="m 786.18597,128.16549 c -0.0506,-0.002 -0.10103,-0.007 -0.14513,-0.0113"
       style="fill:#231f20;fill-opacity:1;fill-rule:nonzero;stroke:none"
       id="path4824"
       inkscape:connector-curvature="0" />
    <path
       d="m 597.88471,62.718847 c -3.09375,0.760252 -5.23388,2.95641 -4.80323,4.975695 0.44824,2.078617 3.45411,3.205822 6.69067,2.507085 1.39527,-0.298823 2.60815,-0.888795 3.50464,-1.630373 -0.088,0.02408 -0.1737,0.04073 -0.26368,0.06052 -3.23876,0.698715 -6.24021,-0.428467 -6.68846,-2.505982 -0.25488,-1.184333 0.37352,-2.425793 1.56006,-3.40686 0,0 0,0 0,0 z m -60.56104,37.544673 c -3.84741,1.56555 -6.16552,4.85705 -5.16357,7.33007 1.00636,2.46863 4.96361,3.208 8.81543,1.64027 0.82177,-0.33399 1.57104,-0.74489 2.23682,-1.2107 -3.51124,1.06677 -6.89283,0.25488 -7.80908,-2.00061 -0.79103,-1.94348 0.47459,-4.39344 2.92455,-6.113905 -0.33617,0.102155 -0.66796,0.219825 -1.00415,0.354875 0,0 0,0 0,0 z m 26.40674,-1.31288 c -4.63183,1.51832 -7.61573,5.17237 -6.64893,8.15076 0.96901,2.98498 5.55251,4.18909 10.20411,2.67957 1.22168,-0.39551 2.32909,-0.93933 3.28271,-1.58312 -0.0135,0.004 -0.0263,0.0113 -0.0419,0.0135 -4.65163,1.5106 -9.23731,0.30651 -10.20632,-2.68068 -0.7119,-2.20385 0.73391,-4.77465 3.41017,-6.579715 0,0 0,0 0,0 z m -5.2141,-16.568481 c -4.08033,2.694959 -5.99634,7.030169 -4.26929,9.649304 1.73144,2.619135 6.47314,2.55762 10.55126,-0.13725 0.005,-0.0045 0.0135,-0.009 0.018,-0.01125 -3.10252,0.990968 -6.04248,0.522945 -7.32568,-1.419435 -1.72706,-2.61693 0.18022,-6.94116 4.24951,-9.638302 -1.07665,0.34497 -2.17089,0.86463 -3.22338,1.557855 0,0 0,0 0,0 z m 22.87793,-6.546735 c -4.08254,2.69604 -5.99855,7.030147 -4.26931,9.650384 1.72706,2.619135 6.46875,2.55762 10.55129,-0.1395 0.005,-0.0022 0.009,-0.0067 0.0158,-0.009 -3.10035,0.99207 -6.04247,0.522945 -7.32787,-1.420537 -1.72706,-2.61693 0.18247,-6.94116 4.24951,-9.6372 -1.07226,0.343868 -2.16871,0.862425 -3.21899,1.556775 0,0 0,0 0,0 z m 7.32787,19.388654 c -4.5835,1.699582 -7.43556,5.486582 -6.3457,8.429832 1.08983,2.94322 5.72168,3.95835 10.30956,2.25877 1.01075,-0.37904 1.94238,-0.85363 2.76417,-1.40294 -4.4275,1.46117 -8.78028,0.41528 -9.83056,-2.42469 -0.85034,-2.293945 0.68994,-5.096567 3.57714,-7.026865 -0.15817,0.05265 -0.31642,0.10665 -0.47461,0.165825 0,0 0,0 0,0 z m 15.30616,-19.680907 c -3.56177,1.078875 -5.99416,3.524423 -5.73048,6.082043 0.32519,3.121222 4.55713,5.254762 9.42187,4.750492 2.26758,-0.235125 4.28027,-1.000868 5.75244,-2.069843 -0.7888,0.236205 -1.63037,0.40869 -2.51147,0.49878 -4.86475,0.505373 -9.09448,-1.628167 -9.41967,-4.749389 -0.17347,-1.668825 0.79981,-3.289298 2.48731,-4.512083 0,0 0,0 0,0 z M 619.77386,59.75913 c -3.55957,1.079954 -5.99634,3.524399 -5.73046,6.082019 0.32081,3.122325 4.55713,5.256968 9.42188,4.751595 2.26536,-0.235102 4.28026,-1.00305 5.75244,-2.070922 -0.79101,0.238387 -1.63038,0.40869 -2.51148,0.500962 -4.86695,0.50427 -9.09888,-1.628167 -9.42187,-4.75047 -0.17348,-1.667745 0.80199,-3.28932 2.48949,-4.513184 0,0 0,0 0,0 z m 11.41699,15.015014 c -3.74413,1.20519 -6.31055,3.739747 -6.18968,6.544552 0.16043,3.75183 5.0603,6.606067 10.90721,6.355575 2.90259,-0.123075 5.50636,-0.989865 7.37184,-2.291738 -1.26124,0.405405 -2.65869,0.660285 -4.13087,0.7218 -5.84473,0.251595 -10.74463,-2.602665 -10.90723,-6.356677 -0.0792,-1.88856 1.05468,-3.652965 2.94873,-4.973512 0,0 0,0 0,0 z m 14.26246,-20.064329 c -4.07153,1.345815 -6.81592,4.19787 -6.50392,7.174057 0.39333,3.733155 5.45583,6.28308 11.27858,5.673352 2.56639,-0.269167 4.86036,-1.10853 6.5918,-2.28186 -1.0415,0.342765 -2.1665,0.586665 -3.35084,0.713003 -5.82056,0.608647 -10.88745,-1.939095 -11.27857,-5.674433 -0.21982,-2.087414 1.06787,-4.115474 3.26295,-5.604119 0,0 0,0 0,0 z M 454.89326,126.53402 c -3.31128,0.92176 -5.58545,3.208 -5.26246,5.50195 0.37355,2.62023 4.00781,4.28796 8.09035,3.71009 1.87207,-0.26478 3.52001,-0.9569 4.7241,-1.87866 -0.47459,0.13185 -0.97119,0.2351 -1.48095,0.30872 -4.0869,0.57897 -7.71899,-1.08875 -8.09033,-3.70899 -0.20216,-1.42164 0.59765,-2.83887 2.01929,-3.93311 0,0 0,0 0,0 z m 21.32446,-5.06799 c -2.78833,0.62512 -4.76367,2.48949 -4.5,4.35717 0.29003,2.02369 3.08937,3.31018 6.24463,2.86303 1.604,-0.2274 2.99927,-0.86242 3.94189,-1.70068 -0.22851,0.0515 -0.46362,0.0979 -0.70092,0.1296 -3.15308,0.44824 -5.95679,-0.83936 -6.24245,-2.86083 -0.14062,-0.99097 0.35157,-1.98194 1.25685,-2.78834 0,0 0,0 0,0 z m 16.47729,-6.07984 c -4.29786,1.74573 -6.88403,5.41955 -5.76562,8.17931 1.12279,2.7543 5.53929,3.57827 9.83715,1.82923 0.84596,-0.34387 1.62599,-0.76243 2.3247,-1.23376 -3.99462,1.2865 -7.87718,0.39442 -8.92089,-2.1654 -0.89867,-2.21376 0.58887,-5.01856 3.43652,-6.94227 -0.30542,0.0979 -0.60863,0.20768 -0.91186,0.33289 0,0 0,0 0,0 z"
       style="fill:#231f20;fill-opacity:1;fill-rule:evenodd;stroke:none"
       id="path4826"
       inkscape:connector-curvature="0" />
    <path
       d="m 717.12591,110.26436 c 0.0968,3.02785 0.33399,5.84694 0.75366,7.9585 0.48559,2.45216 1.36451,4.16052 2.74878,4.67469 0,0 0.87892,0.11767 0.87892,0.11767 1.18212,-0.088 2.61913,-0.99866 4.18358,-2.52358 1.27442,-1.24254 2.729,-2.92016 4.25392,-4.88891 1.23925,0.51307 2.4873,1.02724 3.73754,1.54028 -0.7229,2.59387 -1.27442,4.99329 -1.52271,6.86867 -0.32519,2.46204 -0.088,4.36705 0.95362,5.32836 0,0 0.78003,0.45812 0.78003,0.45812 1.37328,0.42188 3.54638,-0.25816 6.15892,-1.73803 2.17091,-1.23267 4.85597,-3.07067 7.72778,-5.27452 0.38453,0.1494 0.76685,0.29772 1.14919,0.44714 -0.43947,1.83251 -0.74927,3.48926 -0.87453,4.82958 -0.19327,2.06982 0.0988,3.67054 1.04591,4.54725 0,0 0.78222,0.45592 0.78222,0.45592 1.25246,0.38673 3.12891,-0.12735 5.37671,-1.31506 1.72485,-0.91516 3.81006,-2.2522 6.06665,-3.88037 0.79981,0.29115 1.59961,0.57568 2.39942,0.85583 -0.76684,2.64771 -1.37549,5.15149 -1.69189,7.17847 -0.42628,2.76856 -0.24171,4.91638 0.86571,5.94031 0,0 0.78224,0.45813 0.78224,0.45813 1.51171,0.46581 4.09131,-0.46803 7.19383,-2.35656 2.43457,-1.47546 5.36135,-3.56947 8.41773,-6.00732 -0.59544,3.442 -1.0393,6.84996 -1.17113,9.5625 -0.16695,3.48484 0.30103,6.13476 1.74902,7.05541 0,0 0.85034,0.30103 0.85034,0.30103 1.68529,0.20992 4.47142,-1.42493 7.68823,-4.19897 2.4961,-2.15332 5.41845,-5.04603 8.35182,-8.27382 0.69871,0.14715 1.39524,0.29334 2.0808,0.42957 3.43651,0.68445 6.61376,1.00744 9.53174,1.01293 7.3037,0.0135 13.05175,-1.9303 17.23315,-5.07676 0,0 -0.002,0.007 -0.002,0.007 4.2583,-3.20583 6.87305,-7.63772 7.84424,-12.51345 0.28564,-1.43041 0.43067,-2.8872 0.43506,-4.36266 0.009,-4.05285 -1.292,-7.93982 -3.47607,-11.42689 -2.78174,-4.43297 -7.00049,-8.245237 -11.75537,-10.939072 -4.76368,-2.699347 -10.11402,-4.298962 -15.14356,-4.309942 -3.33106,-0.0067 -6.51928,0.676755 -9.32519,2.18628 -0.7207,-0.304313 -1.37549,-0.571298 -2.10938,-0.874508 -11.63673,-4.780147 -41.04053,-16.857427 -45.65038,-30.669434 -2.67408,-12.133304 -9.99317,-20.541149 -19.32277,-24.897216 -6.03808,-2.81799 -12.90672,-3.924315 -19.88526,-3.234375 -6.94334,0.688838 -14.00537,3.155265 -20.46093,7.483882 -12.70458,8.520997 -23.08885,24.262199 -25.61792,47.855338 0,0 -0.2263,2.102783 -0.2263,2.102783 0,0 2.10717,0.1746 2.10717,0.1746 11.05663,0.916267 30.9287,9.230714 53.76489,18.788824 0.1143,0.0495 0.22851,0.0945 0.34277,0.14288 0,0 0,0 0,0 z"
       style="fill:#231f20;fill-opacity:1;fill-rule:nonzero;stroke:none"
       id="path4828"
       inkscape:connector-curvature="0" />
    <path
       d="m 665.47698,87.467743 c 2.7378,-21.103649 12.15747,-35.189211 23.58106,-42.851068 5.87549,-3.938602 12.27393,-6.180907 18.5559,-6.801637 6.24684,-0.618547 12.37721,0.363645 17.74292,2.868525 8.25514,3.8529 14.73048,11.346682 17.07716,22.200074 0,0 0.0526,0.215325 0.0526,0.215325 5.16357,15.637949 35.87035,28.250256 48.01903,33.241341 1.39747,0.571275 2.5796,1.059075 3.01466,1.244745 0,0 0.99756,0.426262 0.99756,0.426262 0,0 0.90965,-0.571275 0.90965,-0.571275 2.3423,-1.465582 5.11963,-2.12256 8.05957,-2.114865 4.29786,0.009 8.9341,1.41723 13.12207,3.790283 4.19678,2.376337 7.89698,5.698597 10.2964,9.532817 1.79734,2.86304 2.86522,6.00294 2.85644,9.21643 0,1.21619 -0.11857,2.41151 -0.35156,3.56947 -0.77785,3.91003 -2.86963,7.45972 -6.28418,10.02611 0,0 -0.005,0.009 -0.005,0.009 -3.49146,2.62573 -8.39356,4.25061 -14.72828,4.23743 -2.66969,-0.004 -5.58326,-0.29772 -8.74291,-0.92835 -1.19972,-0.2406 -2.40822,-0.49548 -3.62111,-0.76575 0,0 -0.50757,-0.44055 -0.50757,-0.44055 -0.079,0.0911 -0.15593,0.18023 -0.23511,0.27027 -24.37645,-5.5426 -52.34764,-17.24964 -76.9043,-27.52625 -21.81662,-9.12854 -40.9614,-17.137572 -52.90575,-18.848134 0,0 0,0 0,0 z"
       style="fill:#ffffff;fill-opacity:1;fill-rule:nonzero;stroke:none"
       id="path4830"
       inkscape:connector-curvature="0" />
    <path
       d="m 743.26459,121.01009 c -1.938,1.41066 -3.73095,2.59497 -5.25366,3.45631 -0.78883,0.45043 -1.44801,0.8042 -1.93579,1.04369 0.0594,-0.25157 0.12307,-0.5702 0.17145,-0.94921 0.21082,-1.59741 0.67237,-3.63319 1.2744,-5.85461 1.90723,0.77233 3.82324,1.54028 5.74366,2.30382 0,0 0,0 0,0 z"
       style="fill:#ffffff;fill-opacity:1;fill-rule:nonzero;stroke:none"
       id="path4832"
       inkscape:connector-curvature="0" />
    <path
       d="m 756.58441,126.13741 c -1.20411,0.80091 -2.30274,1.46777 -3.25854,1.97314 -0.46803,0.24831 -0.86792,0.45373 -1.19752,0.61524 0.0135,-0.0801 0.0286,-0.17145 0.0351,-0.27027 0.0968,-1.02173 0.32737,-2.29723 0.65477,-3.73205 1.25685,0.47682 2.50929,0.95033 3.76612,1.41394 0,0 0,0 0,0 z"
       style="fill:#ffffff;fill-opacity:1;fill-rule:nonzero;stroke:none"
       id="path4834"
       inkscape:connector-curvature="0" />
    <path
       d="m 792.10979,137.32808 c -2.27196,2.4115 -4.47802,4.55274 -6.40283,6.21277 -1.54248,1.32934 -2.79051,2.32362 -3.59473,2.83668 0.0263,-0.58558 0.0702,-1.51501 0.12307,-2.66969 0.12308,-2.43785 0.51856,-5.52721 1.05469,-8.69677 2.97511,0.84375 5.91944,1.62158 8.81982,2.31701 0,0 0,0 0,0 z"
       style="fill:#ffffff;fill-opacity:1;fill-rule:nonzero;stroke:none"
       id="path4836"
       inkscape:connector-curvature="0" />
    <path
       d="m 774.57561,132.38094 c -2.12695,1.61718 -4.12207,3.00147 -5.84033,4.04408 -1.23487,0.74925 -2.23243,1.31506 -2.90477,1.63804 0.0747,-0.37683 0.17797,-0.88879 0.27684,-1.5216 0.27686,-1.7699 0.82179,-4.02098 1.5205,-6.45665 2.32911,0.79211 4.64504,1.56224 6.94776,2.29613 0,0 0,0 0,0 z"
       style="fill:#ffffff;fill-opacity:1;fill-rule:nonzero;stroke:none"
       id="path4838"
       inkscape:connector-curvature="0" />
    <path
       d="m 725.96551,113.95688 c -1.17774,1.47436 -2.25219,2.69932 -3.16186,3.58704 -0.29664,0.28564 -0.55591,0.53613 -0.77783,0.73717 -0.009,-0.22962 -0.0351,-0.51525 -0.10102,-0.85145 -0.28125,-1.41284 -0.47021,-3.2915 -0.58446,-5.40196 1.5293,0.64049 3.07397,1.28649 4.62523,1.9292 0,0 0,0 0,0 z"
       style="fill:#ffffff;fill-opacity:1;fill-rule:nonzero;stroke:none"
       id="path4840"
       inkscape:connector-curvature="0" />
    <path
       d="m 823.78117,115.32906 c -1.00195,-2.33898 -5.0537,-10.82812 -9.55591,-13.49779 -4.73949,-2.805907 -9.86132,0.83385 -0.20205,5.99524 0,0 4.7439,2.53453 4.7439,2.53453 0,0 5.01415,4.96802 5.01415,4.96802 0,0 0,0 0,0 z"
       style="fill:#231f20;fill-opacity:1;fill-rule:evenodd;stroke:none"
       id="path4842"
       inkscape:connector-curvature="0" />
    <path
       d="m 715.79877,40.867028 c -3.92652,1.710585 -7.40041,4.565925 -9.86573,8.440807 -6.58521,10.352407 -3.51124,24.166619 6.84229,30.751829 5.17676,3.293684 11.21924,4.169294 16.78709,2.930039 5.09547,-1.133774 9.79104,-4.036364 13.07813,-8.479237 0,0 -19.56884,-29.102781 -19.56884,-29.102781 0,0 -2.17968,3.834225 -2.17968,3.834225 0,0 -5.09326,-8.374882 -5.09326,-8.374882 0,0 0,0 0,0 z"
       style="fill:#231f20;fill-opacity:1;fill-rule:nonzero;stroke:none"
       id="path4844"
       inkscape:connector-curvature="0" />
    <path
       d="m 738.03948,72.024261 c -2.50049,3.67272 -6.23363,6.063345 -10.29638,6.96753 -4.22755,0.938228 -8.80664,0.273555 -12.73095,-2.220345 -7.84863,-4.99329 -10.18213,-15.467647 -5.18994,-23.318481 1.91821,-3.013538 4.64062,-5.2119 7.71239,-6.496222 0,0 3.31348,5.451434 3.31348,5.451434 0,0 1.83252,-3.2256 1.83252,-3.2256 0,0 15.35888,22.841684 15.35888,22.841684 0,0 0,0 0,0 z"
       style="fill:#f47216;fill-opacity:1;fill-rule:nonzero;stroke:none"
       id="path4846"
       inkscape:connector-curvature="0" />
    <path
       d="m 717.05121,46.162448 c -3.19043,1.362307 -6.01173,3.659534 -8.00685,6.795044 -5.26464,8.277097 -2.80809,19.326037 5.47119,24.589597 8.01783,5.099849 18.63063,2.955307 24.07324,-4.702163 0,0 -15.90819,-23.662349 -15.90819,-23.662349 0,0 -1.83252,3.2256 -1.83252,3.2256 0,0 -3.79687,-6.245729 -3.79687,-6.245729 0,0 0,0 0,0 z"
       style="fill:#ffffff;fill-opacity:1;fill-rule:evenodd;stroke:none"
       id="path4848"
       inkscape:connector-curvature="0" />
    <path
       d="m 729.54046,65.092979 c 0.84375,-1.326037 1.46338,-2.725695 1.91163,-4.109985 0,0 -5.65576,-8.410027 -5.65576,-8.410027 -2.23463,1.36449 -4.63624,3.36402 -6.36989,6.08643 -4.06714,6.396232 -3.03662,14.377792 -2.3269,14.827139 0.70753,0.45153 8.37598,-1.998405 12.44092,-8.393557 0,0 0,0 0,0 z"
       style="fill:#231f20;fill-opacity:1;fill-rule:evenodd;stroke:none"
       id="path4850"
       inkscape:connector-curvature="0" />
    <path
       d="m 730.42816,60.702847 c -1.05908,0.351562 -2.0127,1.053585 -2.65431,2.06433 -1.48095,2.32911 -0.79101,5.43933 1.54249,6.922485 2.12695,1.352407 4.9021,0.89208 6.49951,-0.973395 0,0 -5.38769,-8.01342 -5.38769,-8.01342 0,0 0,0 0,0 z"
       style="fill:#ffffff;fill-opacity:1;fill-rule:evenodd;stroke:none"
       id="path4852"
       inkscape:connector-curvature="0" />
    <path
       d="m 709.00701,99.356045 c -3.05199,-3.620002 -6.11937,-7.261964 -9.3186,-10.577632 -6.31714,-6.546757 -11.87401,-10.515014 -16.70141,-12.372817 -4.58789,-1.765485 -8.57153,-1.681987 -11.96852,-0.1143 -3.33544,1.540283 -5.99852,4.485713 -8.03319,8.493525 -2.86083,5.638185 -4.49121,13.471447 -5.00099,22.415419 -0.1449,2.50049 -0.11205,4.88342 0.0812,7.15759 1.05907,12.43102 6.97851,21.1333 16.13011,26.92748 5.45362,3.45521 12.04981,5.84253 19.42823,7.35755 8.73194,-12.84192 17.32543,-26.78466 21.40137,-42.26441 -2.30713,-2.58727 -4.40332,-5.10754 -6.01832,-7.02245 z"
       style="fill:#231f20;fill-opacity:1;fill-rule:nonzero;stroke:none"
       id="path4854"
       inkscape:connector-curvature="0" />
    <path
       d="m 706.32415,102.00594 c -3.03662,-3.567265 -6.0952,-7.15759 -9.22412,-10.364492 -5.9348,-6.084225 -11.04565,-9.730597 -15.38304,-11.381849 -3.49806,-1.331528 -6.43361,-1.315058 -8.84619,-0.213075 -2.47194,1.129387 -4.5176,3.422227 -6.14577,6.593984 -2.62134,5.113035 -4.12866,12.391492 -4.61425,20.800412 -0.13185,2.3247 -0.10553,4.51319 0.0702,6.57093 0.94921,10.99732 6.22264,18.68665 14.37889,23.79309 5.47119,3.42882 12.26075,5.72718 19.93361,7.11585 7.04443,-10.49854 13.72191,-21.73315 17.73632,-33.93677 -2.66749,-2.83117 -5.28003,-5.89527 -7.90576,-8.97804 z"
       style="fill:#ffffff;fill-opacity:1;fill-rule:nonzero;stroke:none"
       id="path4856"
       inkscape:connector-curvature="0" />
  </g>
</svg>
