<?xml version="1.0" encoding="UTF-8" standalone="no"?>
<svg
   xmlns:dc="http://purl.org/dc/elements/1.1/"
   xmlns:cc="http://creativecommons.org/ns#"
   xmlns:rdf="http://www.w3.org/1999/02/22-rdf-syntax-ns#"
   xmlns:svg="http://www.w3.org/2000/svg"
   xmlns="http://www.w3.org/2000/svg"
   xmlns:sodipodi="http://sodipodi.sourceforge.net/DTD/sodipodi-0.dtd"
   xmlns:inkscape="http://www.inkscape.org/namespaces/inkscape"
   version="1.1"
   viewBox="0 -50 320 180"
   id="svg2"
   inkscape:version="0.91 r13725"
   sodipodi:docname="old-gator-true.svg">
  <metadata
     id="metadata82">
    <rdf:RDF>
      <cc:Work
         rdf:about="">
        <dc:format>image/svg+xml</dc:format>
        <dc:type
           rdf:resource="http://purl.org/dc/dcmitype/StillImage" />
        <dc:title></dc:title>
      </cc:Work>
    </rdf:RDF>
  </metadata>
  <defs
     id="defs80" />
  <sodipodi:namedview
     pagecolor="#ffffff"
     bordercolor="#666666"
     borderopacity="1"
     objecttolerance="10"
     gridtolerance="10"
     guidetolerance="10"
     inkscape:pageopacity="0"
     inkscape:pageshadow="2"
     inkscape:window-width="1600"
     inkscape:window-height="837"
     id="namedview78"
     showgrid="false"
     inkscape:zoom="3.6"
     inkscape:cx="137.12923"
     inkscape:cy="13.479615"
     inkscape:window-x="-8"
     inkscape:window-y="-8"
     inkscape:window-maximized="1"
     inkscape:current-layer="svg2" />
  <g
     transform="matrix(1.25,0,0,-1.25,448.13052,862.32916)"
     class="body"
     id="g4"
     style="opacity:0">
    <path
       d="m -211.37225,667.71288 c -1.55957,2.72754 -2.90136,4.15283 -4.37988,4.33008 -1.49951,0.17968 -2.81299,-0.85157 -4.27441,-3.04151 -0.55371,0.021 -1.11133,0.0303 -1.67286,0.0308 -1.43359,2.85498 -2.69091,4.3125 -4.25732,4.3208 0,0 -0.004,0 -0.004,0 -1.65087,0.008 -3.17187,-1.67675 -5.15527,-5.12011 -0.31494,-0.0508 -0.63086,-0.10401 -0.94726,-0.15918 -2.47217,2.86816 -4.22706,4.18896 -5.80127,3.92236 -1.74219,-0.29492 -2.76026,-2.30713 -3.73389,-6.0874 0,0 0.15283,-0.0386 0.15283,-0.0386 -0.33057,-0.0957 -0.66113,-0.19335 -0.99072,-0.29296 0,0 0.24512,0.21875 0.24512,0.21875 -2.17334,2.45019 -3.85059,3.5122 -5.4751,3.03173 -2.12744,-0.62793 -3.59033,-4.37597 -3.83106,-6.37548 -0.47119,-0.18213 -0.94189,-0.36622 -1.40918,-0.55323 0,0 -0.76806,0.37842 -0.76806,0.37842 -2.7168,1.81983 -4.59912,2.45996 -6.03028,1.79102 -1.09814,-1.00733 -1.83398,-3.17578 -2.32129,-6.13721 -1.45019,-0.68066 -3.75341,4.73584 -7.26123,2.80957 -1.50537,-0.82666 -2.07666,-3.24072 -2.27978,-7.61621 0,0 0.01,-4.9e-4 0.01,-4.9e-4 -0.0396,-0.0205 -0.0791,-0.042 -0.11865,-0.0635 -3.33838,1.70801 -5.48926,2.21387 -6.91064,1.292 -1.37012,-0.88916 -1.74951,-2.8545 -1.54785,-6.09961 -0.12793,-0.0762 -0.2544,-0.15332 -0.38135,-0.22901 -3.29102,1.9541 -5.41895,2.71436 -6.8711,1.87354 -1.46093,-0.84522 -1.82177,-3.02832 -1.54199,-6.93555 -0.39551,-0.22314 -0.79541,-0.44531 -1.19726,-0.66601 -2.88623,1.65039 -4.8335,2.18701 -6.22461,1.44921 -1.41846,-0.75293 -1.95117,-2.59423 -1.98975,-5.68652 -0.22705,-0.11035 -0.45556,-0.22021 -0.68408,-0.33057 -2.90283,1.95508 -4.86133,2.78125 -6.30908,2.17237 -1.50977,-0.63623 -2.07959,-2.54737 -2.12647,-6.03028 -0.45947,-0.1997 -0.92041,-0.3999 -1.3833,-0.59912 -3.22607,2.02149 -5.36474,2.80567 -6.88281,2.17676 -1.6001,-0.66308 -2.19971,-2.58154 -2.27295,-5.9331 -0.18896,-0.0752 -0.37744,-0.14893 -0.56641,-0.22217 -2.854,1.99951 -4.79834,2.89648 -6.25586,2.40967 -1.56201,-0.52295 -2.20849,-2.31348 -2.34228,-5.64405 -0.0825,-0.0308 -0.16553,-0.0601 -0.24805,-0.0903 -2.53711,2.07129 -4.34912,2.88525 -5.83593,2.34766 -1.4961,-0.54151 -2.31495,-2.30225 -2.86719,-5.37696 -0.19629,-0.0654 -0.39209,-0.13037 -0.5874,-0.19629 -2.66749,2.5669 -4.52247,3.75293 -6.10108,3.2959 -1.60742,-0.46582 -2.4668,-2.458 -3.10058,-6.23535 -4.38624,-1.33935 -8.56543,-2.52783 -12.40528,-3.53515 0,0 -0.19531,-2.18116 -0.19531,-2.18116 21.82422,-10.0088 34.23682,-9.22755 49.93066,-7.64013 3.28467,0.1582 6.55664,0.49022 9.81446,0.95996 5.0288,0.43553 10.53076,0.77148 16.78808,0.76416 6.4336,-0.005 13.72803,-0.65919 21.29785,-1.33595 28.88477,-2.58544 61.67579,-5.52001 69.38379,24.96339 1.04981,4.14697 1.14991,8.30517 0.39112,12.375 -0.77686,4.16894 -2.45166,8.23291 -4.92627,12.08642 -3.93067,6.11866 -9.31641,9.70899 -15.54737,11.45362 0,0 0,0 0,0 z"
       style="fill:#231f20;fill-opacity:1;fill-rule:nonzero;stroke:none"
       id="path6" />
    <path
       d="m -295.97772,639.2246 c 0.0742,1.42578 0.28711,2.24072 0.7129,2.46582 0.45849,0.24316 1.33544,-9.6e-4 2.70751,-0.70606 -1.11669,-0.59082 -2.26025,-1.17724 -3.42041,-1.75976 0,0 0,0 0,0 z m -9.13085,-4.31641 c 0.06,1.74902 0.25927,2.67188 0.67724,2.84863 0.46875,0.19629 1.42774,-0.22754 2.94776,-1.19336 -1.1919,-0.55712 -2.40235,-1.10937 -3.625,-1.65527 0,0 0,0 0,0 z m -10.5459,-4.46338 c 0.0801,1.71045 0.31689,2.65039 0.81054,2.85694 0.5752,0.23681 1.66065,-0.15821 3.37061,-1.14502 -1.38525,-0.57862 -2.7793,-1.14991 -4.18115,-1.71192 0,0 0,0 0,0 z m -9.15039,-3.52392 c 0.0986,1.60693 0.31347,2.43994 0.71777,2.5747 0.49072,0.16407 1.43262,-0.26709 2.88916,-1.21924 -1.20068,-0.45898 -2.40479,-0.91162 -3.60693,-1.35546 0,0 0,0 0,0 z m -8.77735,-3.12403 c 0.31397,1.39356 0.66162,2.16992 1.12207,2.33692 0.47315,0.16992 1.27198,-0.19678 2.47168,-1.08692 -1.20263,-0.42578 -2.40088,-0.84131 -3.59375,-1.25 0,0 0,0 0,0 z m -9.83398,-3.22461 c 0.38037,2.03907 0.76074,3.09082 1.25781,3.23291 0.51172,0.14893 1.46338,-0.50634 2.9541,-1.88867 -1.41992,-0.46045 -2.82373,-0.90869 -4.21191,-1.34424 0,0 0,0 0,0 z m 74.24609,33.81543 c 0.1709,2.61328 0.45166,4.01221 0.99365,4.30957 0.4961,0.27246 1.66358,-0.42187 3.64356,-1.96826 -1.59131,-0.77685 -3.13867,-1.56006 -4.63721,-2.34131 0,0 0,0 0,0 z m -8.70117,-4.79834 c -0.0439,1.59864 0.10937,2.52442 0.54346,2.80713 0.47461,0.30762 1.49072,0.0586 3.15332,-0.7041 -1.28907,-0.71728 -2.52393,-1.42041 -3.69678,-2.10303 0,0 0,0 0,0 z m -8.81396,-5.3374 c -0.11963,2.19434 -0.002,3.36719 0.46044,3.63477 0.4751,0.27441 1.6001,-0.17334 3.46387,-1.23389 -0.34473,-0.21387 -0.68115,-0.42383 -1.00781,-0.62793 -0.9419,-0.59229 -1.91602,-1.18457 -2.9165,-1.77295 0,0 0,0 0,0 z m 69.35449,24.56543 c 0.52343,0.65234 0.94922,0.96094 1.3081,0.91797 0.41846,-0.0503 0.90088,-0.48242 1.48584,-1.3042 -0.91748,0.16357 -1.8501,0.29004 -2.79394,0.38623 0,0 0,0 0,0 z m -10.84522,-0.17432 c 0.99854,1.6045 1.69678,2.39307 2.21094,2.39014 0,0 -0.004,0 -0.004,0 0.44677,-0.002 0.98974,-0.69775 1.7124,-2.0625 -1.29248,-0.063 -2.60059,-0.17432 -3.91895,-0.32764 0,0 0,0 0,0 z m -20.69482,-5.20556 c 0.69287,1.94775 1.27148,2.98681 1.85888,3.15967 0.5044,0.14843 1.29737,-0.42286 2.47461,-1.67383 -1.45019,-0.4668 -2.89697,-0.96436 -4.33349,-1.48584 0,0 0,0 0,0 z m 9.85156,3.10302 c 0.56982,2.01514 1.0376,3.06885 1.5415,3.15381 0.52979,0.0894 1.41211,-0.61963 2.77686,-2.12939 -1.43359,-0.30176 -2.87646,-0.64502 -4.31836,-1.02442 0,0 0,0 0,0 z m -20.65039,-7.52148 c 0.17969,1.7417 0.4624,2.71338 0.9458,2.93945 0.51074,0.23877 1.50342,-0.16259 3.09424,-1.1748 -1.36426,-0.57422 -2.71289,-1.16406 -4.04004,-1.76465 0,0 0,0 0,0 z"
       style="fill:#ffffff;fill-opacity:1;fill-rule:nonzero;stroke:none"
       id="path8" />
    <path
       d="m -219.28387,666.62938 c 0,0 0.38086,-0.22119 0.38086,-0.22119 0.0376,0.0645 0.0757,0.12647 0.11084,0.18897 2.02979,-0.14258 3.99658,-0.43653 5.88233,-0.90332 0.0449,-0.0845 0.0903,-0.16944 0.13574,-0.25635 0,0 0.28174,0.14892 0.28174,0.14892 5.93603,-1.56054 11.04248,-4.86572 14.71093,-10.57715 2.31787,-3.61035 3.88282,-7.39599 4.60254,-11.25781 0.69629,-3.73877 0.60205,-7.56396 -0.36279,-11.38623 -0.80908,-3.19678 -1.92627,-5.99756 -3.30908,-8.45263 -19.69629,9.56591 -41.84033,2.62158 -65.35791,-4.75391 -12.00536,-3.76465 -24.37256,-7.64356 -36.90235,-9.44678 -2.69726,-0.23437 -5.25097,-0.49463 -7.71289,-0.74707 -0.61914,-0.063 -1.23095,-0.12549 -1.83789,-0.1875 -0.61523,-0.0293 -1.23047,-0.0542 -1.84521,-0.0708 0,0 0.002,-0.11328 0.002,-0.11328 -13.82813,-1.35156 -25.36426,-1.73633 -44.03858,6.28174 11.58155,3.18115 25.6626,7.7876 39.17042,13.18261 12.13525,4.84522 23.81884,10.33106 32.83691,15.99952 11.25244,7.07226 34.14892,19.7622 54.23828,22.22705 1.74219,0.21386 3.4624,0.34912 5.15137,0.39746 0.006,-0.0146 0.0112,-0.0278 0.0181,-0.042 0,0 0.0991,0.0444 0.0991,0.0444 1.26807,0.0337 2.51708,0.0166 3.74512,-0.0547 0,0 0,0 0,0 z"
       style="fill-opacity:1;fill-rule:nonzero;stroke:none"
       class="colored"
       id="path10" />
    <path
       d="m -260.90398,617.13231 c 0.35498,-1.20654 0.979,-2.91943 1.74609,-4.54492 0.46387,-0.98779 1.38525,-2.49756 2.26172,-3.75928 -1.19531,0.10401 -2.3877,0.21143 -3.57178,0.31641 -7.61182,0.68262 -14.94873,1.33838 -21.50879,1.3457 -0.53418,0 -1.06396,-0.002 -1.5874,-0.007 7.45654,1.88232 14.81641,4.18994 22.04541,6.45654 0.20508,0.0654 0.40918,0.12891 0.61475,0.19287 0,0 0,0 0,0 z"
       style="fill-opacity:1;fill-rule:nonzero;stroke:none"
       class="colored"
       id="path12" />
    <path
       d="m -250.78387,620.24901 c 0.40137,-1.83887 1.08692,-3.86914 1.96778,-5.75781 0.87207,-1.87207 2.65087,-4.75879 4.14257,-6.57129 -3.56201,0.19189 -7.14746,0.47119 -10.70068,0.77685 -0.95459,1.27442 -2.19287,3.23291 -2.73437,4.38428 -0.75586,1.60742 -1.36622,3.27539 -1.69385,4.39697 3.03222,0.94971 6.03955,1.88526 9.01855,2.771 0,0 0,0 0,0 z"
       style="fill-opacity:1;fill-rule:nonzero;stroke:none"
       class="colored"
       id="path14" />
    <path
       d="m -237.54217,623.78466 c 0.30957,-2.22608 1.10742,-4.64258 2.05371,-6.89209 1.34278,-3.18946 3.43653,-7.0044 4.70313,-9.12891 -3.98047,-0.17578 -8.09668,-0.11621 -12.25489,0.0752 -1.46923,1.43848 -3.73388,5.02393 -4.72119,7.14258 -0.85937,1.84424 -1.52588,3.82373 -1.90381,5.59912 4.09766,1.20166 8.14161,2.3003 12.12305,3.20411 0,0 0,0 0,0 z"
       style="fill-opacity:1;fill-rule:nonzero;stroke:none"
       class="colored"
       id="path16" />
    <path
       d="m -217.31512,609.54149 c -0.9248,0.9458 -2.86621,4.20947 -4.48828,8.19531 -1.06299,2.60889 -1.9541,5.50635 -2.28564,8.24121 9.11914,0.78711 17.82763,-0.14501 26.00537,-4.06005 -4.51856,-6.67432 -11.26905,-10.41651 -19.23145,-12.37647 0,0 0,0 0,0 z"
       style="fill-opacity:1;fill-rule:nonzero;stroke:none"
       class="colored"
       id="path18" />
    <path
       d="m -225.2492,625.8701 c 0.34229,-2.85693 1.26758,-5.86767 2.36816,-8.57177 1.41895,-3.48389 3.18311,-6.48877 4.39502,-8.03076 -3.50439,-0.7754 -7.22998,-1.22559 -11.08984,-1.44385 -1.00439,1.67138 -3.35156,5.98291 -4.84033,9.51904 -0.92627,2.20166 -1.70264,4.55713 -1.98584,6.6958 3.77734,0.82227 7.49658,1.46045 11.15283,1.83154 0,0 0,0 0,0 z"
       style="fill-opacity:1;fill-rule:nonzero;stroke:none"
       class="colored"
       id="path20" />
    <path
       d="m -246.31463,633.89012 c 1.70947,-9.69775 -7.89746,-19.42187 -7.65088,-28.50097 2.79004,-0.1499 4.92774,1.84424 5.61084,1.96484 -0.4668,-0.082 -0.95019,-2.44922 -1.21777,-5.1167 2.08545,0.22412 4.4126,2.64112 4.92529,2.73145 0.16309,-1.53662 -0.56006,-3.83643 -0.38428,-4.52295 16.75879,7.83984 24.90967,25.90625 24.50049,31.7251 0,0 -25.78369,1.71923 -25.78369,1.71923 0,0 0,0 0,0 z"
       style="fill-opacity:1;fill-rule:evenodd;stroke:none"
       class="colored"
       id="path22" />
    <path
       d="m -237.00945,606.87938 c -2.86866,0.57373 -5.64942,1.56934 -8.09473,3.08057 -2.03272,1.25342 -3.83594,2.86426 -5.26416,4.88281 0.4126,0.95606 0.85156,1.92041 1.29199,2.88672 3.5752,7.854 5.4961,12.51611 2.20313,20.50195 0.53271,-5.65478 -0.26368,-11.30957 -4.31983,-19.53955 -2.04541,-4.4917 -4.0581,-8.9126 -3.93847,-13.33642 0,0 0.0298,-1.06836 0.0298,-1.06836 1.71192,-0.0918 3.10645,-0.043 4.72412,0.68701 -0.2334,-1.34082 -0.3584,-2.69385 -0.49463,-4.04834 1.62891,0.25683 2.53418,0.61914 4.88868,1.68115 -0.22706,-1.41504 -0.18262,-2.40625 0.17578,-3.8081 7.30908,3.41943 13.1792,7.98193 18.1206,14.37988 5.88672,7.62353 8.8335,14.22363 7.84375,23.53271 -1.59472,-7.48584 -3.0581,-14.16211 -9.6831,-22.11377 -2.0835,-2.69629 -4.57715,-5.34863 -7.48291,-7.71826 0,0 0,0 0,0 z"
       style="fill:#231f20;fill-opacity:1;fill-rule:nonzero;stroke:none"
       id="path24" />
    <path
       d="m -251.14129,612.9746 c 1.4541,-1.82276 3.19482,-3.30909 5.12012,-4.49756 2.21484,-1.36768 4.67383,-2.3418 7.22021,-2.98096 0,0 -4.86035,-3.06348 -4.86035,-3.06348 0,0 0.0391,3.90235 0.0391,3.90235 0,0 -4.56591,-2.37549 -4.56591,-2.37549 0,0 -0.36426,4.54541 -0.36426,4.54541 0,0 -4.21826,-1.87109 -4.21826,-1.87109 0,0 1.62939,6.34082 1.62939,6.34082 0,0 0,0 0,0 z"
       style="fill-opacity:1;fill-rule:nonzero;stroke:none"
       class="colored"
       id="path26" />
    <path
       d="m -305.0119,625.39354 c 0.25538,-9.84326 -10.68798,-18.03662 -11.78906,-27.05127 2.73633,-0.56201 5.14698,1.09278 5.83936,1.11035 -0.47363,-0.0117 -1.30127,-2.28076 -1.9624,-4.87939 2.09619,-0.0874 4.75634,1.9585 5.27539,1.97119 -0.0659,-1.54346 -1.12207,-3.71045 -1.04981,-4.41553 17.73535,5.26856 28.47461,21.92871 28.93213,27.74366 0,0 -25.24561,5.52099 -25.24561,5.52099 0,0 0,0 0,0 z"
       style="fill-opacity:1;fill-rule:evenodd;stroke:none"
       class="colored"
       id="path28" />
    <path
       d="m -299.81219,597.30223 c -2.75195,0.99268 -5.35303,2.39014 -7.54834,4.24561 -1.82422,1.54248 -3.36914,3.40185 -4.48291,5.60937 0.55127,0.88575 1.12842,1.77198 1.70606,2.66358 4.70068,7.23681 7.29004,11.56299 5.21826,19.94971 -0.31201,-5.67188 -1.93653,-11.14649 -7.16846,-18.6836 -2.68945,-4.13965 -5.33447,-8.21338 -5.8706,-12.60596 0,0 -0.1294,-1.06152 -0.1294,-1.06152 1.6792,-0.34375 3.06543,-0.50098 4.77344,-0.021 -0.42871,-1.29101 -0.7544,-2.60986 -1.08984,-3.92871 1.64941,0.0117 2.59863,0.23584 5.08447,0.93604 -0.43408,-1.36377 -0.53711,-2.35205 -0.39014,-3.79004 7.73438,2.29785 14.21533,5.93994 20.05127,11.53564 6.95215,6.66602 10.84424,12.75635 11.24414,22.11036 -2.68701,-7.16846 -5.12207,-13.55371 -12.85303,-20.43604 -2.45996,-2.35791 -5.31982,-4.61084 -8.54492,-6.52344 0,0 0,0 0,0 z"
       style="fill:#231f20;fill-opacity:1;fill-rule:nonzero;stroke:none"
       id="path30" />
    <path
       d="m -312.88397,605.4243 c 1.16797,-2.01806 2.66993,-3.7456 4.39649,-5.20556 1.98877,-1.68164 4.27588,-3.00928 6.69971,-4.01905 0,0 -5.26123,-2.30957 -5.26123,-2.30957 0,0 0.61669,3.85352 0.61669,3.85352 0,0 -4.86669,-1.67236 -4.86669,-1.67236 0,0 0.31298,4.54931 0.31298,4.54931 0,0 -4.44824,-1.22607 -4.44824,-1.22607 0,0 2.55029,6.02978 2.55029,6.02978 0,0 0,0 0,0 z"
       style="fill-opacity:1;fill-rule:nonzero;stroke:none"
       class="colored"
       id="path32" />
    <path
       d="m -186.55096,671.57469 c -0.35742,-0.57226 -0.52734,-1.26611 -0.43457,-1.98388 0.21289,-1.65576 1.73633,-2.83252 3.39112,-2.61963 1.51269,0.19385 2.62402,1.48144 2.64306,2.96435 0,0 -5.59961,1.63916 -5.59961,1.63916 0,0 0,0 0,0 z"
       style="fill-opacity:1;fill-rule:evenodd;stroke:none"
       class="colored"
       id="path34" />
    <path
       d="m -251.82244,657.66796 c -1.87061,-0.45899 -3.16406,-1.78516 -2.90235,-3.00733 0.271,-1.25488 2.08594,-1.93603 4.04297,-1.51465 0.84131,0.18116 1.57569,0.53809 2.11719,0.98536 -0.0527,-0.0132 -0.10547,-0.0249 -0.15918,-0.0366 -1.95605,-0.42187 -3.77148,0.25977 -4.04248,1.51465 -0.15332,0.71533 0.22607,1.4668 0.94385,2.0586 0,0 0,0 0,0 z m -36.59863,-22.68848 c -2.32618,-0.94629 -3.72608,-2.93555 -3.12012,-4.4292 0.60791,-1.4917 3,-1.93896 5.32715,-0.9917 0.4956,0.20264 0.94922,0.45117 1.35107,0.73291 -2.12207,-0.64551 -4.16406,-0.15527 -4.71924,1.20801 -0.47705,1.17432 0.2876,2.65527 1.76807,3.69482 -0.20215,-0.0615 -0.4043,-0.13183 -0.60693,-0.21484 0,0 0,0 0,0 z m 15.95849,0.79297 c -2.79932,-0.91699 -4.60254,-3.12549 -4.01904,-4.92481 0.58496,-1.8042 3.35596,-2.53222 6.16748,-1.61914 0.73779,0.23877 1.40625,0.56739 1.9834,0.95606 -0.009,-0.003 -0.0176,-0.006 -0.0249,-0.008 -2.81152,-0.91309 -5.58202,-0.18506 -6.16698,1.61962 -0.43164,1.33155 0.44238,2.88623 2.06005,3.97608 0,0 0,0 0,0 z m -3.15088,10.01318 c -2.46631,-1.62939 -3.62451,-4.24756 -2.57959,-5.83105 1.04492,-1.58301 3.9087,-1.5459 6.37598,0.0835 0.003,0.002 0.006,0.004 0.0102,0.007 -1.87451,-0.59912 -3.65184,-0.31641 -4.42724,0.85791 -1.04444,1.58105 0.10937,4.19434 2.56689,5.82324 -0.64892,-0.20801 -1.31103,-0.52099 -1.94629,-0.94043 0,0 0,0 0,0 z m 13.8252,3.95606 c -2.46729,-1.62891 -3.62598,-4.24756 -2.58057,-5.83106 1.04541,-1.58301 3.90918,-1.5459 6.37549,0.0835 0.004,9.6e-4 0.006,0.004 0.01,0.006 -1.87354,-0.59913 -3.65088,-0.31641 -4.42627,0.85888 -1.04346,1.58008 0.10938,4.19336 2.56787,5.82324 -0.65088,-0.208 -1.31201,-0.52099 -1.94629,-0.94091 0,0 0,0 0,0 z m 4.4292,-11.71631 c -2.77246,-1.02686 -4.49413,-3.31543 -3.83496,-5.09473 0.6582,-1.77832 3.45654,-2.3916 6.22754,-1.36426 0.61328,0.22803 1.17578,0.51612 1.67236,0.84766 -2.67627,-0.88281 -5.30567,-0.25146 -5.94141,1.46582 -0.51366,1.38477 0.41699,3.07861 2.1626,4.24512 -0.0957,-0.0317 -0.19141,-0.064 -0.28613,-0.0996 0,0 0,0 0,0 z m 9.24902,11.89404 c -2.15332,-0.65234 -3.62305,-2.12988 -3.46289,-3.67578 0.1958,-1.88672 2.75342,-3.17627 5.69336,-2.87109 1.36963,0.1416 2.58642,0.60595 3.47607,1.25146 -0.47607,-0.14355 -0.98486,-0.24756 -1.51757,-0.30322 -2.93946,-0.30518 -5.49708,0.98486 -5.69336,2.87158 -0.1045,1.00732 0.48535,1.98633 1.50439,2.72705 0,0 0,0 0,0 z m 9.51465,9.5376 c -2.15283,-0.65235 -3.62402,-2.13037 -3.46387,-3.67578 0.19629,-1.88623 2.75342,-3.17676 5.69336,-2.8711 1.36963,0.14209 2.5874,0.60547 3.47608,1.25196 -0.47657,-0.14453 -0.98438,-0.24805 -1.51709,-0.30323 -2.93995,-0.30566 -5.49756,0.98487 -5.69336,2.8711 -0.10401,1.00781 0.48535,1.98681 1.50488,2.72705 0,0 0,0 0,0 z m 6.89941,-9.07422 c -2.26465,-0.72754 -3.81347,-2.2583 -3.73974,-3.95459 0.0967,-2.2666 3.05664,-3.99268 6.58984,-3.84082 1.75488,0.0747 3.32813,0.59912 4.45606,1.38574 -0.76172,-0.2456 -1.60596,-0.3999 -2.49756,-0.43799 -3.53223,-0.15136 -6.49317,1.5752 -6.59082,3.84229 -0.0483,1.14111 0.63769,2.20752 1.78222,3.00537 0,0 0,0 0,0 z m 8.61866,12.12549 c -2.45948,-0.81299 -4.11768,-2.53662 -3.9292,-4.33447 0.23632,-2.25782 3.29834,-3.79786 6.81494,-3.42872 1.55078,0.16211 2.93603,0.66895 3.98242,1.3794 -0.62793,-0.2085 -1.30811,-0.35547 -2.02393,-0.43115 -3.51757,-0.36866 -6.57812,1.17138 -6.81494,3.42871 -0.13232,1.26172 0.64405,2.48633 1.97071,3.38623 0,0 0,0 0,0 z M -338.23357,619.1035 c -2.00098,-0.55664 -3.37598,-1.93896 -3.18067,-3.32422 0.2251,-1.58398 2.4209,-2.5913 4.88965,-2.24169 1.13037,0.16015 2.12646,0.57812 2.85352,1.13525 -0.28663,-0.0796 -0.58545,-0.14258 -0.89502,-0.18652 -2.46924,-0.3501 -4.66456,0.65722 -4.88965,2.24121 -0.12158,0.85888 0.36133,1.71582 1.22217,2.37597 0,0 0,0 0,0 z m 12.88574,3.06299 c -1.68457,-0.37744 -2.87842,-1.5039 -2.71973,-2.6333 0.17432,-1.22266 1.86719,-1.99902 3.77295,-1.729 0.9707,0.13672 1.81299,0.52197 2.38379,1.02636 -0.13818,-0.0308 -0.28076,-0.0576 -0.42481,-0.0776 -1.90576,-0.27002 -3.59912,0.50732 -3.77294,1.729 -0.0845,0.59961 0.2124,1.19775 0.76074,1.68457 0,0 0,0 0,0 z m 9.95654,3.67529 c -2.59619,-1.05566 -4.15967,-3.27636 -3.48193,-4.94336 0.67773,-1.66503 3.34619,-2.16308 5.94287,-1.10644 0.51123,0.20801 0.98242,0.46143 1.40478,0.74707 -2.41259,-0.77832 -4.76025,-0.23926 -5.38965,1.30762 -0.54394,1.33789 0.35547,3.0332 2.0752,4.1958 -0.18408,-0.0591 -0.36768,-0.12598 -0.55127,-0.20069 0,0 0,0 0,0 z"
       style="fill:#231f20;fill-opacity:1;fill-rule:evenodd;stroke:none"
       id="path36" />
  </g>
  <g
     transform="matrix(1.25,0,0,-1.25,448.13052,862.32916)"
     class="upper_jaw"
     id="g38"
     style="opacity:0">
    <path
       d="m -173.56951,643.41307 c 1.21631,-1.36816 2.41748,-2.58496 3.42871,-3.40527 1.17236,-0.95068 2.24121,-1.40527 3.08154,-1.10791 0,0 0.45557,0.28467 0.45557,0.28467 0.51513,0.49902 0.83008,1.47656 0.96679,2.79101 0.11231,1.06787 0.13721,2.40918 0.0864,3.91309 0.77539,0.2417 1.55225,0.48584 2.33154,0.73144 0.66602,-1.48535 1.33789,-2.81298 1.94776,-3.7788 0.80029,-1.27051 1.64844,-2.0625 2.5039,-2.10743 0,0 0.53809,0.0903 0.53809,0.0903 0.80176,0.333 1.54736,1.49121 2.18799,3.1875 0.53369,1.41162 1.06982,3.30322 1.55078,5.43652 0.23682,0.0786 0.47021,0.15771 0.70605,0.2373 0.50538,-1.02099 1.00245,-1.91015 1.46192,-2.58105 0.71142,-1.03613 1.46533,-1.6665 2.24414,-1.70654 0,0 0.54004,0.0889 0.54004,0.0889 0.72998,0.3042 1.40332,1.26758 1.98681,2.68897 0.44922,1.09228 0.90039,2.52002 1.31885,4.14746 0.4834,0.1748 0.96387,0.35156 1.44531,0.52978 0.66797,-1.5249 1.35401,-2.92236 1.99073,-3.98584 0.86914,-1.45312 1.78759,-2.37744 2.69824,-2.4248 0,0 0.54004,0.0889 0.54004,0.0889 0.88037,0.36767 1.71875,1.79883 2.43115,3.87549 0.55762,1.62695 1.10889,3.73193 1.58545,6.04345 1.05615,-1.82763 2.16602,-3.58203 3.15332,-4.89306 1.26953,-1.6836 2.51123,-2.73194 3.53955,-2.6001 0,0 0.51221,0.18896 0.51221,0.18896 0.86474,0.5542 1.52588,2.39063 1.94775,4.92237 0.32569,1.96484 0.56445,4.43847 0.68018,7.07177 0.37988,0.20118 0.75976,0.40186 1.13379,0.60547 1.85937,1.00879 3.46045,2.08838 4.81787,3.21387 3.39892,2.81641 5.31543,5.94238 6.04053,9.02051 0,0 8e-4,-0.004 8e-4,-0.004 0.74024,3.13672 0.23975,6.2041 -1.19385,8.84571 -0.41845,0.77295 -0.91699,1.50732 -1.48388,2.19238 -1.56494,1.88672 -3.67041,3.18896 -6.03369,3.96338 -3.00586,0.98535 -6.4375,1.12451 -9.68897,0.5376 -3.25488,-0.58838 -6.35937,-1.91407 -8.69971,-3.85352 -1.54882,-1.2832 -2.76464,-2.83398 -3.48486,-4.61963 -0.45312,-0.13769 -0.85937,-0.26611 -1.31885,-0.40967 -7.25244,-2.27832 -25.57861,-8.03711 -33.06006,-3.40429 -5.93261,4.60205 -12.58203,5.67773 -18.60058,4.09277 -3.89307,-1.02539 -7.51123,-3.16553 -10.48438,-6.18408 -2.95996,-3.00488 -5.28613,-6.87988 -6.61084,-11.38721 -2.60693,-8.86816 -1.34423,-20.19434 6.60303,-32.13037 0,0 0.70752,-1.06397 0.70752,-1.06397 0,0 1.0459,0.73292 1.0459,0.73292 5.49121,3.84912 17.93457,7.66992 32.23633,12.06005 0.0708,0.0215 0.14209,0.0435 0.21289,0.0654 0,0 0,0 0,0 z"
       style="fill:#231f20;fill-opacity:1;fill-rule:nonzero;stroke:none"
       id="path40" />
    <path
       d="m -206.37176,634.03319 c -6.88574,10.86035 -7.95605,21.04395 -5.61328,29.02002 1.20508,4.09961 3.31201,7.61572 5.98975,10.33252 2.66259,2.70361 5.88769,4.6167 9.35009,5.52832 5.32178,1.40088 11.22901,0.4248 16.51368,-3.71094 0,0 0.10888,-0.0791 0.10888,-0.0791 8.44092,-5.2666 27.58203,0.74707 35.15283,3.12598 0.87012,0.27343 1.6084,0.50586 1.88282,0.58691 0,0 0.62744,0.18701 0.62744,0.18701 0,0 0.20264,0.61817 0.20264,0.61817 0.5205,1.58447 1.55566,2.96338 2.9248,4.09765 1.99902,1.65674 4.69775,2.7959 7.56055,3.31299 2.86767,0.51856 5.86865,0.4043 8.46777,-0.44678 1.93994,-0.63623 3.65039,-1.68115 4.88867,-3.17675 0.46973,-0.56592 0.87696,-1.16651 1.21826,-1.79395 1.14795,-2.11719 1.54932,-4.57471 0.95655,-7.08594 0,0 0.002,-0.005 0.002,-0.005 -0.60645,-2.57178 -2.25488,-5.22021 -5.20264,-7.66406 -1.2417,-1.02881 -2.70947,-2.01856 -4.42041,-2.94678 -0.64892,-0.35254 -1.30908,-0.70117 -1.979,-1.04541 0,0 -0.4043,0.009 -0.4043,0.009 -0.002,-0.0723 -0.004,-0.14502 -0.006,-0.21777 -13.46338,-6.84815 -30.98144,-12.22608 -46.36084,-16.94727 -13.66113,-4.19385 -25.65039,-7.87451 -31.86035,-11.69873 0,0 0,0 0,0 z"
       style="fill-opacity:1;fill-rule:nonzero;stroke:none"
       class="colored"
       id="path42" />
    <path
       d="m -157.27264,648.52831 c -0.35498,-1.40528 -0.72949,-2.64795 -1.10449,-3.63672 -0.19385,-0.51465 -0.3623,-0.93311 -0.49658,-1.2334 -0.0693,0.14014 -0.1626,0.31006 -0.28662,0.50586 -0.51905,0.82471 -1.09278,1.94775 -1.6709,3.21387 1.18457,0.3789 2.3706,0.76123 3.55859,1.15039 0,0 0,0 0,0 z"
       style="fill:#ffffff;fill-opacity:1;fill-rule:nonzero;stroke:none"
       id="path44" />
    <path
       d="m -149.10369,651.29491 c -0.25098,-0.83691 -0.50293,-1.57178 -0.75196,-2.17627 -0.12011,-0.29443 -0.22705,-0.5459 -0.31835,-0.74756 -0.0234,0.043 -0.0527,0.0898 -0.0869,0.13867 -0.35156,0.5127 -0.73779,1.19434 -1.13818,1.98731 0.76611,0.26367 1.53222,0.52881 2.29541,0.79785 0,0 0,0 0,0 z"
       style="fill:#ffffff;fill-opacity:1;fill-rule:nonzero;stroke:none"
       id="path46" />
    <path
       d="m -128.27703,659.83251 c -0.12549,-1.99854 -0.32129,-3.84668 -0.57373,-5.36133 -0.20166,-1.21436 -0.39697,-2.15869 -0.57178,-2.70752 -0.21582,0.28223 -0.5542,0.73096 -0.97412,1.28906 -0.88818,1.17871 -1.89844,2.7666 -2.87402,4.44629 1.70898,0.7583 3.37744,1.53516 4.99365,2.3335 0,0 0,0 0,0 z"
       style="fill:#ffffff;fill-opacity:1;fill-rule:nonzero;stroke:none"
       id="path48" />
    <path
       d="m -138.3327,655.35155 c -0.36572,-1.57373 -0.75634,-2.98926 -1.15087,-4.13672 -0.28321,-0.82519 -0.52735,-1.47363 -0.71631,-1.88428 -0.11035,0.20557 -0.26026,0.48145 -0.45996,0.81397 -0.55518,0.92822 -1.17188,2.18652 -1.78907,3.58838 1.38721,0.52978 2.76026,1.06885 4.11621,1.61865 0,0 0,0 0,0 z"
       style="fill:#ffffff;fill-opacity:1;fill-rule:nonzero;stroke:none"
       id="path50" />
    <path
       d="m -168.03484,645.11669 c 0.0215,-1.14063 -0.003,-2.12354 -0.0825,-2.88916 -0.0264,-0.24854 -0.0513,-0.46387 -0.0767,-0.64356 -0.0928,0.10352 -0.21386,0.22656 -0.37549,0.35742 -0.67577,0.54786 -1.49024,1.3462 -2.35937,2.28223 0.958,0.29492 1.92333,0.59229 2.89404,0.89307 0,0 0,0 0,0 z"
       style="fill:#ffffff;fill-opacity:1;fill-rule:nonzero;stroke:none"
       id="path52" />
    <path
       d="m -122.07391,682.29393 c -1.36865,0.69922 -6.53222,3.07617 -9.65527,2.57471 -3.28564,-0.52783 -4.2583,-4.19922 2.22266,-2.86182 0,0 3.18457,0.65723 3.18457,0.65723 0,0 4.24804,-0.37012 4.24804,-0.37012 0,0 0,0 0,0 z"
       style="fill:#231f20;fill-opacity:1;fill-rule:evenodd;stroke:none"
       id="path54" />
    <path
       d="m -201.01482,675.13378 c -1.16211,-2.31348 -1.67188,-4.9834 -1.31836,-7.73487 0.94336,-7.35449 7.71191,-12.58252 15.0664,-11.63818 3.67774,0.47168 6.82373,2.40039 8.93164,5.12988 1.92627,2.49365 2.98584,5.65918 2.79395,8.99268 0,0 -20.33887,5.95215 -20.33887,5.95215 0,0 0.4707,-2.62354 0.4707,-2.62354 0,0 -5.60546,1.92188 -5.60546,1.92188 0,0 0,0 0,0 z"
       style="fill:#231f20;fill-opacity:1;fill-rule:nonzero;stroke:none"
       id="path56" />
    <path
       d="m -198.3869,673.1577 c -0.95361,-1.86474 -1.37548,-4.02441 -1.08935,-6.25146 0.75439,-5.88037 6.16699,-10.06104 12.04736,-9.30615 5.69532,0.73095 9.79541,5.82958 9.36328,11.49121 0,0 -16.53662,4.83935 -16.53662,4.83935 0,0 0.39551,-2.20605 0.39551,-2.20605 0,0 -4.18018,1.4331 -4.18018,1.4331 0,0 0,0 0,0 z"
       style="fill:#ffffff;fill-opacity:1;fill-rule:evenodd;stroke:none"
       id="path58" />
    <path
       d="m -185.26629,669.19335 c -0.12109,0.94238 -0.37207,1.83105 -0.70019,2.64843 0,0 -5.87793,1.71973 -5.87793,1.71973 -0.51075,-1.49805 -0.85352,-3.35449 -0.60596,-5.28955 0.58398,-4.54346 4.14892,-7.85205 4.65088,-7.78711 0.50342,0.0644 3.11718,4.1665 2.5332,8.7085 0,0 0,0 0,0 z"
       style="fill:#231f20;fill-opacity:1;fill-rule:evenodd;stroke:none"
       id="path60" />
  </g>
  <g
     transform="matrix(1.25,0,0,-1.25,448.13052,862.32916)"
     class="lower_jaw"
     id="g62"
     style="opacity:0">
    <path
       d="m -158.67254,620.29882 c -0.59668,2.19189 -1.27637,4.20312 -1.94678,5.74267 -0.81347,1.86572 -1.71924,3.14746 -2.6123,3.45801 0,0 -0.47901,0.0684 -0.47901,0.0684 -0.94677,-0.0547 -1.90136,-1.02344 -2.79394,-2.5083 -0.28272,-0.47071 -0.57129,-1.00293 -0.86231,-1.57617 -0.0654,0.66601 -0.14502,1.2832 -0.23925,1.83886 -0.29883,1.75977 -0.81153,3.04004 -1.53858,3.53907 0,0 -0.44824,0.19189 -0.44824,0.19189 -0.90186,0.19092 -2.03174,-0.44873 -3.23682,-1.58203 -0.91455,-0.85986 -1.94531,-2.02344 -2.9624,-3.2876 -3.04053,2.41797 -5.94482,5.86279 -8.87744,9.34473 -1.84473,2.1875 -3.69922,4.38769 -5.63184,6.3916 -3.81884,3.95654 -7.17675,6.35547 -10.09423,7.47754 -2.771,1.06689 -5.17774,1.01562 -7.2334,0.0688 -2.01465,-0.93116 -3.62451,-2.71094 -4.85303,-5.1333 -1.729,-3.40625 -2.71484,-8.13965 -3.02246,-13.54541 -0.0864,-1.50977 -0.0674,-2.95069 0.0493,-4.32471 0.64013,-7.5127 4.21629,-12.771 9.74706,-16.27344 5.40235,-3.42041 12.64551,-5.11816 20.79736,-5.58203 4.57667,-0.26172 9.45606,-0.13379 14.4624,0.29297 6.1958,0.52881 10.60596,-0.31104 15.74122,-1.28711 4.76953,-0.90625 10.14697,-1.92871 18.00049,-2.13867 6.75341,-0.18164 11.28662,1.67041 13.48731,4.14355 0.95312,1.0708 1.4951,2.26172 1.61961,3.47949 0.12843,1.23584 -0.17284,2.48047 -0.90917,3.63526 -0.93995,1.47656 -2.62451,2.79931 -5.05274,3.72119 0.061,1.82715 0.0239,3.49023 -0.11865,4.80713 -0.18456,1.7041 -0.60596,2.96289 -1.28467,3.49853 0,0 -0.43505,0.22022 -0.43505,0.22022 -1.00976,0.28613 -2.44629,-0.53272 -3.99903,-1.92822 -1.45069,-1.30274 -3.13769,-3.13916 -4.63233,-4.9336 -0.0288,0.002 -0.0586,0.005 -0.0889,0.007 -0.56398,1.92041 -1.18214,3.64795 -1.78663,4.96972 -0.76172,1.66553 -1.60547,2.80127 -2.45068,3.09473 0,0 -0.47804,0.0684 -0.47804,0.0684 -0.96532,-0.0557 -1.94043,-1.06396 -2.85107,-2.59912 -0.58301,-0.98242 -1.19774,-2.23242 -1.78905,-3.57666 -0.47804,1.54248 -0.98828,2.93945 -1.49024,4.06445 -0.78663,1.76416 -1.66163,2.9707 -2.52979,3.27344 0,0 -0.47901,0.0679 -0.47901,0.0679 -0.97264,-0.0562 -1.96092,-1.0874 -2.88232,-2.65332 -0.75585,-1.28564 -1.56348,-3.01025 -2.30272,-4.80176 -0.49904,0.0835 -1.00245,0.17139 -1.51271,0.26612 0,0 0,0 0,0 z"
       style="fill:#231f20;fill-opacity:1;fill-rule:nonzero;stroke:none"
       id="path64" />
    <path
       d="m -192.09344,640.18993 c 1.87158,-1.93848 3.69971,-4.10742 5.51709,-6.26367 4.76563,-5.65528 9.46094,-11.22803 15.1499,-12.99366 11.76954,-3.65185 18.99952,-4.20507 28.30909,-4.91748 3.05175,-0.23388 6.32959,-0.48437 10.06445,-0.86914 4.51855,-0.46484 7.31103,-1.97119 8.44678,-3.7539 0.41894,-0.65869 0.59375,-1.35791 0.52197,-2.04248 -0.0723,-0.70313 -0.4043,-1.41358 -0.99365,-2.07471 -1.76221,-1.98193 -5.61719,-3.45947 -11.56104,-3.29932 -7.73291,0.20703 -12.9624,1.20118 -17.60351,2.08399 -5.32666,1.0122 -9.90137,1.88232 -16.41407,1.32715 -4.88183,-0.41602 -9.64062,-0.53955 -14.10839,-0.28565 -7.76368,0.44287 -14.60401,2.02295 -19.60791,5.19238 -4.87598,3.08692 -8.0293,7.73194 -8.5962,14.37793 -0.10547,1.24414 -0.12109,2.56641 -0.042,3.9712 0.29004,5.08203 1.18994,9.479 2.7583,12.56982 0.97266,1.91699 2.19434,3.30225 3.6753,3.98486 1.44189,0.66553 3.19628,0.6753 5.28759,-0.1289 2.59424,-0.99854 5.64942,-3.20215 9.19629,-6.87842 0,0 0,0 0,0 z"
       style="fill-opacity:1;fill-rule:nonzero;stroke:none"
       class="colored"
       id="path66" />
    <path
       d="m -134.97625,617.84618 c 1.11133,1.26709 2.25049,2.46142 3.24219,3.35205 0.60009,0.53906 1.08398,0.96094 1.37158,1.19141 0.0674,-0.31397 0.13428,-0.79151 0.20019,-1.396 0.11231,-1.04346 0.15235,-2.34961 0.12159,-3.8042 -0.8545,0.19092 -1.77442,0.34033 -2.75977,0.44141 -0.74316,0.0767 -1.46826,0.14843 -2.17578,0.21533 0,0 0,0 0,0 z"
       style="fill:#ffffff;fill-opacity:1;fill-rule:nonzero;stroke:none"
       id="path68" />
    <path
       d="m -145.36248,618.69432 c 0.60303,1.39795 1.23437,2.70118 1.82324,3.69532 0.28076,0.47168 0.50635,0.84863 0.6543,1.0874 0.1831,-0.30322 0.42627,-0.78955 0.7124,-1.41309 0.4585,-1.00635 0.93311,-2.28467 1.3833,-3.72363 -0.7251,0.0571 -1.43555,0.11133 -2.13525,0.16455 -0.82715,0.0635 -1.63867,0.12647 -2.43799,0.18945 0,0 0,0 0,0 z"
       style="fill:#ffffff;fill-opacity:1;fill-rule:nonzero;stroke:none"
       id="path70" />
    <path
       d="m -154.62225,619.64452 c 0.63037,1.48291 1.29493,2.87549 1.91553,3.9292 0.29297,0.49902 0.53027,0.89502 0.68262,1.14209 0.20019,-0.32862 0.46826,-0.87403 0.78369,-1.57959 0.48828,-1.09424 0.99121,-2.49219 1.46387,-4.05908 -1.61524,0.1582 -3.21534,0.34033 -4.84571,0.56738 0,0 0,0 0,0 z"
       style="fill:#ffffff;fill-opacity:1;fill-rule:nonzero;stroke:none"
       id="path72" />
    <path
       d="m -166.22772,622.02001 c 0.61915,1.43847 1.26612,2.77002 1.86133,3.76074 0.2627,0.4375 0.47364,0.78613 0.6128,1.01123 0.21679,-0.354 0.50976,-0.95606 0.85107,-1.74072 0.49805,-1.14258 1.00732,-2.59131 1.48389,-4.20117 -1.52979,0.33154 -3.12354,0.71679 -4.80909,1.16992 0,0 0,0 0,0 z"
       style="fill:#ffffff;fill-opacity:1;fill-rule:nonzero;stroke:none"
       id="path74" />
    <path
       d="m -173.74773,624.73827 c 0.93554,1.15869 1.85058,2.19482 2.62597,2.9248 0.31934,0.30078 0.57959,0.54346 0.75684,0.7085 0.0923,-0.3291 0.19433,-0.83106 0.30273,-1.46631 0.18262,-1.07324 0.30567,-2.41113 0.36914,-3.896 -0.33056,0.0991 -0.66308,0.20166 -1.00049,0.30616 -1.03906,0.32324 -2.05517,0.80859 -3.05419,1.42285 0,0 0,0 0,0 z"
       style="fill:#ffffff;fill-opacity:1;fill-rule:nonzero;stroke:none"
       id="path76" />
  </g>
  <g
     id="g6289"
     transform="matrix(0.75533232,0,0,0.75533232,-318.26181,-7.1384455)"
     style="opacity:1"
     inkscape:transform-center-x="-155.64882"
     inkscape:transform-center-y="-22.057187">
    <path
       d="m 811.87201,137.07761 c -1.55567,-2.44447 -4.34401,-4.63403 -8.3628,-6.15895 0,0 -74.35986,-12.41566 -74.35986,-12.41566 -4.03857,-1.4436 -9.49658,-6.92466 -14.12402,-12.1245 -4.07594,15.47975 -12.66943,29.42248 -21.40137,42.2644 4.70655,0.96791 9.7295,1.58094 14.98534,1.88197 7.57618,0.43065 15.64675,0.2196 23.93262,-0.4856 10.25244,-0.87671 17.55175,0.51307 26.04859,2.12916 7.89477,1.50072 16.78931,3.18933 29.78612,3.53868 11.1731,0.29993 18.67896,-2.76306 22.32203,-6.85766 1.57324,-1.771 2.46973,-3.74085 2.67847,-5.75575 0.21082,-2.04673 -0.28785,-4.10667 -1.50512,-6.01609 z"
       style="fill:#231f20;fill-opacity:1;fill-rule:nonzero;stroke:none"
       id="path4790"
       inkscape:connector-curvature="0" />
    <path
       d="m 808.40033,139.29683 c -1.88087,-2.95092 -6.49951,-5.44482 -13.979,-6.21385 -6.17873,-0.63502 -11.60157,-1.0503 -16.65529,-1.43703 -15.40283,-1.17882 -27.36693,-2.09509 -46.84131,-8.13757 -6.31494,-1.95885 -11.8872,-6.7566 -17.25293,-12.5244 -3.96826,12.20361 -10.57543,23.43822 -17.54734,33.93677 4.02099,0.73606 8.27928,1.22058 12.72656,1.47546 7.39158,0.42187 15.26658,0.21645 23.34813,-0.47133 10.77539,-0.91955 18.34497,0.51966 27.16041,2.19508 7.67942,1.46117 16.33227,3.10473 29.12915,3.44862 9.83934,0.26586 16.21581,-2.17969 19.12938,-5.45911 0.97558,-1.09535 1.5271,-2.26978 1.64795,-3.43433 0.11857,-1.1316 -0.17145,-2.28956 -0.86571,-3.37831 z"
       style="fill:#ffffff;fill-opacity:1;fill-rule:nonzero;stroke:none"
       id="path4792"
       inkscape:connector-curvature="0" />
    <path
       d="m 664.82221,46.097625 c -2.58179,-4.514287 -4.79885,-6.87195 -7.24878,-7.165282 -2.48072,-0.29664 -4.65602,1.408455 -7.07301,5.031742 -0.91625,-0.03285 -1.8369,-0.05062 -2.76856,-0.05152 -2.37303,-4.720837 -4.45164,-7.133422 -7.04443,-7.148812 0,0 -0.009,0 -0.009,0 -2.729,-0.0135 -5.24707,2.77515 -8.52759,8.473747 -0.52076,0.08347 -1.04589,0.172575 -1.56886,0.263678 -4.0891,-4.747185 -6.99388,-6.93126 -9.59985,-6.49071 -2.88281,0.487777 -4.5659,3.816652 -6.1765,10.071157 0,0 0.25268,0.06593 0.25268,0.06593 -0.54932,0.158175 -1.09424,0.319702 -1.63917,0.484492 0,0 0.4043,-0.36144 0.4043,-0.36144 -3.59692,-4.053959 -6.37207,-5.813977 -9.06151,-5.017477 -3.52004,1.03932 -5.94142,7.241107 -6.33693,10.551285 -0.78221,0.301027 -1.56006,0.606442 -2.33349,0.914062 0,0 -1.27002,-0.627322 -1.27002,-0.627322 -4.49779,-3.010253 -7.61132,-4.069328 -9.97998,-2.961923 -1.81933,1.666643 -3.03442,5.254763 -3.84082,10.154677 -2.39942,1.128285 -6.20946,-7.835467 -12.01684,-4.647217 -2.48949,1.365593 -3.43434,5.36022 -3.77051,12.601305 0,0 0.0158,0.0011 0.0158,0.0011 -0.0659,0.0351 -0.1296,0.0702 -0.19552,0.103275 -5.52173,-2.824582 -9.0835,-3.660637 -11.43678,-2.136847 -2.26536,1.471072 -2.89379,4.724122 -2.55762,10.093139 -0.21532,0.12735 -0.42187,0.25488 -0.63281,0.380138 -5.44482,-3.234375 -8.96483,-4.491225 -11.37303,-3.101445 -2.41479,1.399657 -3.01025,5.013067 -2.55103,11.478509 -0.65479,0.366953 -1.31615,0.736088 -1.97972,1.101938 -4.77687,-2.731208 -8.00026,-3.620003 -10.3008,-2.399423 -2.34668,1.24695 -3.22998,4.294553 -3.2937,9.409792 -0.37573,0.182475 -0.75366,0.36585 -1.1316,0.548213 -4.80321,-3.236557 -8.04199,-4.602172 -10.437,-3.59361 -2.5005,1.05138 -3.44532,4.213237 -3.52002,9.975584 -0.76025,0.33068 -1.52491,0.66246 -2.28955,0.99207 -5.33936,-3.343147 -8.87695,-4.642837 -11.39063,-3.601334 -2.64771,1.098634 -3.64086,4.271494 -3.7617,9.818484 -0.31203,0.1242 -0.62404,0.245 -0.93605,0.36585 -4.72412,-3.30689 -7.94092,-4.79223 -10.35351,-3.98585 -2.58399,0.86573 -3.65406,3.82873 -3.87598,9.34058 -0.13624,0.0506 -0.27245,0.099 -0.40869,0.1494 -4.20118,-3.42774 -7.19604,-4.77466 -9.65698,-3.88697 -2.47633,0.89649 -3.83204,3.81225 -4.7439,8.89893 -0.3274,0.10755 -0.65038,0.21533 -0.97339,0.3252 -4.4143,-4.24843 -7.48168,-6.21167 -10.09643,-5.45583 -2.65869,0.77126 -4.08253,4.06825 -5.13063,10.31947 -7.25755,2.21594 -14.17455,4.1825 -20.52904,5.84802 0,0 -0.32081,3.61231 -0.32081,3.61231 36.11426,16.56189 56.6543,15.26769 82.62378,12.64196 5.43384,-0.26147 10.8479,-0.81079 16.24,-1.58971 8.31884,-0.71962 17.42432,-1.27553 27.78221,-1.26453 10.64356,0.009 22.71535,1.09094 35.23975,2.21155 47.79931,4.27806 102.0586,9.13622 114.81592,-41.30971 1.73583,-6.860944 1.90283,-13.742794 0.64818,-20.477404 -1.28538,-6.899422 -4.05835,-13.623052 -8.15184,-20.000609 -6.50171,-10.124999 -15.41601,-16.065314 -25.72778,-18.952514 0,0 0,0 0,0 z"
       style="fill:#231f20;fill-opacity:1;fill-rule:nonzero;stroke:none"
       id="path4794"
       inkscape:connector-curvature="0" />
    <path
       d="m 524.81684,93.239961 c 0.12308,-2.358765 0.4768,-3.707888 1.18213,-4.08033 0.75805,-0.402098 2.20824,0.0022 4.48022,1.16784 -1.8479,0.976702 -3.73754,1.948972 -5.66235,2.91249 0,0 0,0 0,0 z m -15.1062,7.142199 c 0.0988,-2.894897 0.42846,-4.420892 1.1184,-4.714225 0.77565,-0.32301 2.36426,0.37683 4.88014,1.97424 -1.97316,0.92394 -3.97705,1.836923 -5.99854,2.739985 0,0 0,0 0,0 z m -17.45289,7.38391 c 0.1341,-2.82786 0.52296,-4.38464 1.34473,-4.7263 0.94923,-0.39112 2.74439,0.26257 5.57226,1.89403 -2.28953,0.9591 -4.59668,1.90392 -6.91699,2.83227 0,0 0,0 0,0 z m -15.14135,5.83265 c 0.1626,-2.65869 0.51855,-4.03749 1.18872,-4.26051 0.8086,-0.27135 2.36866,0.44276 4.78124,2.01929 -1.99071,0.75917 -3.97923,1.50624 -5.96996,2.24122 0,0 0,0 0,0 z m -14.52393,5.17127 c 0.51637,-2.30823 1.09644,-3.59035 1.8567,-3.86719 0.78223,-0.28125 2.10498,0.32519 4.0891,1.79737 -1.98853,0.7042 -3.97264,1.39306 -5.9458,2.06982 0,0 0,0 0,0 z m -16.27513,5.33495 c 0.63281,-3.3739 1.26121,-5.11414 2.083,-5.35034 0.84594,-0.245 2.42139,0.83826 4.88671,3.12451 -2.34668,0.76356 -4.67138,1.50513 -6.96971,2.22583 0,0 0,0 0,0 z M 569.17962,68.147174 c 0.28125,-4.324207 0.74709,-6.637927 1.64356,-7.13232 0.82179,-0.449347 2.75098,0.700943 6.0293,3.259643 -2.63232,1.283197 -5.19433,2.580682 -7.67286,3.872677 0,0 0,0 0,0 z m -14.39647,7.940925 c -0.0747,-2.645505 0.17798,-4.178093 0.89647,-4.646115 0.78662,-0.50868 2.46535,-0.09562 5.22072,1.164555 -2.13575,1.187617 -4.1792,2.352172 -6.11719,3.48156 0,0 0,0 0,0 z m -14.58544,8.833004 c -0.20205,-3.630982 -0.005,-5.572259 0.76025,-6.017197 0.78662,-0.453735 2.64989,0.287843 5.73046,2.04345 -0.5691,0.352665 -1.125,0.70092 -1.66552,1.038195 -1.56006,0.98109 -3.17286,1.961077 -4.82519,2.935552 0,0 0,0 0,0 z M 654.96086,44.2695 c 0.86574,-1.079955 1.57107,-1.589715 2.16653,-1.518322 0.69212,0.08235 1.48972,0.798705 2.45653,2.157727 -1.51612,-0.27027 -3.05859,-0.480105 -4.62306,-0.639405 0,0 0,0 0,0 z m -17.94505,0.287843 c 1.65015,-2.654303 2.80591,-3.95838 3.65846,-3.953993 0,0 -0.009,0 -0.009,0 0.73827,0.0045 1.63914,1.154678 2.83446,3.41127 -2.13793,0.105525 -4.30223,0.290025 -6.48412,0.542723 0,0 0,0 0,0 z m -34.24439,8.615474 c 1.14478,-3.223395 2.1006,-4.942754 3.07397,-5.229494 0.83498,-0.246083 2.14673,0.69984 4.09572,2.770762 -2.40163,0.772335 -4.79225,1.595205 -7.16969,2.458732 0,0 0,0 0,0 z M 619.07294,48.0378 c 0.94261,-3.334342 1.71605,-5.080072 2.55103,-5.219595 0.8745,-0.14715 2.33568,1.026113 4.59447,3.524423 -2.37084,0.49986 -4.75708,1.068952 -7.1455,1.695172 0,0 0,0 0,0 z m -34.17187,12.447517 c 0.29664,-2.882812 0.76464,-4.491202 1.56444,-4.86585 0.84596,-0.394402 2.48731,0.27027 5.11745,1.945688 -2.25441,0.949207 -4.48682,1.92591 -6.68189,2.920162 0,0 0,0 0,0 z"
       style="fill:#ffffff;fill-opacity:1;fill-rule:nonzero;stroke:none"
       id="path4796"
       inkscape:connector-curvature="0" />
    <path
       d="m 651.7309,47.889503 c 0,0 0.6284,0.369135 0.6284,0.369135 0.0637,-0.108675 0.12533,-0.21195 0.1845,-0.315315 3.35961,0.236205 6.61376,0.724005 9.73388,1.495237 0.0747,0.140625 0.1494,0.28125 0.2241,0.422977 0,0 0.46582,-0.2439 0.46582,-0.2439 9.82177,2.580683 18.27245,8.051895 24.34131,17.50122 3.83861,5.973277 6.4292,12.237682 7.62012,18.629526 1.15137,6.186398 0.99536,12.517807 -0.60205,18.841547 -1.33594,5.28993 -3.18823,9.92396 -5.4756,13.9878 -32.59422,-15.83021 -69.23583,-4.3385 -108.1516,7.8662 -19.86548,6.22926 -40.33521,12.64855 -61.06421,15.63354 -4.46263,0.38563 -8.69238,0.8174 -12.7661,1.23597 -1.02393,0.10327 -2.03467,0.20655 -3.04103,0.30872 -1.01513,0.0495 -2.03465,0.09 -3.0542,0.11858 0,0 0.009,0.18562 0.009,0.18562 -22.88672,2.23902 -41.97656,2.87402 -72.87891,-10.39527 19.16676,-5.26243 42.46657,-12.88586 64.82153,-21.81334 20.07862,-8.01783 39.41455,-17.09692 54.33619,-26.474852 18.62181,-11.702632 56.50927,-32.701903 89.75389,-36.78113 2.88063,-0.353768 5.72607,-0.57897 8.52321,-0.656978 0.0113,0.02295 0.0203,0.045 0.0308,0.06818 0,0 0.1647,-0.07245 0.1647,-0.07245 2.09619,-0.0549 4.16162,-0.02745 6.1963,0.0891 0,0 0,0 0,0 z"
       style="fill:#ffffff;fill-opacity:1;fill-rule:nonzero;stroke:none"
       id="path4798"
       inkscape:connector-curvature="0" />
    <path
       d="m 582.85541,129.79805 c 0.58887,1.99512 1.62378,4.8307 2.89161,7.51905 0.76903,1.63696 2.29394,4.13415 3.74193,6.22156 -1.97752,-0.17257 -3.95068,-0.34938 -5.90843,-0.52404 -12.59694,-1.12831 -24.73684,-2.21486 -35.59131,-2.22694 -0.88772,0 -1.76222,0.002 -2.62793,0.0113 12.33983,-3.11353 24.51708,-6.93236 36.479,-10.68419 0.33838,-0.10665 0.67675,-0.21308 1.01513,-0.31752 0,0 0,0 0,0 z"
       style="fill:#ffffff;fill-opacity:1;fill-rule:nonzero;stroke:none"
       id="path4800"
       inkscape:connector-curvature="0" />
    <path
       d="m 599.60736,124.64107 c 0.65918,3.04211 1.79516,6.40175 3.25194,9.52625 1.44581,3.09814 4.39016,7.875 6.85548,10.87428 -5.89527,-0.31752 -11.82568,-0.77893 -17.70556,-1.28541 -1.57984,-2.10937 -3.62988,-5.35034 -4.52637,-7.25647 -1.25023,-2.65869 -2.2588,-5.41845 -2.8037,-7.27515 5.01856,-1.57104 9.99535,-3.12012 14.92821,-4.5835 0,0 0,0 0,0 z"
       style="fill:#ffffff;fill-opacity:1;fill-rule:nonzero;stroke:none"
       id="path4802"
       inkscape:connector-curvature="0" />
    <path
       d="m 621.5163,118.78866 c 0.51197,3.68262 1.83031,7.68274 3.39917,11.40492 2.21924,5.27892 5.68433,11.59056 7.7827,15.10728 -6.58959,0.29115 -13.3989,0.19328 -20.28075,-0.12532 -2.43018,-2.38075 -6.17432,-8.31337 -7.81128,-11.8202 -1.42162,-3.05091 -2.52466,-6.32592 -3.15309,-9.26367 6.78297,-1.98853 13.47366,-3.80676 20.06325,-5.3031 0,0 0,0 0,0 z"
       style="fill:#ffffff;fill-opacity:1;fill-rule:nonzero;stroke:none"
       id="path4804"
       inkscape:connector-curvature="0" />
    <path
       d="m 654.98723,142.35872 c -1.52928,-1.56555 -4.74169,-6.96643 -7.42675,-13.56262 -1.75781,-4.31872 -3.23437,-9.11095 -3.7793,-13.63732 15.08643,-1.30189 29.49831,0.2417 43.02906,6.71814 -7.47729,11.04566 -18.6482,17.23865 -31.82301,20.4818 0,0 0,0 0,0 z"
       style="fill:#ffffff;fill-opacity:1;fill-rule:nonzero;stroke:none"
       id="path4806"
       inkscape:connector-curvature="0" />
    <path
       d="m 641.85858,115.33786 c 0.56691,4.72741 2.09619,9.7108 3.91772,14.18335 2.34889,5.76673 5.26905,10.74022 7.27296,13.29016 -5.7964,1.2832 -11.96192,2.02806 -18.34937,2.38953 -1.66334,-2.76746 -5.5481,-9.90088 -8.00904,-15.75221 -1.53369,-3.64196 -2.81688,-7.54211 -3.28711,-11.07972 6.24904,-1.3612 12.40578,-2.41697 18.45484,-3.03111 0,0 0,0 0,0 z"
       style="fill:#ffffff;fill-opacity:1;fill-rule:nonzero;stroke:none"
       id="path4808"
       inkscape:connector-curvature="0" />
    <path
       d="m 606.99897,102.06527 c 2.83007,16.04772 -13.06935,32.1394 -12.66064,47.16322 4.61864,0.24939 8.15625,-3.05091 9.28564,-3.25087 -0.77344,0.13725 -1.57104,4.05286 -2.0149,8.46718 3.4497,-0.36916 7.30152,-4.37038 8.14966,-4.51868 0.27027,2.54113 -0.92725,6.34788 -0.63502,7.48278 27.72949,-12.97267 41.2229,-42.86756 40.54176,-52.49596 0,0 -42.6665,-2.84767 -42.6665,-2.84767 0,0 0,0 0,0 z"
       style="fill:#ffffff;fill-opacity:1;fill-rule:evenodd;stroke:none"
       id="path4810"
       inkscape:connector-curvature="0" />
    <path
       d="m 622.3974,146.76424 c -4.7461,-0.95031 -9.34717,-2.59936 -13.39454,-5.09656 -3.36181,-2.07642 -6.3457,-4.73949 -8.71216,-8.08153 0.68335,-1.58204 1.41066,-3.17835 2.13795,-4.77797 5.91944,-12.99573 9.09669,-20.71032 3.64746,-33.926867 0.8833,9.359257 -0.43506,18.716307 -7.14771,32.334947 -3.38598,7.43335 -6.71704,14.74806 -6.51929,22.07046 0,0 0.0484,1.76658 0.0484,1.76658 2.83446,0.15165 5.14158,0.0693 7.82226,-1.13708 -0.38892,2.21704 -0.59765,4.45826 -0.82177,6.69836 2.69383,-0.42408 4.19677,-1.02282 8.09032,-2.78174 -0.37793,2.34119 -0.30323,3.98144 0.29005,6.30176 12.09375,-5.65794 21.81004,-13.20885 29.98827,-23.79528 9.73829,-12.61449 14.6162,-23.53712 12.97705,-38.942147 -2.63891,12.388187 -5.06029,23.436047 -16.02247,36.594357 -3.44749,4.46155 -7.57615,8.8517 -12.38377,12.77271 0,0 0,0 0,0 z"
       style="fill:#231f20;fill-opacity:1;fill-rule:nonzero;stroke:none"
       id="path4812"
       inkscape:connector-curvature="0" />
    <path
       d="m 599.0141,136.67769 c 2.40601,3.01575 5.28662,5.4745 8.47046,7.43994 3.66723,2.26429 7.73658,3.87599 11.95092,4.93396 0,0 -8.04638,5.0713 -8.04638,5.0713 0,0 0.0659,-6.45777 0.0659,-6.45777 0,0 -7.5564,3.93091 -7.5564,3.93091 0,0 -0.60205,-7.52344 -0.60205,-7.52344 0,0 -6.98072,3.09816 -6.98072,3.09816 0,0 2.69825,-10.49306 2.69825,-10.49306 0,0 0,0 0,0 z"
       style="fill:#ffffff;fill-opacity:1;fill-rule:nonzero;stroke:none"
       id="path4814"
       inkscape:connector-curvature="0" />
    <path
       d="m 509.87104,116.12556 c 0.41967,16.28834 -17.68799,29.84767 -19.50953,44.7649 4.52858,0.93055 8.5188,-1.80835 9.66139,-1.838 -0.78223,0.018 -2.15113,3.77489 -3.24538,8.07493 3.46509,0.144 7.86841,-3.24205 8.72976,-3.26293 -0.1098,2.55542 -1.85891,6.14136 -1.74024,7.30812 29.34886,-8.71875 47.12255,-36.28676 47.87842,-45.90968 0,0 -41.77442,-9.13734 -41.77442,-9.13734 0,0 0,0 0,0 z"
       style="fill:#ffffff;fill-opacity:1;fill-rule:evenodd;stroke:none"
       id="path4816"
       inkscape:connector-curvature="0" />
    <path
       d="m 518.47553,162.61202 c -4.55494,-1.64245 -8.85937,-3.95617 -12.49366,-7.02686 -3.01685,-2.55102 -5.57226,-5.62828 -7.41796,-9.28235 0.91186,-1.46448 1.86548,-2.93224 2.82348,-4.4077 7.77614,-11.97511 12.0652,-19.1338 8.63525,-33.01173 -0.51635,9.38673 -3.2058,18.44385 -11.86303,30.91882 -4.44726,6.84889 -8.82641,13.58899 -9.71631,20.85975 0,0 -0.21308,1.75561 -0.21308,1.75561 2.77954,0.56909 5.07348,0.83056 7.90135,0.034 -0.70972,2.13793 -1.25023,4.31982 -1.80394,6.5039 2.72901,-0.0225 4.30225,-0.3911 8.41113,-1.55016 -0.71631,2.25549 -0.88551,3.89245 -0.64599,6.26989 12.80346,-3.80016 23.52831,-9.82836 33.18311,-19.08875 11.50488,-11.03026 17.94505,-21.10801 18.60644,-36.58666 -4.44287,11.86193 -8.47706,22.4275 -21.26954,33.81592 -4.06933,3.90233 -8.80225,7.6311 -14.1372,10.79626 0,0 0,0 0,0 z"
       style="fill:#231f20;fill-opacity:1;fill-rule:nonzero;stroke:none"
       id="path4818"
       inkscape:connector-curvature="0" />
    <path
       d="m 496.84345,149.17244 c 1.9314,3.33875 4.4165,6.1985 7.27515,8.61439 3.2915,2.78175 7.07519,4.979 11.08739,6.65001 0,0 -8.70775,3.81996 -8.70775,3.81996 0,0 1.02173,-6.37648 1.02173,-6.37648 0,0 -8.05518,2.76856 -8.05518,2.76856 0,0 0.51856,-7.52782 0.51856,-7.52782 0,0 -7.36304,2.02808 -7.36304,2.02808 0,0 4.22314,-9.9767 4.22314,-9.9767 0,0 0,0 0,0 z"
       style="fill:#ffffff;fill-opacity:1;fill-rule:nonzero;stroke:none"
       id="path4820"
       inkscape:connector-curvature="0" />
    <path
       d="m 754.53216,124.99812 c -0.82618,-0.13837 -1.66113,-0.28453 -2.50049,-0.44055 0,0 0,0 0,0"
       style="fill:#231f20;fill-opacity:1;fill-rule:nonzero;stroke:none"
       id="path4822"
       inkscape:connector-curvature="0" />
    <path
       d="m 786.18597,128.16549 c -0.0506,-0.002 -0.10103,-0.007 -0.14513,-0.0113"
       style="fill:#231f20;fill-opacity:1;fill-rule:nonzero;stroke:none"
       id="path4824"
       inkscape:connector-curvature="0" />
    <path
       d="m 597.88471,62.718847 c -3.09375,0.760252 -5.23388,2.95641 -4.80323,4.975695 0.44824,2.078617 3.45411,3.205822 6.69067,2.507085 1.39527,-0.298823 2.60815,-0.888795 3.50464,-1.630373 -0.088,0.02408 -0.1737,0.04073 -0.26368,0.06052 -3.23876,0.698715 -6.24021,-0.428467 -6.68846,-2.505982 -0.25488,-1.184333 0.37352,-2.425793 1.56006,-3.40686 0,0 0,0 0,0 z m -60.56104,37.544673 c -3.84741,1.56555 -6.16552,4.85705 -5.16357,7.33007 1.00636,2.46863 4.96361,3.208 8.81543,1.64027 0.82177,-0.33399 1.57104,-0.74489 2.23682,-1.2107 -3.51124,1.06677 -6.89283,0.25488 -7.80908,-2.00061 -0.79103,-1.94348 0.47459,-4.39344 2.92455,-6.113905 -0.33617,0.102155 -0.66796,0.219825 -1.00415,0.354875 0,0 0,0 0,0 z m 26.40674,-1.31288 c -4.63183,1.51832 -7.61573,5.17237 -6.64893,8.15076 0.96901,2.98498 5.55251,4.18909 10.20411,2.67957 1.22168,-0.39551 2.32909,-0.93933 3.28271,-1.58312 -0.0135,0.004 -0.0263,0.0113 -0.0419,0.0135 -4.65163,1.5106 -9.23731,0.30651 -10.20632,-2.68068 -0.7119,-2.20385 0.73391,-4.77465 3.41017,-6.579715 0,0 0,0 0,0 z m -5.2141,-16.568481 c -4.08033,2.694959 -5.99634,7.030169 -4.26929,9.649304 1.73144,2.619135 6.47314,2.55762 10.55126,-0.13725 0.005,-0.0045 0.0135,-0.009 0.018,-0.01125 -3.10252,0.990968 -6.04248,0.522945 -7.32568,-1.419435 -1.72706,-2.61693 0.18022,-6.94116 4.24951,-9.638302 -1.07665,0.34497 -2.17089,0.86463 -3.22338,1.557855 0,0 0,0 0,0 z m 22.87793,-6.546735 c -4.08254,2.69604 -5.99855,7.030147 -4.26931,9.650384 1.72706,2.619135 6.46875,2.55762 10.55129,-0.1395 0.005,-0.0022 0.009,-0.0067 0.0158,-0.009 -3.10035,0.99207 -6.04247,0.522945 -7.32787,-1.420537 -1.72706,-2.61693 0.18247,-6.94116 4.24951,-9.6372 -1.07226,0.343868 -2.16871,0.862425 -3.21899,1.556775 0,0 0,0 0,0 z m 7.32787,19.388654 c -4.5835,1.699582 -7.43556,5.486582 -6.3457,8.429832 1.08983,2.94322 5.72168,3.95835 10.30956,2.25877 1.01075,-0.37904 1.94238,-0.85363 2.76417,-1.40294 -4.4275,1.46117 -8.78028,0.41528 -9.83056,-2.42469 -0.85034,-2.293945 0.68994,-5.096567 3.57714,-7.026865 -0.15817,0.05265 -0.31642,0.10665 -0.47461,0.165825 0,0 0,0 0,0 z m 15.30616,-19.680907 c -3.56177,1.078875 -5.99416,3.524423 -5.73048,6.082043 0.32519,3.121222 4.55713,5.254762 9.42187,4.750492 2.26758,-0.235125 4.28027,-1.000868 5.75244,-2.069843 -0.7888,0.236205 -1.63037,0.40869 -2.51147,0.49878 -4.86475,0.505373 -9.09448,-1.628167 -9.41967,-4.749389 -0.17347,-1.668825 0.79981,-3.289298 2.48731,-4.512083 0,0 0,0 0,0 z M 619.77386,59.75913 c -3.55957,1.079954 -5.99634,3.524399 -5.73046,6.082019 0.32081,3.122325 4.55713,5.256968 9.42188,4.751595 2.26536,-0.235102 4.28026,-1.00305 5.75244,-2.070922 -0.79101,0.238387 -1.63038,0.40869 -2.51148,0.500962 -4.86695,0.50427 -9.09888,-1.628167 -9.42187,-4.75047 -0.17348,-1.667745 0.80199,-3.28932 2.48949,-4.513184 0,0 0,0 0,0 z m 11.41699,15.015014 c -3.74413,1.20519 -6.31055,3.739747 -6.18968,6.544552 0.16043,3.75183 5.0603,6.606067 10.90721,6.355575 2.90259,-0.123075 5.50636,-0.989865 7.37184,-2.291738 -1.26124,0.405405 -2.65869,0.660285 -4.13087,0.7218 -5.84473,0.251595 -10.74463,-2.602665 -10.90723,-6.356677 -0.0792,-1.88856 1.05468,-3.652965 2.94873,-4.973512 0,0 0,0 0,0 z m 14.26246,-20.064329 c -4.07153,1.345815 -6.81592,4.19787 -6.50392,7.174057 0.39333,3.733155 5.45583,6.28308 11.27858,5.673352 2.56639,-0.269167 4.86036,-1.10853 6.5918,-2.28186 -1.0415,0.342765 -2.1665,0.586665 -3.35084,0.713003 -5.82056,0.608647 -10.88745,-1.939095 -11.27857,-5.674433 -0.21982,-2.087414 1.06787,-4.115474 3.26295,-5.604119 0,0 0,0 0,0 z M 454.89326,126.53402 c -3.31128,0.92176 -5.58545,3.208 -5.26246,5.50195 0.37355,2.62023 4.00781,4.28796 8.09035,3.71009 1.87207,-0.26478 3.52001,-0.9569 4.7241,-1.87866 -0.47459,0.13185 -0.97119,0.2351 -1.48095,0.30872 -4.0869,0.57897 -7.71899,-1.08875 -8.09033,-3.70899 -0.20216,-1.42164 0.59765,-2.83887 2.01929,-3.93311 0,0 0,0 0,0 z m 21.32446,-5.06799 c -2.78833,0.62512 -4.76367,2.48949 -4.5,4.35717 0.29003,2.02369 3.08937,3.31018 6.24463,2.86303 1.604,-0.2274 2.99927,-0.86242 3.94189,-1.70068 -0.22851,0.0515 -0.46362,0.0979 -0.70092,0.1296 -3.15308,0.44824 -5.95679,-0.83936 -6.24245,-2.86083 -0.14062,-0.99097 0.35157,-1.98194 1.25685,-2.78834 0,0 0,0 0,0 z m 16.47729,-6.07984 c -4.29786,1.74573 -6.88403,5.41955 -5.76562,8.17931 1.12279,2.7543 5.53929,3.57827 9.83715,1.82923 0.84596,-0.34387 1.62599,-0.76243 2.3247,-1.23376 -3.99462,1.2865 -7.87718,0.39442 -8.92089,-2.1654 -0.89867,-2.21376 0.58887,-5.01856 3.43652,-6.94227 -0.30542,0.0979 -0.60863,0.20768 -0.91186,0.33289 0,0 0,0 0,0 z"
       style="fill:#231f20;fill-opacity:1;fill-rule:evenodd;stroke:none"
       id="path4826"
       inkscape:connector-curvature="0" />
    <path
       d="m 717.12591,110.26436 c 0.0968,3.02785 0.33399,5.84694 0.75366,7.9585 0.48559,2.45216 1.36451,4.16052 2.74878,4.67469 0,0 0.87892,0.11767 0.87892,0.11767 1.18212,-0.088 2.61913,-0.99866 4.18358,-2.52358 1.27442,-1.24254 2.729,-2.92016 4.25392,-4.88891 1.23925,0.51307 2.4873,1.02724 3.73754,1.54028 -0.7229,2.59387 -1.27442,4.99329 -1.52271,6.86867 -0.32519,2.46204 -0.088,4.36705 0.95362,5.32836 0,0 0.78003,0.45812 0.78003,0.45812 1.37328,0.42188 3.54638,-0.25816 6.15892,-1.73803 2.17091,-1.23267 4.85597,-3.07067 7.72778,-5.27452 0.38453,0.1494 0.76685,0.29772 1.14919,0.44714 -0.43947,1.83251 -0.74927,3.48926 -0.87453,4.82958 -0.19327,2.06982 0.0988,3.67054 1.04591,4.54725 0,0 0.78222,0.45592 0.78222,0.45592 1.25246,0.38673 3.12891,-0.12735 5.37671,-1.31506 1.72485,-0.91516 3.81006,-2.2522 6.06665,-3.88037 0.79981,0.29115 1.59961,0.57568 2.39942,0.85583 -0.76684,2.64771 -1.37549,5.15149 -1.69189,7.17847 -0.42628,2.76856 -0.24171,4.91638 0.86571,5.94031 0,0 0.78224,0.45813 0.78224,0.45813 1.51171,0.46581 4.09131,-0.46803 7.19383,-2.35656 2.43457,-1.47546 5.36135,-3.56947 8.41773,-6.00732 -0.59544,3.442 -1.0393,6.84996 -1.17113,9.5625 -0.16695,3.48484 0.30103,6.13476 1.74902,7.05541 0,0 0.85034,0.30103 0.85034,0.30103 1.68529,0.20992 4.47142,-1.42493 7.68823,-4.19897 2.4961,-2.15332 5.41845,-5.04603 8.35182,-8.27382 0.69871,0.14715 1.39524,0.29334 2.0808,0.42957 3.43651,0.68445 6.61376,1.00744 9.53174,1.01293 7.3037,0.0135 13.05175,-1.9303 17.23315,-5.07676 0,0 -0.002,0.007 -0.002,0.007 4.2583,-3.20583 6.87305,-7.63772 7.84424,-12.51345 0.28564,-1.43041 0.43067,-2.8872 0.43506,-4.36266 0.009,-4.05285 -1.292,-7.93982 -3.47607,-11.42689 -2.78174,-4.43297 -7.00049,-8.245237 -11.75537,-10.939072 -4.76368,-2.699347 -10.11402,-4.298962 -15.14356,-4.309942 -3.33106,-0.0067 -6.51928,0.676755 -9.32519,2.18628 -0.7207,-0.304313 -1.37549,-0.571298 -2.10938,-0.874508 -11.63673,-4.780147 -41.04053,-16.857427 -45.65038,-30.669434 -2.67408,-12.133304 -9.99317,-20.541149 -19.32277,-24.897216 -6.03808,-2.81799 -12.90672,-3.924315 -19.88526,-3.234375 -6.94334,0.688838 -14.00537,3.155265 -20.46093,7.483882 -12.70458,8.520997 -23.08885,24.262199 -25.61792,47.855338 0,0 -0.2263,2.102783 -0.2263,2.102783 0,0 2.10717,0.1746 2.10717,0.1746 11.05663,0.916267 30.9287,9.230714 53.76489,18.788824 0.1143,0.0495 0.22851,0.0945 0.34277,0.14288 0,0 0,0 0,0 z"
       style="fill:#231f20;fill-opacity:1;fill-rule:nonzero;stroke:none"
       id="path4828"
       inkscape:connector-curvature="0" />
    <path
       d="m 665.47698,87.467743 c 2.7378,-21.103649 12.15747,-35.189211 23.58106,-42.851068 5.87549,-3.938602 12.27393,-6.180907 18.5559,-6.801637 6.24684,-0.618547 12.37721,0.363645 17.74292,2.868525 8.25514,3.8529 14.73048,11.346682 17.07716,22.200074 0,0 0.0526,0.215325 0.0526,0.215325 5.16357,15.637949 35.87035,28.250256 48.01903,33.241341 1.39747,0.571275 2.5796,1.059075 3.01466,1.244745 0,0 0.99756,0.426262 0.99756,0.426262 0,0 0.90965,-0.571275 0.90965,-0.571275 2.3423,-1.465582 5.11963,-2.12256 8.05957,-2.114865 4.29786,0.009 8.9341,1.41723 13.12207,3.790283 4.19678,2.376337 7.89698,5.698597 10.2964,9.532817 1.79734,2.86304 2.86522,6.00294 2.85644,9.21643 0,1.21619 -0.11857,2.41151 -0.35156,3.56947 -0.77785,3.91003 -2.86963,7.45972 -6.28418,10.02611 0,0 -0.005,0.009 -0.005,0.009 -3.49146,2.62573 -8.39356,4.25061 -14.72828,4.23743 -2.66969,-0.004 -5.58326,-0.29772 -8.74291,-0.92835 -1.19972,-0.2406 -2.40822,-0.49548 -3.62111,-0.76575 0,0 -0.50757,-0.44055 -0.50757,-0.44055 -0.079,0.0911 -0.15593,0.18023 -0.23511,0.27027 -24.37645,-5.5426 -52.34764,-17.24964 -76.9043,-27.52625 -21.81662,-9.12854 -40.9614,-17.137572 -52.90575,-18.848134 0,0 0,0 0,0 z"
       style="fill:#ffffff;fill-opacity:1;fill-rule:nonzero;stroke:none"
       id="path4830"
       inkscape:connector-curvature="0" />
    <path
       d="m 743.26459,121.01009 c -1.938,1.41066 -3.73095,2.59497 -5.25366,3.45631 -0.78883,0.45043 -1.44801,0.8042 -1.93579,1.04369 0.0594,-0.25157 0.12307,-0.5702 0.17145,-0.94921 0.21082,-1.59741 0.67237,-3.63319 1.2744,-5.85461 1.90723,0.77233 3.82324,1.54028 5.74366,2.30382 0,0 0,0 0,0 z"
       style="fill:#ffffff;fill-opacity:1;fill-rule:nonzero;stroke:none"
       id="path4832"
       inkscape:connector-curvature="0" />
    <path
       d="m 756.58441,126.13741 c -1.20411,0.80091 -2.30274,1.46777 -3.25854,1.97314 -0.46803,0.24831 -0.86792,0.45373 -1.19752,0.61524 0.0135,-0.0801 0.0286,-0.17145 0.0351,-0.27027 0.0968,-1.02173 0.32737,-2.29723 0.65477,-3.73205 1.25685,0.47682 2.50929,0.95033 3.76612,1.41394 0,0 0,0 0,0 z"
       style="fill:#ffffff;fill-opacity:1;fill-rule:nonzero;stroke:none"
       id="path4834"
       inkscape:connector-curvature="0" />
    <path
       d="m 792.10979,137.32808 c -2.27196,2.4115 -4.47802,4.55274 -6.40283,6.21277 -1.54248,1.32934 -2.79051,2.32362 -3.59473,2.83668 0.0263,-0.58558 0.0702,-1.51501 0.12307,-2.66969 0.12308,-2.43785 0.51856,-5.52721 1.05469,-8.69677 2.97511,0.84375 5.91944,1.62158 8.81982,2.31701 0,0 0,0 0,0 z"
       style="fill:#ffffff;fill-opacity:1;fill-rule:nonzero;stroke:none"
       id="path4836"
       inkscape:connector-curvature="0" />
    <path
       d="m 774.57561,132.38094 c -2.12695,1.61718 -4.12207,3.00147 -5.84033,4.04408 -1.23487,0.74925 -2.23243,1.31506 -2.90477,1.63804 0.0747,-0.37683 0.17797,-0.88879 0.27684,-1.5216 0.27686,-1.7699 0.82179,-4.02098 1.5205,-6.45665 2.32911,0.79211 4.64504,1.56224 6.94776,2.29613 0,0 0,0 0,0 z"
       style="fill:#ffffff;fill-opacity:1;fill-rule:nonzero;stroke:none"
       id="path4838"
       inkscape:connector-curvature="0" />
    <path
       d="m 725.96551,113.95688 c -1.17774,1.47436 -2.25219,2.69932 -3.16186,3.58704 -0.29664,0.28564 -0.55591,0.53613 -0.77783,0.73717 -0.009,-0.22962 -0.0351,-0.51525 -0.10102,-0.85145 -0.28125,-1.41284 -0.47021,-3.2915 -0.58446,-5.40196 1.5293,0.64049 3.07397,1.28649 4.62523,1.9292 0,0 0,0 0,0 z"
       style="fill:#ffffff;fill-opacity:1;fill-rule:nonzero;stroke:none"
       id="path4840"
       inkscape:connector-curvature="0" />
    <path
       d="m 823.78117,115.32906 c -1.00195,-2.33898 -5.0537,-10.82812 -9.55591,-13.49779 -4.73949,-2.805907 -9.86132,0.83385 -0.20205,5.99524 0,0 4.7439,2.53453 4.7439,2.53453 0,0 5.01415,4.96802 5.01415,4.96802 0,0 0,0 0,0 z"
       style="fill:#231f20;fill-opacity:1;fill-rule:evenodd;stroke:none"
       id="path4842"
       inkscape:connector-curvature="0" />
    <path
       d="m 715.79877,40.867028 c -3.92652,1.710585 -7.40041,4.565925 -9.86573,8.440807 -6.58521,10.352407 -3.51124,24.166619 6.84229,30.751829 5.17676,3.293684 11.21924,4.169294 16.78709,2.930039 5.09547,-1.133774 9.79104,-4.036364 13.07813,-8.479237 0,0 -19.56884,-29.102781 -19.56884,-29.102781 0,0 -2.17968,3.834225 -2.17968,3.834225 0,0 -5.09326,-8.374882 -5.09326,-8.374882 0,0 0,0 0,0 z"
       style="fill:#231f20;fill-opacity:1;fill-rule:nonzero;stroke:none"
       id="path4844"
       inkscape:connector-curvature="0" />
    <path
       d="m 738.03948,72.024261 c -2.50049,3.67272 -6.23363,6.063345 -10.29638,6.96753 -4.22755,0.938228 -8.80664,0.273555 -12.73095,-2.220345 -7.84863,-4.99329 -10.18213,-15.467647 -5.18994,-23.318481 1.91821,-3.013538 4.64062,-5.2119 7.71239,-6.496222 0,0 3.31348,5.451434 3.31348,5.451434 0,0 1.83252,-3.2256 1.83252,-3.2256 0,0 15.35888,22.841684 15.35888,22.841684 0,0 0,0 0,0 z"
       style="fill:#f47216;fill-opacity:1;fill-rule:nonzero;stroke:none"
       id="path4846"
       inkscape:connector-curvature="0" />
    <path
       d="m 717.05121,46.162448 c -3.19043,1.362307 -6.01173,3.659534 -8.00685,6.795044 -5.26464,8.277097 -2.80809,19.326037 5.47119,24.589597 8.01783,5.099849 18.63063,2.955307 24.07324,-4.702163 0,0 -15.90819,-23.662349 -15.90819,-23.662349 0,0 -1.83252,3.2256 -1.83252,3.2256 0,0 -3.79687,-6.245729 -3.79687,-6.245729 0,0 0,0 0,0 z"
       style="fill:#ffffff;fill-opacity:1;fill-rule:evenodd;stroke:none"
       id="path4848"
       inkscape:connector-curvature="0" />
    <path
       d="m 729.54046,65.092979 c 0.84375,-1.326037 1.46338,-2.725695 1.91163,-4.109985 0,0 -5.65576,-8.410027 -5.65576,-8.410027 -2.23463,1.36449 -4.63624,3.36402 -6.36989,6.08643 -4.06714,6.396232 -3.03662,14.377792 -2.3269,14.827139 0.70753,0.45153 8.37598,-1.998405 12.44092,-8.393557 0,0 0,0 0,0 z"
       style="fill:#231f20;fill-opacity:1;fill-rule:evenodd;stroke:none"
       id="path4850"
       inkscape:connector-curvature="0" />
    <path
       d="m 730.42816,60.702847 c -1.05908,0.351562 -2.0127,1.053585 -2.65431,2.06433 -1.48095,2.32911 -0.79101,5.43933 1.54249,6.922485 2.12695,1.352407 4.9021,0.89208 6.49951,-0.973395 0,0 -5.38769,-8.01342 -5.38769,-8.01342 0,0 0,0 0,0 z"
       style="fill:#ffffff;fill-opacity:1;fill-rule:evenodd;stroke:none"
       id="path4852"
       inkscape:connector-curvature="0" />
    <path
       d="m 709.00701,99.356045 c -3.05199,-3.620002 -6.11937,-7.261964 -9.3186,-10.577632 -6.31714,-6.546757 -11.87401,-10.515014 -16.70141,-12.372817 -4.58789,-1.765485 -8.57153,-1.681987 -11.96852,-0.1143 -3.33544,1.540283 -5.99852,4.485713 -8.03319,8.493525 -2.86083,5.638185 -4.49121,13.471447 -5.00099,22.415419 -0.1449,2.50049 -0.11205,4.88342 0.0812,7.15759 1.05907,12.43102 6.97851,21.1333 16.13011,26.92748 5.45362,3.45521 12.04981,5.84253 19.42823,7.35755 8.73194,-12.84192 17.32543,-26.78466 21.40137,-42.26441 -2.30713,-2.58727 -4.40332,-5.10754 -6.01832,-7.02245 z"
       style="fill:#231f20;fill-opacity:1;fill-rule:nonzero;stroke:none"
       id="path4854"
       inkscape:connector-curvature="0" />
    <path
       d="m 706.32415,102.00594 c -3.03662,-3.567265 -6.0952,-7.15759 -9.22412,-10.364492 -5.9348,-6.084225 -11.04565,-9.730597 -15.38304,-11.381849 -3.49806,-1.331528 -6.43361,-1.315058 -8.84619,-0.213075 -2.47194,1.129387 -4.5176,3.422227 -6.14577,6.593984 -2.62134,5.113035 -4.12866,12.391492 -4.61425,20.800412 -0.13185,2.3247 -0.10553,4.51319 0.0702,6.57093 0.94921,10.99732 6.22264,18.68665 14.37889,23.79309 5.47119,3.42882 12.26075,5.72718 19.93361,7.11585 7.04443,-10.49854 13.72191,-21.73315 17.73632,-33.93677 -2.66749,-2.83117 -5.28003,-5.89527 -7.90576,-8.97804 z"
       style="fill:#ffffff;fill-opacity:1;fill-rule:nonzero;stroke:none"
       id="path4856"
       inkscape:connector-curvature="0" />
  </g>
</svg>
