<?xml version="1.0" encoding="UTF-8" standalone="no"?>
<!-- Created with Inkscape (http://www.inkscape.org/) -->

<svg
   xmlns:dc="http://purl.org/dc/elements/1.1/"
   xmlns:cc="http://creativecommons.org/ns#"
   xmlns:rdf="http://www.w3.org/1999/02/22-rdf-syntax-ns#"
   xmlns:svg="http://www.w3.org/2000/svg"
   xmlns="http://www.w3.org/2000/svg"
   xmlns:sodipodi="http://sodipodi.sourceforge.net/DTD/sodipodi-0.dtd"
   xmlns:inkscape="http://www.inkscape.org/namespaces/inkscape"
   width="67.22551mm"
   height="22.296095mm"
   viewBox="0 0 238.20062 79.001911"
   id="svg2"
   version="1.1"
   inkscape:version="0.91 r13725"
   sodipodi:docname="logo.svg">
  <defs
     id="defs4" />
  <sodipodi:namedview
     id="base"
     pagecolor="#ffffff"
     bordercolor="#666666"
     borderopacity="1.0"
     inkscape:pageopacity="0.0"
     inkscape:pageshadow="2"
     inkscape:zoom="2.8"
     inkscape:cx="26.038436"
     inkscape:cy="-5.191889"
     inkscape:document-units="px"
     inkscape:current-layer="layer1"
     showgrid="false"
     inkscape:window-width="1920"
     inkscape:window-height="1137"
     inkscape:window-x="-8"
     inkscape:window-y="-8"
     inkscape:window-maximized="1"
     fit-margin-top="0"
     fit-margin-left="0"
     fit-margin-right="0"
     fit-margin-bottom="0" />
  <metadata
     id="metadata7">
    <rdf:RDF>
      <cc:Work
         rdf:about="">
        <dc:format>image/svg+xml</dc:format>
        <dc:type
           rdf:resource="http://purl.org/dc/dcmitype/StillImage" />
        <dc:title></dc:title>
      </cc:Work>
    </rdf:RDF>
  </metadata>
  <g
     inkscape:label="Layer 1"
     inkscape:groupmode="layer"
     id="layer1"
     transform="translate(19.060022,-990.89709)">
    <path
       style="font-style:normal;font-variant:normal;font-weight:bold;font-stretch:normal;font-size:medium;line-height:125%;font-family:'Comic Neue Angular';-inkscape-font-specification:'Comic Neue Angular Bold';letter-spacing:-3.18999815px;word-spacing:0px;fill:#ffffff;fill-opacity:1;stroke:none;stroke-width:1px;stroke-linecap:butt;stroke-linejoin:miter;stroke-opacity:1"
       d="m 132.7102,1016.3854 c 0,11.3856 0,22.7711 0,34.1567 8.31461,0 16.62922,0 24.94384,0 4.7173,-8.2178 1.92239,-11.0172 -7.148,-9.2996 -9.24458,3.6523 -12.65127,-7.5832 -1.74536,-4.9052 6.9548,4.2604 12.30204,-8.0808 7.5541,-9.2516 -4.38397,0.4926 -20.3545,0.5273 -12.22665,-3.7394 6.2662,-0.8164 16.81413,3.3988 15.29099,-6.5743 0.49668,-5.9583 -11.61297,-1.193 -16.32224,-2.7229 -2.91874,1.0359 -11.25508,-2.3665 -10.34668,2.3363 z"
       id="path4539"
       inkscape:connector-curvature="0" />
    <path
       style="font-style:normal;font-variant:normal;font-weight:bold;font-stretch:normal;font-size:medium;line-height:125%;font-family:'Comic Neue Angular';-inkscape-font-specification:'Comic Neue Angular Bold';letter-spacing:-3.18999815px;word-spacing:0px;fill:#ffffff;fill-opacity:1;stroke:none;stroke-width:1px;stroke-linecap:butt;stroke-linejoin:miter;stroke-opacity:1"
       d="m 177.04922,1021.9751 c -5.73738,0.9809 -13.07246,-0.6289 -16.96081,5.1198 -5.02542,6.0863 -4.5514,16.6562 2.21764,21.282 -3.21921,-0.042 -5.60599,11.3083 1.11567,9.5915 6.85858,2.1606 15.4344,-1.8915 15.71738,-9.6554 0.45451,-8.9152 0.39467,-17.8602 0.68217,-26.785 -0.92402,0.149 -1.84803,0.2981 -2.77205,0.4471 z m -7.03392,9.6075 c 1.21378,1.6282 1.46429,10.7966 -3.2215,9.0462 -2.83237,-2.8229 -1.24293,-9.2673 3.2215,-9.0462 z"
       id="path4541"
       inkscape:connector-curvature="0" />
    <path
       style="font-style:normal;font-variant:normal;font-weight:bold;font-stretch:normal;font-size:medium;line-height:125%;font-family:'Comic Neue Angular';-inkscape-font-specification:'Comic Neue Angular Bold';letter-spacing:-3.18999815px;word-spacing:0px;fill:#ffffff;fill-opacity:1;stroke:none;stroke-width:1px;stroke-linecap:butt;stroke-linejoin:miter;stroke-opacity:1"
       d="m 197.75629,1021.9751 c -5.73739,0.9809 -13.07247,-0.6289 -16.96081,5.1198 -5.02543,6.0863 -4.55141,16.6562 2.21763,21.282 -3.21921,-0.042 -5.60598,11.3083 1.11566,9.5915 6.85858,2.1606 15.43441,-1.8915 15.71739,-9.6554 0.45451,-8.9152 0.39466,-17.8602 0.68217,-26.785 -0.92401,0.149 -1.84803,0.2981 -2.77204,0.4471 z m -7.03393,9.6075 c 1.21379,1.6282 1.46428,10.7966 -3.2215,9.0462 -2.83244,-2.8234 -1.24335,-9.2671 3.2215,-9.0462 z"
       id="path4543"
       inkscape:connector-curvature="0" />
    <path
       style="font-style:normal;font-variant:normal;font-weight:bold;font-stretch:normal;font-size:medium;line-height:125%;font-family:'Comic Neue Angular';-inkscape-font-specification:'Comic Neue Angular Bold';letter-spacing:-3.18999815px;word-spacing:0px;fill:#ffffff;fill-opacity:1;stroke:none;stroke-width:1px;stroke-linecap:butt;stroke-linejoin:miter;stroke-opacity:1"
       d="m 208.86044,1022.2877 c -7.27229,-0.8726 -12.67693,8.1115 -8.03551,13.8534 4.29354,2.8175 -0.37031,2.4531 -3.41727,3.122 -0.30867,8.4925 11.48718,15.0909 18.48669,8.7921 4.14456,-3.2119 4.42417,-10.2896 0.23957,-13.5956 5.38632,-1.1379 2.81437,-10.5083 -2.35454,-11.4966 -1.57441,-0.5464 -3.25743,-0.7514 -4.91894,-0.6753 z m 1.03809,8.7884 c 1.86855,0.7723 -2.37233,-0.1413 0,0 z m -2.74239,8.9322 c 2.16984,0.1121 4.3689,2.0636 0.95139,1.5013 -0.64495,0.026 -2.43027,-2.207 -0.95139,-1.5013 z"
       id="path4545"
       inkscape:connector-curvature="0" />
    <path
       inkscape:connector-curvature="0"
       id="path4163"
       style="font-style:normal;font-variant:normal;font-weight:bold;font-stretch:normal;font-size:medium;line-height:125%;font-family:'Comic Neue Angular';-inkscape-font-specification:'Comic Neue Angular Bold';letter-spacing:-3.18999815px;word-spacing:0px;fill:#404fc0;fill-opacity:1;stroke:none;stroke-width:1px;stroke-linecap:butt;stroke-linejoin:miter;stroke-opacity:1"
       d="m 139.41672,1043.5795 0,-9.5787 14.87658,0 1.28018,-4.5791 -16.15676,0 0,-8.4106 16.90721,0 0.75046,-4.6258 -22.02794,0 0,31.82 20.92433,0 1.54505,-4.6258 -18.09911,0 z" />
    <path
       inkscape:connector-curvature="0"
       id="path4165"
       style="font-style:normal;font-variant:normal;font-weight:bold;font-stretch:normal;font-size:medium;line-height:125%;font-family:'Comic Neue Angular';-inkscape-font-specification:'Comic Neue Angular Bold';letter-spacing:-3.18999815px;word-spacing:0px;fill:#7f40c0;fill-opacity:1;stroke:none;stroke-width:1px;stroke-linecap:butt;stroke-linejoin:miter;stroke-opacity:1"
       d="m 177.42346,1024.2819 -4.32613,0.7008 0,0.4673 c -1.05945,-0.4673 -2.07478,-0.6542 -3.53153,-0.6542 -6.35675,0 -10.5063,5.9809 -10.5063,11.9618 0,6.4014 3.84053,10.9805 8.96126,10.9805 1.72162,0 3.31081,-0.4206 4.63513,-1.4953 -0.0442,1.542 -0.61801,5.3268 -4.85585,5.3268 -1.76577,0 -3.92883,-0.3738 -5.34145,-0.7477 l -0.88288,4.3922 c 1.76577,0.4206 4.28198,0.8411 6.22433,0.8411 5.6946,0 9.0054,-3.4577 9.13783,-9.6722 l 0.48559,-22.1011 z m -4.50271,5.8874 0,5.607 c 0,6.0744 -2.78107,7.5228 -5.12071,7.5696 -3.35496,0 -4.76757,-3.9717 -4.76757,-6.4949 0,-4.1585 2.86937,-7.6162 6.75405,-7.6162 1.14775,0 2.33964,0.4205 3.13423,0.9345 z" />
    <path
       inkscape:connector-curvature="0"
       id="path4167"
       style="font-style:normal;font-variant:normal;font-weight:bold;font-stretch:normal;font-size:medium;line-height:125%;font-family:'Comic Neue Angular';-inkscape-font-specification:'Comic Neue Angular Bold';letter-spacing:-3.18999815px;word-spacing:0px;fill:#c040bb;fill-opacity:1;stroke:none;stroke-width:1px;stroke-linecap:butt;stroke-linejoin:miter;stroke-opacity:1"
       d="m 198.13051,1024.2819 -4.32612,0.7008 0,0.4673 c -1.05946,-0.4673 -2.07478,-0.6542 -3.53154,-0.6542 -6.35676,0 -10.50631,5.9809 -10.50631,11.9618 0,6.4014 3.84054,10.9805 8.96127,10.9805 1.72162,0 3.31081,-0.4206 4.63514,-1.4953 -0.0442,1.542 -0.61802,5.3268 -4.85586,5.3268 -1.76576,0 -3.92883,-0.3738 -5.34144,-0.7477 l -0.88288,4.3922 c 1.76575,0.4206 4.28198,0.8411 6.22432,0.8411 5.69459,0 9.00541,-3.4577 9.13784,-9.6722 l 0.48558,-22.1011 z m -4.5027,5.8874 0,5.607 c 0,6.0744 -2.78108,7.5228 -5.12072,7.5696 -3.35496,0 -4.76757,-3.9717 -4.76757,-6.4949 0,-4.1585 2.86937,-7.6162 6.75406,-7.6162 1.14774,0 2.33964,0.4205 3.13423,0.9345 z" />
    <path
       inkscape:connector-curvature="0"
       id="path4169"
       style="font-style:normal;font-variant:normal;font-weight:bold;font-stretch:normal;font-size:medium;line-height:125%;font-family:'Comic Neue Angular';-inkscape-font-specification:'Comic Neue Angular Bold';letter-spacing:-3.18999815px;word-spacing:0px;fill:#c04079;fill-opacity:1;stroke:none;stroke-width:1px;stroke-linecap:butt;stroke-linejoin:miter;stroke-opacity:1"
       d="m 208.50786,1037.9724 c 2.25135,0.6542 4.06126,1.542 4.06126,3.411 0,1.4018 -1.45676,2.5699 -3.7964,2.5699 -1.85405,0 -3.7964,-1.1681 -4.5027,-3.5511 l -4.14955,0.7476 c 1.19189,4.4856 4.9,7.0555 8.65225,7.0555 2.60451,0 8.03424,-1.5419 8.03424,-7.2424 0,-3.4577 -2.38378,-5.794 -7.28379,-7.2425 -2.47207,-0.7476 -3.7081,-1.4017 -3.7081,-2.6166 0,-1.1681 0.79459,-2.3363 3.75224,-2.383 1.41262,0 3.17839,0.514 3.17839,2.1026 0,0.3738 0,1.0747 -0.30901,2.0092 l 4.10541,-0.841 c 0.17657,-1.028 0.17657,-1.3551 0.17657,-1.7289 0,-4.6725 -4.5027,-5.6538 -7.15136,-5.6538 -3.39909,0 -8.07838,1.1215 -8.07838,6.5416 0,4.2053 3.70811,5.8874 7.01893,6.8219 z" />
    <path
       id="path4203"
       style="fill:#231f20;fill-opacity:1;fill-rule:nonzero;stroke:none"
       d="m 109.53693,1008.5288 c -1.24143,-2.1712 -2.30951,-3.3057 -3.48643,-3.4468 -1.19363,-0.143 -2.23917,0.6778 -3.40248,2.4211 -0.44076,-0.017 -0.88463,-0.024 -1.33161,-0.025 -1.14116,-2.2726 -2.141996,-3.4328 -3.388877,-3.4394 0,0 -0.0032,0 -0.0032,0 -1.314111,-0.01 -2.524844,1.3347 -4.103653,4.0757 -0.250696,0.04 -0.502172,0.083 -0.75403,0.1267 -1.967875,-2.2831 -3.364788,-3.3345 -4.617877,-3.1222 -1.386803,0.2347 -2.197199,1.8365 -2.972219,4.8456 0,0 0.121654,0.031 0.121654,0.031 -0.263137,0.076 -0.526267,0.1539 -0.788624,0.2332 0,0 0.195118,-0.1741 0.195118,-0.1741 -1.730003,-1.9504 -3.065113,-2.7957 -4.358242,-2.4133 -1.693466,0.4998 -2.857943,3.4833 -3.049568,5.075 -0.375072,0.1449 -0.749755,0.2915 -1.121722,0.4403 0,0 -0.611385,-0.3012 -0.611385,-0.3012 -2.162604,-1.4486 -3.660952,-1.9581 -4.800172,-1.4257 -0.874131,0.8019 -1.459869,2.528 -1.847772,4.8853 -1.154369,0.5418 -2.987758,-3.7698 -5.780023,-2.2364 -1.198291,0.658 -1.653045,2.5796 -1.81473,6.0626 0,0 0.0079,4e-4 0.0079,4e-4 -0.03152,0.016 -0.06296,0.033 -0.09444,0.05 -2.657387,-1.3596 -4.369512,-1.7622 -5.500948,-1.0284 -1.09063,0.7078 -1.392629,2.2722 -1.232106,4.8554 -0.101838,0.061 -0.202505,0.122 -0.303559,0.1823 -2.619689,-1.5555 -4.313546,-2.1607 -5.469474,-1.4914 -1.162917,0.6728 -1.450149,2.4106 -1.227441,5.5208 -0.314831,0.1776 -0.633155,0.3544 -0.953032,0.5301 -2.297473,-1.3137 -3.847522,-1.7409 -4.954862,-1.1536 -1.12911,0.5994 -1.553153,2.0651 -1.583863,4.5266 -0.180734,0.088 -0.362631,0.1753 -0.544536,0.2631 -2.310685,-1.5563 -3.869673,-2.2139 -5.022099,-1.7292 -1.201794,0.5064 -1.655377,2.0277 -1.692694,4.8001 -0.365744,0.159 -0.732657,0.3184 -1.101123,0.4769 -2.567989,-1.6091 -4.270395,-2.2333 -5.478796,-1.7327 -1.273697,0.5278 -1.750993,2.055 -1.809294,4.7228 -0.150414,0.06 -0.300446,0.1186 -0.450868,0.1769 -2.271817,-1.5916 -3.819534,-2.3056 -4.979736,-1.9181 -1.243378,0.4162 -1.757984,1.8415 -1.864482,4.4927 -0.06567,0.024 -0.131763,0.048 -0.19745,0.072 -2.019569,-1.6487 -3.461949,-2.2967 -4.645467,-1.8687 -1.190913,0.431 -1.842727,1.8326 -2.282317,4.2801 -0.156248,0.052 -0.3121072,0.1037 -0.4675757,0.1562 -2.1233526,-2.0432 -3.5999378,-2.9873 -4.8565301,-2.6235 -1.279524,0.3708 -1.9636004,1.9566 -2.4680968,4.9634 -3.4914968,1.0661 -6.8181794,2.0122 -9.8747441,2.814 0,0 -0.1554686,1.7362 -0.1554686,1.7362 17.3723277,7.9671 27.2528983,7.3453 39.7453733,6.0817 2.614635,-0.126 5.219161,-0.3903 7.812423,-0.7642 4.002982,-0.3467 8.382605,-0.6141 13.363503,-0.6083 5.121219,0 10.927669,0.5248 16.953331,1.0635 22.992606,2.058 49.094639,4.394 55.230289,-19.8712 0.83566,-3.301 0.91534,-6.611 0.31133,-9.8506 -0.61839,-3.3185 -1.95155,-6.5535 -3.92137,-9.6209 -3.12885,-4.8706 -7.41596,-7.7285 -12.37587,-9.1173 0,0 0,0 0,0 z"
       inkscape:connector-curvature="0" />
    <path
       id="path4205"
       style="fill:#ffffff;fill-opacity:1;fill-rule:nonzero;stroke:none"
       d="m 42.190019,1031.2058 c 0.05906,-1.135 0.228542,-1.7837 0.567476,-1.9628 0.364964,-0.1936 1.063026,7e-4 2.155209,0.562 -0.888898,0.4703 -1.799184,0.9371 -2.722685,1.4008 0,0 0,0 0,0 z m -7.268261,3.4359 c 0.04777,-1.3923 0.206382,-2.1269 0.539091,-2.2675 0.373131,-0.1563 1.136497,0.1811 2.34645,0.9499 -0.948766,0.4435 -1.912298,0.883 -2.885541,1.3176 0,0 0,0 0,0 z m -8.394656,3.5529 c 0.06376,-1.3616 0.252248,-2.1098 0.645198,-2.2742 0.457866,-0.1885 1.321896,0.126 2.683045,0.9115 -1.102675,0.4606 -2.212355,0.9153 -3.328243,1.3627 0,0 0,0 0,0 z m -7.283816,2.8051 c 0.07849,-1.2792 0.249526,-1.9423 0.571354,-2.0495 0.390618,-0.1306 1.140381,0.2126 2.299804,0.9705 -0.955755,0.3654 -1.914241,0.7257 -2.871158,1.079 0,0 0,0 0,0 z m -6.98687,2.4867 c 0.249924,-1.1093 0.526657,-1.7272 0.893181,-1.8602 0.376632,-0.1352 1.01251,0.1567 1.967485,0.8652 -0.957306,0.3389 -1.911128,0.6697 -2.860666,0.995 0,0 0,0 0,0 z m -7.8279598,2.5669 c 0.3027789,-1.6232 0.6055578,-2.4604 1.0012304,-2.5735 0.4073354,-0.1185 1.1648678,0.4031 2.351498,1.5034 -1.1302722,0.3666 -2.2477218,0.7234 -3.3527284,1.0701 0,0 0,0 0,0 z M 63.52919,1019.1358 c 0.136038,-2.0802 0.359526,-3.1938 0.790957,-3.4305 0.394902,-0.2169 1.324228,0.3358 2.900316,1.5668 -1.266702,0.6184 -2.498419,1.2418 -3.691273,1.8637 0,0 0,0 0,0 z m -6.926231,3.8195 c -0.03495,-1.2725 0.08706,-2.0094 0.432601,-2.2345 0.377795,-0.2449 1.18663,-0.047 2.510079,0.5605 -1.026114,0.571 -2.009077,1.1306 -2.94268,1.674 0,0 0,0 0,0 z m -7.016012,4.2487 c -0.09523,-1.7468 -0.0016,-2.6804 0.366515,-2.8934 0.378186,-0.2184 1.273699,0.138 2.75728,0.9822 -0.274409,0.1703 -0.542203,0.3374 -0.802228,0.4999 -0.749763,0.4714 -1.525174,0.9429 -2.321567,1.4113 0,0 0,0 0,0 z m 55.206963,-19.5544 c 0.41665,-0.5193 0.75559,-0.7649 1.04127,-0.7307 0.33309,0.04 0.71711,0.384 1.18274,1.0381 -0.73032,-0.1302 -1.4727,-0.2308 -2.22401,-0.3074 0,0 0,0 0,0 z m -8.632917,0.1388 c 0.794849,-1.2772 1.350657,-1.905 1.759933,-1.9026 0,0 -0.0032,0 -0.0032,0 0.355635,0 0.787845,0.5554 1.363091,1.6418 -1.028829,0.05 -2.0701,0.1387 -3.119529,0.2608 0,0 0,0 0,0 z m -16.473313,4.1436 c 0.551533,-1.5504 1.012113,-2.3775 1.47969,-2.5151 0.401508,-0.1181 1.032721,0.3366 1.969817,1.3324 -1.154367,0.3716 -2.306021,0.7676 -3.449507,1.1827 0,0 0,0 0,0 z m 7.841954,-2.47 c 0.453583,-1.6041 0.825942,-2.4428 1.227052,-2.5105 0.421719,-0.071 1.124056,0.4933 2.210412,1.695 -1.141153,0.2403 -2.289695,0.5135 -3.437464,0.8155 0,0 0,0 0,0 z m -16.437945,5.9872 c 0.143035,-1.3864 0.368075,-2.1599 0.752867,-2.3399 0.406555,-0.19 1.19674,0.1295 2.46305,0.9352 -1.085966,0.4571 -2.159491,0.9266 -3.215917,1.4047 0,0 0,0 0,0 z"
       inkscape:connector-curvature="0" />
    <path
       id="path4207"
       class="colored"
       style="fill:#ffffff;fill-opacity:1;fill-rule:nonzero;stroke:none"
       d="m 103.2392,1009.3913 c 0,0 0.30317,0.176 0.30317,0.176 0.0299,-0.051 0.0603,-0.1007 0.0882,-0.1504 1.61573,0.1136 3.18132,0.3475 4.6824,0.7191 0.0357,0.067 0.0718,0.1348 0.10805,0.204 0,0 0.22427,-0.1185 0.22427,-0.1185 4.72515,1.2422 8.78994,3.8731 11.71006,8.4195 1.84506,2.8739 3.09078,5.8873 3.66368,8.9614 0.55426,2.9761 0.47924,6.021 -0.28879,9.0635 -0.64403,2.5447 -1.53333,4.7742 -2.63405,6.7284 -15.67848,-7.6146 -33.305389,-2.0868 -52.025651,3.7842 -9.556403,2.9967 -19.400836,6.0843 -29.374692,7.5197 -2.147049,0.1866 -4.179832,0.3938 -6.139548,0.5947 -0.492843,0.05 -0.97985,0.1 -1.462981,0.1493 -0.48973,0.023 -0.979468,0.043 -1.468809,0.056 0,0 0.0016,0.09 0.0016,0.09 -11.007349,1.0759 -20.190239,1.3822 -35.0552105,-5.0003 9.2190453,-2.5322 20.4277215,-6.199 31.1801005,-10.4935 9.659797,-3.8569 18.960068,-8.2236 26.138555,-12.7358 8.95707,-5.6296 27.18293,-15.7309 43.174289,-17.693 1.386803,-0.1702 2.75611,-0.2779 4.100552,-0.3164 0.005,0.012 0.009,0.022 0.0144,0.033 0,0 0.0789,-0.035 0.0789,-0.035 1.0094,-0.027 2.00363,-0.013 2.98116,0.044 0,0 0,0 0,0 z"
       inkscape:connector-curvature="0" />
    <path
       id="path4209"
       class="colored"
       style="fill:#ffffff;fill-opacity:1;fill-rule:nonzero;stroke:none"
       d="m 70.109116,1048.7915 c 0.282567,0.9604 0.779295,2.3239 1.389907,3.6178 0.369246,0.7863 1.102675,1.9881 1.800355,2.9924 -0.95148,-0.083 -1.900636,-0.1683 -2.843177,-0.2518 -6.059096,-0.5434 -11.89936,-1.0654 -17.121243,-1.0712 -0.425212,0 -0.846924,0 -1.263588,0.01 5.935491,-1.4983 11.794031,-3.3352 17.548398,-5.1395 0.163246,-0.052 0.325712,-0.1025 0.489348,-0.1535 0,0 0,0 0,0 z"
       inkscape:connector-curvature="0" />
    <path
       id="path4211"
       class="colored"
       style="fill:#ffffff;fill-opacity:1;fill-rule:nonzero;stroke:none"
       d="m 78.164839,1046.3106 c 0.319495,1.4637 0.865201,3.0798 1.566375,4.5832 0.694177,1.4902 2.110122,3.7881 3.297533,5.2309 -2.8354,-0.1528 -5.68946,-0.3751 -8.517863,-0.6184 -0.759865,-1.0145 -1.74555,-2.5734 -2.17659,-3.49 -0.601673,-1.2795 -1.087527,-2.6072 -1.348324,-3.5 2.413681,-0.756 4.807551,-1.5007 7.178869,-2.2057 0,0 0,0 0,0 z"
       inkscape:connector-curvature="0" />
    <path
       id="path4213"
       class="colored"
       style="fill:#ffffff;fill-opacity:1;fill-rule:nonzero;stroke:none"
       d="m 88.705383,1043.4962 c 0.246421,1.7719 0.881519,3.6955 1.634777,5.4861 1.068868,2.5389 2.735517,5.5756 3.743745,7.2667 -3.168499,0.14 -6.44505,0.093 -9.755033,-0.06 -1.169524,-1.145 -2.972211,-3.9991 -3.758121,-5.6855 -0.684068,-1.4681 -1.214618,-3.0438 -1.515454,-4.457 3.261784,-0.9565 6.480815,-1.8311 9.650086,-2.5505 0,0 0,0 0,0 z"
       inkscape:connector-curvature="0" />
    <path
       id="path4215"
       class="colored"
       style="fill:#ffffff;fill-opacity:1;fill-rule:nonzero;stroke:none"
       d="m 104.80634,1054.8339 c -0.73615,-0.7529 -2.28153,-3.3508 -3.57272,-6.5236 -0.84615,-2.0767 -1.555482,-4.3831 -1.819392,-6.5601 7.258932,-0.6265 14.191002,0.1154 20.700572,3.2319 -3.59683,5.3128 -8.9703,8.2916 -15.30846,9.8518 0,0 0,0 0,0 z"
       inkscape:connector-curvature="0" />
    <path
       id="path4217"
       class="colored"
       style="fill:#ffffff;fill-opacity:1;fill-rule:nonzero;stroke:none"
       d="m 98.490728,1041.8361 c 0.272466,2.2742 1.009007,4.6707 1.885082,6.8232 1.1295,2.7733 2.53379,5.1652 3.49849,6.3926 -2.78954,0.6172 -5.755151,0.9756 -8.827643,1.1493 -0.799506,-1.3304 -2.66788,-4.7624 -3.852958,-7.5772 -0.737321,-1.7526 -1.355321,-3.6276 -1.580751,-5.33 3.006805,-0.6545 5.967363,-1.1625 8.87778,-1.4579 0,0 0,0 0,0 z"
       inkscape:connector-curvature="0" />
    <path
       id="path4219"
       class="colored"
       style="fill:#ffffff;fill-opacity:1;fill-rule:evenodd;stroke:none"
       d="m 81.722405,1035.4521 c 1.360757,7.7195 -6.286468,15.46 -6.090188,22.6871 2.220903,0.1193 3.922537,-1.4681 4.466292,-1.5641 -0.371577,0.065 -0.756362,1.9497 -0.969359,4.073 1.660043,-0.1784 3.512481,-2.1024 3.920588,-2.1743 0.129821,1.2232 -0.445815,3.0539 -0.305892,3.6003 13.340189,-6.2405 19.828384,-20.6216 19.502674,-25.2535 0,0 -20.524115,-1.3685 -20.524115,-1.3685 0,0 0,0 0,0 z"
       inkscape:connector-curvature="0" />
    <path
       id="path4221"
       style="fill:#231f20;fill-opacity:1;fill-rule:nonzero;stroke:none"
       d="m 89.129434,1056.9529 c -2.283486,-0.4567 -4.497003,-1.2492 -6.443497,-2.4521 -1.618069,-0.9978 -3.053453,-2.28 -4.190332,-3.8868 0.328435,-0.761 0.677852,-1.5287 1.028439,-2.2979 2.8459,-6.2518 4.374958,-9.9629 1.753716,-16.3197 0.424044,4.5012 -0.209892,9.0025 -3.438633,15.5537 -1.62817,3.5754 -3.230295,7.0945 -3.135067,10.6159 0,0 0.02372,0.8504 0.02372,0.8504 1.362707,0.073 2.472769,0.034 3.760453,-0.5468 -0.185789,1.0673 -0.285291,2.1443 -0.393732,3.2225 1.296632,-0.2045 2.017237,-0.4929 3.891446,-1.3382 -0.180743,1.1264 -0.145368,1.9154 0.139923,3.0313 5.81811,-2.722 10.490793,-6.3537 14.424204,-11.4466 4.685901,-6.0684 7.031571,-11.3222 6.243711,-18.7323 -1.26941,5.9588 -2.43428,11.2732 -7.707855,17.6028 -1.65849,2.1463 -3.643464,4.2576 -5.956482,6.1438 0,0 0,0 0,0 z"
       inkscape:connector-curvature="0" />
    <path
       id="path4223"
       class="colored"
       style="fill:#ffffff;fill-opacity:1;fill-rule:nonzero;stroke:none"
       d="m 77.880328,1052.1011 c 1.157481,1.4509 2.543114,2.6341 4.075674,3.5801 1.763038,1.0887 3.720422,1.8641 5.74737,2.3729 0,0 -3.868894,2.4385 -3.868894,2.4385 0,0 0.03112,-3.1063 0.03112,-3.1063 0,0 -3.634516,1.8909 -3.634516,1.8909 0,0 -0.289955,-3.6182 -0.289955,-3.6182 0,0 -3.357784,1.4894 -3.357784,1.4894 0,0 1.297013,-5.0473 1.297013,-5.0473 0,0 0,0 0,0 z"
       inkscape:connector-curvature="0" />
    <path
       id="path4225"
       class="colored"
       style="fill:#ffffff;fill-opacity:1;fill-rule:evenodd;stroke:none"
       d="m 34.998709,1042.2155 c 0.203285,7.8353 -8.507754,14.3573 -9.384227,21.5331 2.17815,0.4473 4.097055,-0.8699 4.648197,-0.8839 -0.377015,0.01 -1.035826,1.8155 -1.562093,3.8841 1.668592,0.07 3.786102,-1.559 4.199271,-1.5691 -0.05246,1.2286 -0.89318,2.9535 -0.83566,3.5148 14.11754,-4.1938 22.666114,-17.4555 23.030306,-22.0843 0,0 -20.095794,-4.3947 -20.095794,-4.3947 0,0 0,0 0,0 z"
       inkscape:connector-curvature="0" />
    <path
       id="path4227"
       style="fill:#231f20;fill-opacity:1;fill-rule:nonzero;stroke:none"
       d="m 39.137737,1064.5765 c -2.190583,-0.7902 -4.261073,-1.9026 -6.008564,-3.3796 -1.4521,-1.2278 -2.681874,-2.7079 -3.568449,-4.4651 0.438818,-0.7051 0.898236,-1.4105 1.358044,-2.1203 3.741794,-5.7605 5.802955,-9.2042 4.153794,-15.8801 -0.248363,4.5148 -1.5415,8.8727 -5.706176,14.8723 -2.140832,3.2952 -4.246299,6.538 -4.673063,10.0345 0,0 -0.103007,0.845 -0.103007,0.845 1.336662,0.2736 2.440117,0.3988 3.799713,0.017 -0.341259,1.0276 -0.600512,2.0775 -0.867526,3.1273 1.312949,-0.01 2.068539,-0.1877 4.047296,-0.7451 -0.345532,1.0856 -0.427545,1.8722 -0.310555,3.0169 6.156654,-1.8291 11.315565,-4.7283 15.961039,-9.1825 5.533991,-5.3062 8.632139,-10.1542 8.950464,-17.6001 -2.138891,5.7062 -4.077227,10.7889 -10.231158,16.2673 -1.958157,1.8769 -4.234638,3.6703 -6.801854,5.1928 0,0 0,0 0,0 z"
       inkscape:connector-curvature="0" />
    <path
       id="path4229"
       class="colored"
       style="fill:#ffffff;fill-opacity:1;fill-rule:nonzero;stroke:none"
       d="m 28.732451,1058.1112 c 0.929718,1.6064 2.125295,2.9815 3.499656,4.1437 1.583084,1.3386 3.403649,2.3954 5.333045,3.1992 0,0 -4.187999,1.8384 -4.187999,1.8384 0,0 0.490894,-3.0674 0.490894,-3.0674 0,0 -3.873941,1.3312 -3.873941,1.3312 0,0 0.249135,-3.6213 0.249135,-3.6213 0,0 -3.540849,0.976 -3.540849,0.976 0,0 2.030059,-4.7998 2.030059,-4.7998 0,0 0,0 0,0 z"
       inkscape:connector-curvature="0" />
    <path
       id="path4233"
       style="fill:#231f20;fill-opacity:1;fill-rule:evenodd;stroke:none"
       d="m 77.338125,1016.5247 c -1.489026,0.3653 -2.518627,1.421 -2.310304,2.3938 0.21572,0.9989 1.660433,1.5411 3.21825,1.2057 0.669693,-0.1442 1.254268,-0.4283 1.685308,-0.7844 -0.04195,0.011 -0.08395,0.02 -0.126709,0.029 -1.557038,0.3358 -3.002141,-0.2067 -3.21786,-1.2057 -0.122044,-0.5694 0.179954,-1.1675 0.751315,-1.6386 0,0 0,0 0,0 z m -29.132927,18.0602 c -1.851666,0.7533 -2.966002,2.3368 -2.483651,3.5257 0.483903,1.1874 2.388035,1.5435 4.240473,0.7894 0.394503,-0.1613 0.75559,-0.3591 1.075467,-0.5834 -1.689193,0.5139 -3.314639,0.1236 -3.756569,-0.9616 -0.379737,-0.9347 0.228933,-2.1136 1.407403,-2.9411 -0.160913,0.049 -0.321827,0.1049 -0.483123,0.171 0,0 0,0 0,0 z m 12.703141,-0.6312 c -2.228291,0.73 -3.663675,2.488 -3.199203,3.9202 0.465635,1.4362 2.671383,2.0157 4.909385,1.2889 0.587289,-0.1901 1.119391,-0.4517 1.578809,-0.761 -0.0071,0 -0.01401,0 -0.01982,0.01 -2.238002,0.7268 -4.443352,0.1473 -4.908987,-1.2892 -0.34359,-1.06 0.35214,-2.2975 1.639825,-3.165 0,0 0,0 0,0 z m -2.508137,-7.9706 c -1.963211,1.297 -2.885151,3.3811 -2.053383,4.6416 0.831768,1.2601 3.111369,1.2306 5.075353,-0.067 0.0023,-0 0.0048,-0 0.0082,-0.01 -1.492131,0.4769 -2.906905,0.2519 -3.524133,-0.6829 -0.831386,-1.2585 0.08706,-3.3387 2.043273,-4.6354 -0.516548,0.1656 -1.043595,0.4147 -1.549269,0.7486 0,0 0,0 0,0 z m 11.005016,-3.149 c -1.96399,1.2966 -2.88632,3.3811 -2.054162,4.6415 0.832157,1.2601 3.111752,1.2306 5.074962,-0.066 0.0032,-8e-4 0.0048,-0 0.0079,-0 -1.491359,0.4769 -2.906142,0.2519 -3.523361,-0.6837 -0.830607,-1.2577 0.08706,-3.3379 2.044053,-4.6353 -0.518107,0.1655 -1.044374,0.4147 -1.549269,0.7489 0,0 0,0 0,0 z m 3.525695,9.3263 c -2.206911,0.8174 -3.577379,2.6391 -3.052673,4.0554 0.523936,1.4156 2.751446,1.9038 4.957194,1.086 0.488177,-0.1815 0.935933,-0.4108 1.331217,-0.6748 -2.130341,0.7028 -4.223374,0.2002 -4.72943,-1.1668 -0.408879,-1.1022 0.331929,-2.4506 1.721454,-3.3791 -0.07617,0.025 -0.152365,0.051 -0.227762,0.079 0,0 0,0 0,0 z m 7.362325,-9.4678 c -1.714068,0.5193 -2.883989,1.6954 -2.7565,2.9259 0.155859,1.5019 2.191753,2.5284 4.53198,2.2855 1.09024,-0.1128 2.05882,-0.4824 2.76699,-0.9962 -0.378956,0.1142 -0.783959,0.197 -1.208002,0.2414 -2.339844,0.2429 -4.375739,-0.784 -4.53198,-2.2859 -0.08318,-0.8018 0.386344,-1.5811 1.197512,-2.1707 0,0 0,0 0,0 z m 7.573769,-7.5921 c -1.713676,0.5193 -2.884761,1.6958 -2.757279,2.926 0.156248,1.5015 2.191754,2.5287 4.531979,2.2854 1.090241,-0.113 2.0596,-0.4819 2.767,-0.9965 -0.379355,0.115 -0.783579,0.1974 -1.207622,0.2413 -2.340233,0.2433 -4.376119,-0.7839 -4.531979,-2.2854 -0.0828,-0.8022 0.386345,-1.5815 1.197901,-2.1708 0,0 0,0 0,0 z m 5.49201,7.2232 c -1.802687,0.5792 -3.035566,1.7977 -2.976876,3.1479 0.07697,1.8043 2.433121,3.1782 5.245588,3.0574 1.396904,-0.06 2.649229,-0.4769 3.547075,-1.1031 -0.606338,0.1955 -1.278363,0.3183 -1.988087,0.3486 -2.811695,0.1205 -5.168636,-1.2538 -5.246368,-3.0585 -0.03844,-0.9083 0.507608,-1.7572 1.418668,-2.3923 0,0 0,0 0,0 z m 6.860553,-9.652 c -1.957775,0.6471 -3.277721,2.0192 -3.127689,3.4503 0.188113,1.7972 2.625516,3.0231 5.424769,2.7293 1.23444,-0.1291 2.33712,-0.5325 3.17006,-1.098 -0.49985,0.1659 -1.04128,0.2829 -1.61108,0.3432 -2.80003,0.2934 -5.236258,-0.9325 -5.42477,-2.7293 -0.105331,-1.0044 0.512673,-1.9792 1.56871,-2.6955 0,0 0,0 0,0 z m -91.6656894,34.5507 c -1.5928032,0.4431 -2.6873188,1.5434 -2.5318502,2.6461 0.1791829,1.2609 1.9270646,2.0627 3.8922175,1.7844 0.8997881,-0.1275 1.6926871,-0.4602 2.2714351,-0.9036 -0.228161,0.063 -0.466025,0.1135 -0.712447,0.1484 -1.9655432,0.2787 -3.7130428,-0.5231 -3.8922164,-1.784 -0.09678,-0.6837 0.2876223,-1.3658 0.972861,-1.8913 0,0 0,0 0,0 z m 10.2571964,-2.4382 c -1.340938,0.3005 -2.291255,1.1972 -2.164936,2.0962 0.13876,0.9732 1.486304,1.5912 3.00331,1.3763 0.772689,-0.1089 1.443162,-0.4155 1.897525,-0.817 -0.109992,0.024 -0.223488,0.046 -0.338154,0.062 -1.517007,0.2149 -2.864941,-0.4039 -3.003303,-1.3763 -0.06726,-0.4773 0.169073,-0.9535 0.605558,-1.341 0,0 0,0 0,0 z m 7.925519,-2.9255 c -2.066598,0.8403 -3.311145,2.608 -2.771656,3.9349 0.539481,1.3254 2.663605,1.7219 4.730592,0.8808 0.406945,-0.1656 0.782018,-0.3673 1.11822,-0.5947 -1.920448,0.6195 -3.789212,0.1904 -4.290221,-1.0409 -0.432983,-1.065 0.282958,-2.4145 1.651881,-3.3399 -0.146528,0.047 -0.292676,0.1003 -0.438816,0.1598 0,0 0,0 0,0 z"
       inkscape:connector-curvature="0" />
    <g
       id="g4661"
       inkscape:transform-center-x="-34.092648"
       inkscape:transform-center-y="-14.899746">
      <path
         inkscape:connector-curvature="0"
         d="m 129.29497,1005.4547 c -0.28451,0.4556 -0.41977,1.0079 -0.34593,1.5792 0.16948,1.318 1.38214,2.2547 2.69938,2.0853 1.20412,-0.1543 2.08875,-1.1793 2.1039,-2.3597 0,0 -4.45735,-1.3048 -4.45735,-1.3048 0,0 0,0 0,0 z"
         style="fill-opacity:1;fill-rule:evenodd;stroke:none"
         class="colored"
         id="path4231" />
      <path
         inkscape:connector-curvature="0"
         d="m 139.62835,1027.8717 c 0.9682,1.0891 1.92435,2.0577 2.7293,2.7106 0.93321,0.7568 1.78402,1.1187 2.45293,0.882 0,0 0.36264,-0.2267 0.36264,-0.2267 0.41005,-0.3972 0.66076,-1.1753 0.76958,-2.2216 0.0894,-0.8501 0.10922,-1.9178 0.0688,-3.1149 0.61723,-0.1924 1.23561,-0.3867 1.85594,-0.5822 0.53016,1.1823 1.06498,2.2391 1.55045,3.0079 0.63703,1.0114 1.31217,1.6418 1.99312,1.6776 0,0 0.42833,-0.072 0.42833,-0.072 0.63821,-0.265 1.23172,-1.187 1.74166,-2.5372 0.42483,-1.1237 0.8516,-2.6294 1.23444,-4.3276 0.18851,-0.063 0.3743,-0.1255 0.56203,-0.1889 0.40229,0.8128 0.79796,1.5205 1.16371,2.0546 0.56629,0.8247 1.16642,1.3265 1.78636,1.3584 0,0 0.42987,-0.071 0.42987,-0.071 0.58107,-0.2421 1.11706,-1.009 1.58152,-2.1404 0.35759,-0.8695 0.71672,-2.006 1.04983,-3.3015 0.38478,-0.1391 0.76724,-0.2798 1.15048,-0.4217 0.53171,1.2139 1.0778,2.3263 1.58464,3.1728 0.69185,1.1567 1.42295,1.8925 2.14783,1.9302 0,0 0.42988,-0.071 0.42988,-0.071 0.70079,-0.2927 1.36815,-1.4319 1.93522,-3.0849 0.44388,-1.2951 0.88269,-2.9707 1.26204,-4.8107 0.84071,1.4548 1.72417,2.8513 2.51008,3.8949 1.01056,1.3402 1.99897,2.1747 2.81752,2.0697 0,0 0.40772,-0.1504 0.40772,-0.1504 0.68835,-0.4411 1.21462,-1.903 1.55044,-3.9182 0.25925,-1.5641 0.44931,-3.5331 0.54143,-5.6293 0.30238,-0.1601 0.60478,-0.3198 0.90251,-0.4819 1.48008,-0.803 2.75455,-1.6624 3.83508,-2.5583 2.70558,-2.2419 4.23115,-4.7302 4.80833,-7.1804 0,0 6.3e-4,0 6.3e-4,0 0.58925,-2.4969 0.19084,-4.93855 -0.95031,-7.0413 -0.3331,-0.61528 -0.72993,-1.19984 -1.18119,-1.74516 -1.24571,-1.50186 -2.92168,-2.53845 -4.80289,-3.1549 -2.39269,-0.78434 -5.12432,-0.89512 -7.71253,-0.42793 -2.59092,0.46835 -5.06212,1.52362 -6.92507,3.06744 -1.23287,1.02145 -2.20068,2.25588 -2.77399,3.67728 -0.36068,0.10957 -0.68406,0.21183 -1.04981,0.32611 -5.77303,1.81356 -20.36087,6.39766 -26.31619,2.70986 -4.72243,-3.6633 -10.01543,-4.51955 -14.80627,-3.25791 -3.09893,0.81623 -5.97903,2.51981 -8.34569,4.92261 -2.35616,2.3919 -4.20781,5.4765 -5.2623,9.0643 -2.07515,7.0592 -1.07003,16.075 5.25609,25.5762 0,0 0.56319,0.8469 0.56319,0.8469 0,0 0.83255,-0.5834 0.83255,-0.5834 4.37106,-3.0639 14.27612,-6.1053 25.66048,-9.5999 0.0563,-0.017 0.11308,-0.035 0.16946,-0.052 0,0 0,0 0,0 z"
         style="fill:#231f20;fill-opacity:1;fill-rule:nonzero;stroke:none"
         id="path4237" />
      <path
         inkscape:connector-curvature="0"
         d="m 113.51739,1035.3382 c -5.48114,-8.645 -6.33311,-16.7512 -4.46823,-23.1003 0.95925,-3.2633 2.63639,-6.0622 4.7679,-8.2248 2.11946,-2.1521 4.68667,-3.6749 7.44278,-4.40058 4.2362,-1.11511 8.93842,-0.33814 13.14508,2.95398 0,0 0.0867,0.063 0.0867,0.063 6.71907,4.1923 21.95561,-0.5946 27.98205,-2.4883 0.69262,-0.21763 1.2803,-0.40265 1.49874,-0.46717 0,0 0.49945,-0.14885 0.49945,-0.14885 0,0 0.16131,-0.49208 0.16131,-0.49208 0.41433,-1.26125 1.23832,-2.35888 2.32818,-3.26177 1.59124,-1.31879 3.73945,-2.22557 6.01828,-2.63719 2.28269,-0.41277 4.67151,-0.32182 6.74045,0.35565 1.5442,0.50645 2.90575,1.33821 3.89142,2.52873 0.37392,0.45048 0.69808,0.92855 0.96976,1.428 0.91378,1.68531 1.23327,3.64148 0.76142,5.64048 0,0 0.001,0 0.001,0 -0.48273,2.0472 -1.79491,4.1554 -4.14136,6.1007 -0.98841,0.8189 -2.15677,1.6068 -3.51869,2.3457 -0.51655,0.2806 -1.04205,0.5581 -1.57531,0.8321 0,0 -0.32183,-0.01 -0.32183,-0.01 -10e-4,0.058 -0.004,0.1154 -0.005,0.1734 -10.717,5.4512 -24.66157,9.7321 -36.90376,13.4902 -10.87441,3.3383 -20.418,6.2682 -25.3612,9.3123 0,0 0,0 0,0 z"
         style="fill:#ffffff;fill-opacity:1;fill-rule:nonzero;stroke:none"
         class="colored"
         id="path4239" />
      <path
         inkscape:connector-curvature="0"
         d="m 152.60085,1023.7999 c -0.28258,1.1186 -0.58069,2.1078 -0.87919,2.8949 -0.15431,0.4097 -0.28839,0.7428 -0.39529,0.9818 -0.0551,-0.1116 -0.12943,-0.2468 -0.22815,-0.4027 -0.41317,-0.6565 -0.86986,-1.5504 -1.33005,-2.5583 0.94293,-0.3016 1.88702,-0.6059 2.83268,-0.9157 0,0 0,0 0,0 z"
         style="fill:#ffffff;fill-opacity:1;fill-rule:nonzero;stroke:none"
         id="path4241" />
      <path
         inkscape:connector-curvature="0"
         d="m 159.10342,1021.5977 c -0.19978,0.6662 -0.40033,1.2511 -0.59856,1.7323 -0.0957,0.2344 -0.18074,0.4345 -0.25342,0.5951 -0.0186,-0.034 -0.0419,-0.072 -0.0692,-0.1104 -0.27985,-0.4081 -0.58729,-0.9507 -0.90601,-1.5819 0.60983,-0.2099 1.21966,-0.421 1.82717,-0.6351 0,0 0,0 0,0 z"
         style="fill:#ffffff;fill-opacity:1;fill-rule:nonzero;stroke:none"
         id="path4243" />
      <path
         inkscape:connector-curvature="0"
         d="m 175.68169,1014.8016 c -0.0999,1.5909 -0.25575,3.062 -0.4567,4.2677 -0.16052,0.9667 -0.31599,1.7184 -0.45515,2.1552 -0.17179,-0.2246 -0.44115,-0.5818 -0.77541,-1.0261 -0.707,-0.9382 -1.51117,-2.2022 -2.28775,-3.5393 1.36037,-0.6036 2.68848,-1.222 3.97501,-1.8575 0,0 0,0 0,0 z"
         style="fill:#ffffff;fill-opacity:1;fill-rule:nonzero;stroke:none"
         id="path4245" />
      <path
         inkscape:connector-curvature="0"
         d="m 167.67726,1018.3685 c -0.29112,1.2527 -0.60206,2.3795 -0.91611,3.2929 -0.22544,0.6569 -0.41977,1.173 -0.57019,1.4999 -0.0879,-0.1636 -0.20717,-0.3832 -0.36613,-0.6479 -0.44193,-0.7389 -0.93283,-1.7405 -1.42413,-2.8564 1.10424,-0.4217 2.1972,-0.8508 3.27656,-1.2885 0,0 0,0 0,0 z"
         style="fill:#ffffff;fill-opacity:1;fill-rule:nonzero;stroke:none"
         id="path4247" />
      <path
         inkscape:connector-curvature="0"
         d="m 144.03402,1026.5156 c 0.0172,0.908 -0.002,1.6904 -0.0657,2.2998 -0.021,0.1979 -0.0409,0.3693 -0.0611,0.5123 -0.0738,-0.082 -0.17024,-0.1804 -0.2989,-0.2845 -0.53792,-0.4361 -1.18625,-1.0716 -1.87808,-1.8167 0.76257,-0.2348 1.53098,-0.4715 2.30368,-0.7109 0,0 0,0 0,0 z"
         style="fill:#ffffff;fill-opacity:1;fill-rule:nonzero;stroke:none"
         id="path4249" />
      <path
         inkscape:connector-curvature="0"
         d="m 180.61944,996.9221 c -1.08946,-0.55659 -5.19972,-2.44867 -7.6857,-2.04949 -2.61542,0.42015 -3.38967,3.34262 1.76926,2.27803 0,0 2.53495,-0.52316 2.53495,-0.52316 0,0 3.38149,0.29462 3.38149,0.29462 0,0 0,0 0,0 z"
         style="fill:#231f20;fill-opacity:1;fill-rule:evenodd;stroke:none"
         id="path4251" />
      <path
         inkscape:connector-curvature="0"
         d="m 117.78157,1002.6217 c -0.92505,1.8415 -1.33084,3.9668 -1.04943,6.157 0.75092,5.8543 6.13877,10.0158 11.99303,9.2641 2.92753,-0.3754 5.43177,-1.9107 7.10969,-4.0834 1.53333,-1.985 2.37676,-4.5048 2.22401,-7.1583 0,0 -16.18997,-4.738 -16.18997,-4.738 0,0 0.37468,2.0884 0.37468,2.0884 0,0 -4.46201,-1.5298 -4.46201,-1.5298 0,0 0,0 0,0 z"
         style="fill:#231f20;fill-opacity:1;fill-rule:nonzero;stroke:none"
         id="path4253" />
      <path
         inkscape:connector-curvature="0"
         d="m 119.87342,1004.1946 c -0.75908,1.4844 -1.09489,3.2035 -0.86713,4.9763 0.6005,4.6808 4.90899,8.0087 9.58983,7.4078 4.53355,-0.5819 7.79726,-4.6404 7.45328,-9.1472 0,0 -13.16333,-3.8521 -13.16333,-3.8521 0,0 0.31483,1.756 0.31483,1.756 0,0 -3.32748,-1.1408 -3.32748,-1.1408 0,0 0,0 0,0 z"
         style="fill:#ffffff;fill-opacity:1;fill-rule:evenodd;stroke:none"
         id="path4255" />
      <path
         inkscape:connector-curvature="0"
         d="m 130.31759,1007.3503 c -0.0964,-0.7501 -0.29619,-1.4575 -0.55737,-2.1082 0,0 -4.67889,-1.3689 -4.67889,-1.3689 -0.40657,1.1925 -0.67941,2.6702 -0.48236,4.2105 0.46486,3.6167 3.30259,6.2504 3.70215,6.1987 0.40073,-0.051 2.48131,-3.3166 2.01647,-6.9321 0,0 0,0 0,0 z"
         style="fill:#231f20;fill-opacity:1;fill-rule:evenodd;stroke:none"
         id="path4257" />
    </g>
    <g
       id="g4750"
       inkscape:transform-center-x="-25.27466"
       inkscape:transform-center-y="14.998576"
       transform="matrix(0.99086825,0.13483365,-0.13483365,0.99086825,139.99545,-6.1979359)">
      <path
         inkscape:connector-curvature="0"
         d="m 151.48651,1046.2709 c -0.47496,-1.7448 -1.01601,-3.3457 -1.54966,-4.5712 -0.64753,-1.4852 -1.36853,-2.5054 -2.07942,-2.7526 0,0 -0.3813,-0.055 -0.3813,-0.055 -0.75363,0.044 -1.51351,0.8147 -2.224,1.9967 -0.22505,0.3747 -0.45476,0.7983 -0.68641,1.2546 -0.0521,-0.5301 -0.11541,-1.0214 -0.19045,-1.4637 -0.23787,-1.4008 -0.64598,-2.4199 -1.22473,-2.8172 0,0 -0.3568,-0.1527 -0.3568,-0.1527 -0.71789,-0.152 -1.61729,0.3572 -2.57654,1.2593 -0.728,0.6845 -1.5485,1.6107 -2.35811,2.617 -2.4203,-1.9248 -4.73215,-4.6669 -7.06654,-7.4386 -1.46843,-1.7412 -2.94463,-3.4926 -4.48301,-5.0877 -3.03984,-3.1495 -5.71279,-5.0591 -8.03512,-5.9522 -2.20575,-0.8493 -4.12154,-0.8085 -5.75787,-0.055 -1.60369,0.7412 -2.88516,2.1579 -3.86308,4.0861 -1.3763,2.7114 -2.16104,6.4793 -2.4059,10.7823 -0.0688,1.2018 -0.0536,2.3488 0.0392,3.4426 0.50956,5.9801 3.35622,10.1658 7.75877,12.9538 4.30034,2.7227 10.06597,4.0741 16.55494,4.4434 3.64308,0.2083 7.52713,0.1065 11.51223,-0.2333 4.93193,-0.4209 8.44247,0.2476 12.53019,1.0246 3.79661,0.7214 8.07711,1.5353 14.32859,1.7024 5.37579,0.1446 8.98429,-1.3297 10.73606,-3.2983 0.75869,-0.8524 1.19011,-1.8004 1.28923,-2.7697 0.10221,-0.9838 -0.13759,-1.9745 -0.72371,-2.8937 -0.74822,-1.1754 -2.08914,-2.2283 -4.02204,-2.9621 0.0486,-1.4545 0.019,-2.7783 -0.0944,-3.8266 -0.14692,-1.3565 -0.48236,-2.3585 -1.02263,-2.7848 0,0 -0.34629,-0.1753 -0.34629,-0.1753 -0.80378,-0.2278 -1.94728,0.424 -3.18328,1.5348 -1.15476,1.037 -2.49764,2.4989 -3.68739,3.9272 -0.0229,0 -0.0466,0 -0.0708,-0.01 -0.44892,-1.5287 -0.94099,-2.9038 -1.42217,-3.9559 -0.60635,-1.3258 -1.27798,-2.2299 -1.95078,-2.4635 0,0 -0.38052,-0.054 -0.38052,-0.054 -0.7684,0.044 -1.5446,0.8469 -2.26948,2.0689 -0.46409,0.782 -0.95342,1.777 -1.42411,2.8471 -0.38052,-1.2279 -0.78668,-2.3399 -1.18624,-3.2354 -0.62617,-1.4043 -1.32269,-2.3647 -2.01374,-2.6057 0,0 -0.38131,-0.054 -0.38131,-0.054 -0.77423,0.045 -1.56091,0.8656 -2.29435,2.1121 -0.60167,1.0234 -1.24456,2.3962 -1.83299,3.8223 -0.39725,-0.066 -0.79797,-0.1365 -1.20414,-0.2119 0,0 0,0 0,0 z"
         style="fill:#231f20;fill-opacity:1;fill-rule:nonzero;stroke:none"
         id="path4261" />
      <path
         inkscape:connector-curvature="0"
         d="m 170.34902,1048.2232 c 0.88463,-1.0086 1.79142,-1.9593 2.58083,-2.6682 0.47767,-0.4291 0.86285,-0.765 1.09179,-0.9484 0.0536,0.2499 0.10688,0.6301 0.15935,1.1112 0.0894,0.8306 0.12128,1.8703 0.0968,3.0282 -0.68019,-0.152 -1.41246,-0.2709 -2.19681,-0.3513 -0.59157,-0.061 -1.16876,-0.1182 -1.73195,-0.1715 0,0 0,0 0,0 z"
         style="fill:#ffffff;fill-opacity:1;fill-rule:nonzero;stroke:none"
         id="path4265" />
      <path
         inkscape:connector-curvature="0"
         d="m 124.88309,1030.4374 c 1.4898,1.543 2.94502,3.2695 4.39166,4.9859 3.79351,4.5017 7.53102,8.9377 12.0595,10.3431 9.36869,2.9069 15.12383,3.3473 22.53436,3.9144 2.42923,0.1862 5.03843,0.3856 8.01142,0.6918 3.59681,0.3701 5.81966,1.5691 6.72373,2.9882 0.33348,0.5243 0.47263,1.0809 0.41549,1.6258 -0.0576,0.5597 -0.32182,1.1252 -0.79095,1.6515 -1.40274,1.5776 -4.47135,2.7538 -9.20272,2.6263 -6.15549,-0.1648 -10.31821,-0.9562 -14.0126,-1.6589 -4.24008,-0.8057 -7.8816,-1.4983 -13.06578,-1.0564 -3.886,0.3312 -7.67404,0.4295 -11.23044,0.2274 -6.17998,-0.3525 -11.62496,-1.6103 -15.60813,-4.1332 -3.88133,-2.4572 -6.39141,-6.1547 -6.84266,-11.445 -0.084,-0.9904 -0.0964,-2.0429 -0.0334,-3.1611 0.23087,-4.0454 0.94721,-7.5454 2.19563,-10.0058 0.77425,-1.5259 1.74673,-2.6286 2.92559,-3.1719 1.14775,-0.5298 2.54427,-0.5376 4.20897,0.1025 2.06505,0.7949 4.497,2.549 7.32036,5.4753 0,0 0,0 0,0 z"
         style="fill:#ffffff;fill-opacity:1;fill-rule:nonzero;stroke:none"
         class="colored"
         id="path4263" />
      <path
         inkscape:connector-curvature="0"
         d="m 162.08147,1047.5481 c 0.48001,-1.1128 0.98257,-2.1502 1.45132,-2.9415 0.22349,-0.3755 0.40307,-0.6755 0.52083,-0.8656 0.14574,0.2414 0.33932,0.6285 0.56708,1.1248 0.36497,0.8011 0.74276,1.8187 1.10112,2.9641 -0.57719,-0.045 -1.14272,-0.089 -1.69969,-0.131 -0.65842,-0.051 -1.3044,-0.1007 -1.94066,-0.1508 0,0 0,0 0,0 z"
         style="fill:#ffffff;fill-opacity:1;fill-rule:nonzero;stroke:none"
         id="path4267" />
      <path
         inkscape:connector-curvature="0"
         d="m 154.71058,1046.7917 c 0.50179,-1.1804 1.03079,-2.2889 1.52479,-3.1276 0.23321,-0.3973 0.4221,-0.7125 0.54338,-0.9092 0.15934,0.2616 0.37274,0.6958 0.62382,1.2574 0.38867,0.871 0.78902,1.9838 1.16526,3.2311 -1.28576,-0.1259 -2.55945,-0.2709 -3.85725,-0.4517 0,0 0,0 0,0 z"
         style="fill:#ffffff;fill-opacity:1;fill-rule:nonzero;stroke:none"
         id="path4269" />
      <path
         inkscape:connector-curvature="0"
         d="m 145.4725,1044.9008 c 0.49285,-1.145 1.00784,-2.2049 1.48164,-2.9936 0.20911,-0.3482 0.37703,-0.6257 0.48779,-0.8049 0.17257,0.2818 0.40578,0.761 0.67747,1.3856 0.39645,0.9095 0.80184,2.0627 1.18119,3.3442 -1.21773,-0.2639 -2.48637,-0.5706 -3.82809,-0.9313 0,0 0,0 0,0 z"
         style="fill:#ffffff;fill-opacity:1;fill-rule:nonzero;stroke:none"
         id="path4271" />
      <path
         inkscape:connector-curvature="0"
         d="m 139.48648,1042.7371 c 0.7447,-0.9224 1.47309,-1.7471 2.09031,-2.3282 0.2542,-0.2394 0.46136,-0.4326 0.60245,-0.564 0.0735,0.262 0.15469,0.6615 0.24097,1.1672 0.14538,0.8543 0.24333,1.9193 0.29385,3.1013 -0.26314,-0.079 -0.52782,-0.1606 -0.7964,-0.2437 -0.8271,-0.2573 -1.63594,-0.6437 -2.43118,-1.1326 0,0 0,0 0,0 z"
         style="fill:#ffffff;fill-opacity:1;fill-rule:nonzero;stroke:none"
         id="path4273" />
    </g>
    <path
       style="font-style:normal;font-variant:normal;font-weight:bold;font-stretch:normal;font-size:medium;line-height:125%;font-family:'Comic Neue Angular';-inkscape-font-specification:'Comic Neue Angular Bold';letter-spacing:-3.18999815px;word-spacing:0px;fill:#ffffff;fill-opacity:1;stroke:none;stroke-width:1px;stroke-linecap:butt;stroke-linejoin:miter;stroke-opacity:1"
       d="m -2.5678652,1013.9511 c -8.4377028,-0.949 -7.3498084,9.1282 -10.3440558,14.4813 -3.882827,6.2355 -6.598794,7.1899 -5.553902,15.7543 -3.5703,5.5109 10.1703021,11.2278 8.8457627,1.8532 1.4811535,-9.6152 11.3968542,-6.1563 10.57539199,2.6128 0.43525851,7.954 13.20649931,-2.6145 7.03970271,-7.7065 -2.8348124,-9.1323 -5.6711048,-18.2641 -8.50496982,-27.3967 l -1.14651628,0.2237 -0.9114135,0.1779 z"
       id="path4521"
       inkscape:connector-curvature="0" />
    <path
       style="font-style:normal;font-variant:normal;font-weight:bold;font-stretch:normal;font-size:medium;line-height:125%;font-family:'Comic Neue Angular';-inkscape-font-specification:'Comic Neue Angular Bold';letter-spacing:-3.18999815px;word-spacing:0px;fill:#ffffff;fill-opacity:1;stroke:none;stroke-width:1px;stroke-linecap:butt;stroke-linejoin:miter;stroke-opacity:1"
       d="m 13.480334,1014.1883 c -9.8007413,-1.044 -5.0543737,9.8546 -6.121313,15.982 0,7.0279 0,14.0558 0,21.0836 9.181019,0.8338 10.101071,-5.182 8.91161,-12.9545 0,-8.2218 0,-16.4436 0,-24.6655 -0.930099,0.1848 -1.860198,0.3696 -2.790297,0.5544 z"
       id="path4523"
       inkscape:connector-curvature="0" />
    <path
       style="font-style:normal;font-variant:normal;font-weight:bold;font-stretch:normal;font-size:medium;line-height:125%;font-family:'Comic Neue Angular';-inkscape-font-specification:'Comic Neue Angular Bold';letter-spacing:-3.18999815px;word-spacing:0px;fill:#ffffff;fill-opacity:1;stroke:none;stroke-width:1px;stroke-linecap:butt;stroke-linejoin:miter;stroke-opacity:1"
       d="m 21.082354,1014.1883 c -9.800742,-1.044 -5.054375,9.8546 -6.121315,15.982 0,7.0279 0,14.0558 0,21.0836 9.181019,0.8338 10.101072,-5.182 8.911612,-12.9545 0,-8.2218 -2e-6,-16.4436 0,-24.6655 -0.930099,0.1848 -1.860198,0.3696 -2.790297,0.5544 z"
       id="path4525"
       inkscape:connector-curvature="0" />
    <path
       style="font-style:normal;font-variant:normal;font-weight:bold;font-stretch:normal;font-size:medium;line-height:125%;font-family:'Comic Neue Angular';-inkscape-font-specification:'Comic Neue Angular Bold';letter-spacing:-3.18999815px;word-spacing:0px;fill:#ffffff;fill-opacity:1;stroke:none;stroke-width:1px;stroke-linecap:butt;stroke-linejoin:miter;stroke-opacity:1"
       d="m 28.711751,1014.275 c -8.797377,-1.3124 -6.329123,8.7267 -6.502328,13.9195 0,7.6811 0,15.3623 0,23.0434 9.214831,0.8637 10.293436,-5.0669 9.043939,-12.9385 0.114816,-8.309 -0.324849,-16.3898 0.401547,-24.5697 -0.981053,0.1818 -1.962106,0.3636 -2.943158,0.5453 z"
       id="path4527"
       inkscape:connector-curvature="0" />
    <path
       style="font-style:normal;font-variant:normal;font-weight:bold;font-stretch:normal;font-size:medium;line-height:125%;font-family:'Comic Neue Angular';-inkscape-font-specification:'Comic Neue Angular Bold';letter-spacing:-3.18999815px;word-spacing:0px;fill:#ffffff;fill-opacity:1;stroke:none;stroke-width:1px;stroke-linecap:butt;stroke-linejoin:miter;stroke-opacity:1"
       d="m 49.085709,1021.9751 c -5.740871,0.9791 -13.079699,-0.6271 -16.967652,5.1266 -5.018614,6.0883 -4.54167,16.6487 2.222199,21.2752 -3.21518,-0.041 -5.604037,11.3069 1.115662,9.5915 6.859858,2.1603 15.434892,-1.8903 15.719661,-9.6554 0.454163,-8.9154 0.39492,-17.8602 0.682174,-26.785 -0.924015,0.149 -1.848029,0.2981 -2.772044,0.4471 z m -7.038485,9.6075 c 1.238127,1.6165 1.434239,10.8743 -3.232911,9.0325 -2.810438,-2.8264 -1.222073,-9.2525 3.232911,-9.0325 z"
       id="path4529"
       inkscape:connector-curvature="0" />
    <path
       style="font-style:normal;font-variant:normal;font-weight:bold;font-stretch:normal;font-size:medium;line-height:125%;font-family:'Comic Neue Angular';-inkscape-font-specification:'Comic Neue Angular Bold';letter-spacing:-3.18999815px;word-spacing:0px;fill:#ffffff;fill-opacity:1;stroke:none;stroke-width:1px;stroke-linecap:butt;stroke-linejoin:miter;stroke-opacity:1"
       d="m 62.181623,1021.9478 c -13.694372,0.1145 -18.040194,23.7218 -4.661141,27.9485 1.667234,1.2137 5.640005,-1.14 5.277151,1.3872 9.160682,0.7386 10.108722,-5.2612 8.909329,-13.0298 -1.042458,-5.2449 3.075577,-13.9213 -4.163771,-15.2382 -1.707766,-0.6539 -3.525166,-1.0842 -5.361568,-1.0677 z m 0.49509,9.117 c 0.261128,2.5298 1.455174,12.3117 -3.53179,9.4226 -1.673824,-2.8923 -0.562985,-9.3277 3.53179,-9.4226 z"
       id="path4531"
       inkscape:connector-curvature="0" />
    <path
       style="font-style:normal;font-variant:normal;font-weight:bold;font-stretch:normal;font-size:medium;line-height:125%;font-family:'Comic Neue Angular';-inkscape-font-specification:'Comic Neue Angular Bold';letter-spacing:-3.18999815px;word-spacing:0px;fill:#ffffff;fill-opacity:1;stroke:none;stroke-width:1px;stroke-linecap:butt;stroke-linejoin:miter;stroke-opacity:1"
       d="m 79.724218,1015.0644 c -8.350077,0.012 -5.999752,8.4971 -11.781761,9.6851 -2.224771,9.4534 9.391023,5.0662 5.518992,16.1668 -1.473149,8.26 0.395069,12.5087 8.998308,8.6743 1.622558,-5.444 -3.567643,-17.7009 3.180438,-18.0194 8.48569,-5.4302 -3.784814,-8.648 -3.180438,-13.8306 0.187773,-2.9425 0.502325,-3.7198 -2.735539,-2.6762 z"
       id="path4533"
       inkscape:connector-curvature="0" />
    <path
       style="font-style:normal;font-variant:normal;font-weight:bold;font-stretch:normal;font-size:medium;line-height:125%;font-family:'Comic Neue Angular';-inkscape-font-specification:'Comic Neue Angular Bold';letter-spacing:-3.18999815px;word-spacing:0px;fill:#ffffff;fill-opacity:1;stroke:none;stroke-width:1px;stroke-linecap:butt;stroke-linejoin:miter;stroke-opacity:1"
       d="m 95.450723,1022.5227 c -13.34411,0.9182 -16.740577,22.6494 -4.1478,27.4033 10.688717,3.6558 19.253757,-9.8829 15.368307,-19.2149 -1.56691,-4.6985 -6.08605,-8.5653 -11.220507,-8.1884 z m 0.506497,8.8203 c 4.684,1.2968 2.497567,12.0815 -2.288362,9.8562 -2.382269,-2.5053 -1.543603,-9.2499 2.288362,-9.8562 z"
       id="path4535"
       inkscape:connector-curvature="0" />
    <path
       style="font-style:normal;font-variant:normal;font-weight:bold;font-stretch:normal;font-size:medium;line-height:125%;font-family:'Comic Neue Angular';-inkscape-font-specification:'Comic Neue Angular Bold';letter-spacing:-3.18999815px;word-spacing:0px;fill:#ffffff;fill-opacity:1;stroke:none;stroke-width:1px;stroke-linecap:butt;stroke-linejoin:miter;stroke-opacity:1"
       d="m 111.25479,1022.2215 c -9.84006,-1.0744 -5.10814,9.8357 -6.16465,15.9843 0.29911,6.3742 -2.65854,16.6674 7.04305,11.7362 4.57789,-2.2696 0.16912,-11.0042 2.42068,-15.8201 -0.62395,-0.6567 12.1683,3.0575 9.68733,-4.887 0.4876,-5.2353 -5.87236,-8.4656 -10.19839,-6.0437 0.82135,-2.5934 -1.51351,-0.9675 -2.78802,-0.9697 z"
       id="path4537"
       inkscape:connector-curvature="0" />
    <path
       inkscape:connector-curvature="0"
       id="path4145"
       style="font-style:normal;font-variant:normal;font-weight:bold;font-stretch:normal;font-size:medium;line-height:125%;font-family:'Comic Neue Angular';-inkscape-font-specification:'Comic Neue Angular Bold';letter-spacing:-3.18999815px;word-spacing:0px;fill:#c04040;fill-opacity:1;stroke:none;stroke-width:1px;stroke-linecap:butt;stroke-linejoin:miter;stroke-opacity:1"
       d="m -2.1205095,1016.2451 -4.3261274,0.841 -6.3567591,18.0828 -3.531532,0.7009 0.75045,4.4856 1.015316,-0.1401 -2.251352,6.3079 3.840542,2.0559 3.3108115,-9.4853 9.40270579,-2.1026 3.70810951,11.7748 3.7081096,-2.6633 -9.2702739,-29.8576 z m -5.7828846,17.8024 3.5756762,-10.046 2.7369389,8.5975 -6.3126151,1.4485 z" />
    <path
       inkscape:connector-curvature="0"
       id="path4147"
       style="font-style:normal;font-variant:normal;font-weight:bold;font-stretch:normal;font-size:medium;line-height:125%;font-family:'Comic Neue Angular';-inkscape-font-specification:'Comic Neue Angular Bold';letter-spacing:-3.18999815px;word-spacing:0px;fill:#c09440;fill-opacity:1;stroke:none;stroke-width:1px;stroke-linecap:butt;stroke-linejoin:miter;stroke-opacity:1"
       d="m 9.6963295,1017.3198 0,31.1191 4.2378395,-0.7943 0,-31.1659 -4.2378395,0.8411 z" />
    <path
       inkscape:connector-curvature="0"
       id="path4149"
       style="font-style:normal;font-variant:normal;font-weight:bold;font-stretch:normal;font-size:medium;line-height:125%;font-family:'Comic Neue Angular';-inkscape-font-specification:'Comic Neue Angular Bold';letter-spacing:-3.18999815px;word-spacing:0px;fill:#c0af40;fill-opacity:1;stroke:none;stroke-width:1px;stroke-linecap:butt;stroke-linejoin:miter;stroke-opacity:1"
       d="m 17.298098,1017.3198 0,31.1191 4.237839,-0.7943 0,-31.1659 -4.237839,0.8411 z" />
    <path
       inkscape:connector-curvature="0"
       id="path4151"
       style="font-style:normal;font-variant:normal;font-weight:bold;font-stretch:normal;font-size:medium;line-height:125%;font-family:'Comic Neue Angular';-inkscape-font-specification:'Comic Neue Angular Bold';letter-spacing:-3.18999815px;word-spacing:0px;fill:#b8c040;fill-opacity:1;stroke:none;stroke-width:1px;stroke-linecap:butt;stroke-linejoin:miter;stroke-opacity:1"
       d="m 24.546711,1025.3566 0,23.0823 4.370272,-0.7943 0,-23.0357 -4.370272,0.7477 z m 4.590993,-8.7844 -4.281983,0.7943 -0.397297,5.7005 4.326127,-0.7943 0.353153,-5.7005 z" />
    <path
       inkscape:connector-curvature="0"
       id="path4153"
       style="font-style:normal;font-variant:normal;font-weight:bold;font-stretch:normal;font-size:medium;line-height:125%;font-family:'Comic Neue Angular';-inkscape-font-specification:'Comic Neue Angular Bold';letter-spacing:-3.18999815px;word-spacing:0px;fill:#a3c040;fill-opacity:1;stroke:none;stroke-width:1px;stroke-linecap:butt;stroke-linejoin:miter;stroke-opacity:1"
       d="m 49.459191,1024.2819 -4.326126,0.7008 0,0.4673 c -1.059461,-0.4673 -2.074776,-0.6542 -3.531533,-0.6542 -6.356759,0 -10.50631,5.9809 -10.50631,11.9618 0,6.4014 3.840542,10.9805 8.961264,10.9805 1.721622,0 3.310812,-0.4206 4.635136,-1.4953 -0.04414,1.542 -0.618018,5.3268 -4.855857,5.3268 -1.765766,0 -3.92883,-0.3738 -5.341444,-0.7477 l -0.882882,4.3922 c 1.765767,0.4206 4.281983,0.8411 6.224326,0.8411 5.694596,0 9.005408,-3.4577 9.137841,-9.6722 l 0.485585,-22.1011 z m -4.502703,5.8874 0,5.607 c 0,6.0744 -2.781083,7.5228 -5.120723,7.5696 -3.354956,0 -4.767569,-3.9717 -4.767569,-6.4949 0,-4.1585 2.86937,-7.6162 6.754057,-7.6162 1.147747,0 2.33964,0.4205 3.134235,0.9345 z" />
    <path
       inkscape:connector-curvature="0"
       id="path4155"
       style="font-style:normal;font-variant:normal;font-weight:bold;font-stretch:normal;font-size:medium;line-height:125%;font-family:'Comic Neue Angular';-inkscape-font-specification:'Comic Neue Angular Bold';letter-spacing:-3.18999815px;word-spacing:0px;fill:#61c040;fill-opacity:1;stroke:none;stroke-width:1px;stroke-linecap:butt;stroke-linejoin:miter;stroke-opacity:1"
       d="m 69.371661,1026.4312 c -2.251352,-1.2148 -4.723425,-2.1493 -7.107209,-2.1493 -7.681084,0 -10.50631,8.6442 -10.50631,13.3635 0,6.121 3.619821,10.2796 8.519822,10.2796 1.809911,0 3.443245,-0.5607 4.855859,-1.3083 l 0,1.8222 4.237838,-0.841 0,-21.1667 z m -13.331535,11.1674 c 0,-3.224 1.677478,-8.8778 6.445047,-8.8778 0.838739,0 1.986486,0.2336 2.736937,0.6074 l -0.176576,12.1954 c -1.05946,0.7943 -3.045947,1.9157 -4.811713,1.9157 -3.045948,-0.047 -4.193695,-3.2708 -4.193695,-5.8407 z" />
    <path
       inkscape:connector-curvature="0"
       id="path4157"
       style="font-style:normal;font-variant:normal;font-weight:bold;font-stretch:normal;font-size:medium;line-height:125%;font-family:'Comic Neue Angular';-inkscape-font-specification:'Comic Neue Angular Bold';letter-spacing:-3.18999815px;word-spacing:0px;fill:#40c05e;fill-opacity:1;stroke:none;stroke-width:1px;stroke-linecap:butt;stroke-linejoin:miter;stroke-opacity:1"
       d="m 85.640848,1024.7491 -5.518021,0 0,-7.3826 -4.326126,0.7476 0,6.635 -5.518021,0 0,4.4857 5.518021,0 0,19.2041 4.326126,-0.7943 0,-18.4098 5.518021,0 0,-4.4857 z" />
    <path
       inkscape:connector-curvature="0"
       id="path4159"
       style="font-style:normal;font-variant:normal;font-weight:bold;font-stretch:normal;font-size:medium;line-height:125%;font-family:'Comic Neue Angular';-inkscape-font-specification:'Comic Neue Angular Bold';letter-spacing:-3.18999815px;word-spacing:0px;fill:#40c08e;fill-opacity:1;stroke:none;stroke-width:1px;stroke-linecap:butt;stroke-linejoin:miter;stroke-opacity:1"
       d="m 94.809037,1048.2053 c 5.650453,0 10.373873,-5.7005 10.373873,-12.5224 0,-5.8407 -3.97296,-10.8403 -9.137837,-10.8403 -5.606308,0 -10.329732,5.7472 -10.329732,12.5224 0,5.9341 3.92883,10.8403 9.093696,10.8403 z m 1.059461,-19.2042 c 2.781081,0 4.988282,3.1774 4.988282,6.8687 0,4.3922 -2.913507,8.1769 -6.047743,8.1769 -2.869369,0 -4.811713,-3.1306 -4.811713,-6.7751 0,-4.3922 2.692794,-8.2705 5.871174,-8.2705 z" />
    <path
       inkscape:connector-curvature="0"
       id="path4161"
       style="font-style:normal;font-variant:normal;font-weight:bold;font-stretch:normal;font-size:medium;line-height:125%;font-family:'Comic Neue Angular';-inkscape-font-specification:'Comic Neue Angular Bold';letter-spacing:-3.18999815px;word-spacing:0px;fill:#40a9c0;fill-opacity:1;stroke:none;stroke-width:1px;stroke-linecap:butt;stroke-linejoin:miter;stroke-opacity:1"
       d="m 121.90459,1028.8142 c 0,-2.2428 -1.85406,-4.0651 -4.32613,-4.0651 -2.38378,0 -4.41442,1.4485 -5.87118,3.1306 l 0,-3.3642 -4.28198,0.8411 0,23.0823 4.28198,-0.7943 0,-11.2141 c 0,-3.5511 2.73695,-7.2425 5.16488,-7.2425 0.57387,0 0.79459,0.5607 0.79459,0.9346 l 0,2.1961 4.23784,-0.7477 0,-2.7568 z" />
  </g>
</svg>
